<?xml version="1.0" encoding="UTF-8"?><!DOCTYPE svg PUBLIC "-//W3C//DTD SVG 1.0//EN" "/SysSchema/svg10.dtd">
<!-- Generated by Microsoft Visio 11.0, SVG Export, v1.0 dynamic_partitioning_switchtec_switch.svg Page-5 --><svg xmlns="http://www.w3.org/2000/svg" xmlns:xlink="http://www.w3.org/1999/xlink" xmlns:ev="http://www.w3.org/2001/xml-events" xmlns:v="http://schemas.microsoft.com/visio/2003/SVGExtensions/" width="5.75047in" height="4.67014in" viewBox="0 0 414.034 336.25" xml:space="preserve" color-interpolation-filters="sRGB" class="st29">
	<v:documentProperties v:langID="1033" v:viewMarkup="false">
		<v:userDefs>
			<v:ud v:nameU="msvNoAutoConnect" v:val="VT0(0):26"/>
		</v:userDefs>
	</v:documentProperties>

	<style type="text/css">
	<![CDATA[
		.st1 {visibility:visible}
		.st2 {fill:#cdcdcd;fill-opacity:0.5;stroke:#cdcdcd;stroke-linecap:round;stroke-linejoin:round;stroke-opacity:0.5;stroke-width:2.25}
		.st3 {fill:url(#grad30-6);stroke:#000000;stroke-linecap:round;stroke-linejoin:round;stroke-width:2.25}
		.st4 {stroke:#404040;stroke-linecap:round;stroke-linejoin:round;stroke-width:1.5}
		.st5 {fill:url(#grad30-23);stroke:#000000;stroke-linecap:round;stroke-linejoin:round;stroke-width:1}
		.st6 {fill:#000000;font-family:Calibri;font-size:0.666664em}
		.st7 {fill:none;stroke:#404040;stroke-dasharray:1.5,3;stroke-linecap:round;stroke-linejoin:round;stroke-width:1.5}
		.st8 {stroke:#000000;stroke-linecap:round;stroke-linejoin:round;stroke-width:1.5}
		.st9 {fill:url(#grad30-23);stroke:#000000;stroke-linecap:round;stroke-linejoin:round;stroke-width:2.25}
		.st10 {fill:#000000;font-family:Calibri;font-size:1.99999em}
		.st11 {fill:url(#grad30-23);stroke:#404040;stroke-linecap:round;stroke-linejoin:round;stroke-width:1}
		.st12 {fill:#ffffff;font-family:Calibri;font-size:0.833336em;font-weight:bold}
		.st13 {fill:url(#grad30-53);stroke:#404040;stroke-linecap:round;stroke-linejoin:round;stroke-width:1}
		.st14 {fill:none;stroke:none;stroke-linecap:round;stroke-linejoin:round;stroke-width:0.25}
		.st15 {fill:#000000;font-family:Calibri;font-size:1.5em;font-weight:bold}
		.st16 {baseline-shift:25.2731%;font-size:0.505463em}
		.st17 {fill:none;stroke:#404040;stroke-linecap:round;stroke-linejoin:round;stroke-width:1.5}
		.st18 {fill:#000000;font-family:Calibri;font-size:0.833336em}
		.st19 {fill:url(#grad30-53);stroke:#000000;stroke-linecap:round;stroke-linejoin:round;stroke-width:1}
		.st20 {fill:url(#grad30-53);stroke:#000000;stroke-linecap:round;stroke-linejoin:round;stroke-width:2.25}
		.st21 {fill:#a6c3dd;stroke:#404040;stroke-linecap:round;stroke-linejoin:round;stroke-width:0.25}
		.st22 {fill:url(#grad30-23);stroke:#000000;stroke-dasharray:0.25,0.5;stroke-linecap:round;stroke-linejoin:round;stroke-width:0.25}
		.st23 {marker-end:url(#mrkr13-147);marker-start:url(#mrkr13-145);stroke:#3f3f3f;stroke-linecap:round;stroke-linejoin:round;stroke-width:1.5}
		.st24 {fill:#3f3f3f;fill-opacity:1;stroke:#3f3f3f;stroke-opacity:1;stroke-width:0.37313432835821}
		.st25 {marker-end:url(#mrkr5-160);marker-start:url(#mrkr5-158);stroke:#3f3f3f;stroke-linecap:round;stroke-linejoin:round;stroke-width:1.5}
		.st26 {marker-end:url(#mrkr13-179);marker-start:url(#mrkr13-177);stroke:#404040;stroke-linecap:round;stroke-linejoin:round;stroke-width:1.5}
		.st27 {fill:#404040;fill-opacity:1;stroke:#404040;stroke-opacity:1;stroke-width:0.37313432835821}
		.st28 {fill:url(#grad30-53);stroke:#000000;stroke-dasharray:0.25,0.5;stroke-linecap:round;stroke-linejoin:round;stroke-width:0.25}
		.st29 {fill:none;fill-rule:evenodd;font-size:12px;overflow:visible;stroke-linecap:square;stroke-miterlimit:3}
	]]>
	</style>

	<defs id="Patterns_And_Gradients">
		<linearGradient id="grad30-6" v:fillPattern="30" v:foreground="#568cbe" v:background="#6b9bc7" x1="0" y1="1" x2="0" y2="0">
			<stop offset="0" style="stop-color:#568cbe;stop-opacity:1"/>
			<stop offset="1" style="stop-color:#6b9bc7;stop-opacity:1"/>
		</linearGradient>
		<linearGradient id="grad30-10" v:fillPattern="30" v:foreground="#f0f0f0" v:background="#ffffff" x1="0" y1="1" x2="0" y2="0">
			<stop offset="0" style="stop-color:#f0f0f0;stop-opacity:1"/>
			<stop offset="1" style="stop-color:#ffffff;stop-opacity:1"/>
		</linearGradient>
		<linearGradient id="grad30-23" v:fillPattern="30" v:foreground="#e78636" v:background="#ea9651" x1="0" y1="1" x2="0" y2="0">
			<stop offset="0" style="stop-color:#e78636;stop-opacity:1"/>
			<stop offset="1" style="stop-color:#ea9651;stop-opacity:1"/>
		</linearGradient>
		<linearGradient id="grad30-53" v:fillPattern="30" v:foreground="#a7b96f" v:background="#b3c283" x1="0" y1="1" x2="0" y2="0">
			<stop offset="0" style="stop-color:#a7b96f;stop-opacity:1"/>
			<stop offset="1" style="stop-color:#b3c283;stop-opacity:1"/>
		</linearGradient>
	</defs>
	<defs id="Markers">
		<g id="lend13">
			<path d="M 3 1 L 0 0 L 3 -1 L 3 1 " style="stroke:none"/>
		</g>
		<marker id="mrkr13-145" class="st24" v:arrowType="13" v:arrowSize="2" v:setback="7.8" refX="7.8" orient="auto" markerUnits="strokeWidth" overflow="visible">
			<use xlink:href="#lend13" transform="scale(2.68) "/>
		</marker>
		<marker id="mrkr13-147" class="st24" v:arrowType="13" v:arrowSize="2" v:setback="8.04" refX="-8.04" orient="auto" markerUnits="strokeWidth" overflow="visible">
			<use xlink:href="#lend13" transform="scale(-2.68,-2.68) "/>
		</marker>
		<g id="lend5">
			<path d="M 2 1 L 0 0 L 1.98117 -0.993387 C 1.67173 -0.364515 1.67301 0.372641 1.98465 1.00043 " style="stroke:none"/>
		</g>
		<marker id="mrkr5-158" class="st24" v:arrowType="5" v:arrowSize="2" v:setback="4.45" refX="4.45" orient="auto" markerUnits="strokeWidth" overflow="visible">
			<use xlink:href="#lend5" transform="scale(2.68) "/>
		</marker>
		<marker id="mrkr5-160" class="st24" v:arrowType="5" v:arrowSize="2" v:setback="4.69" refX="-4.69" orient="auto" markerUnits="strokeWidth" overflow="visible">
			<use xlink:href="#lend5" transform="scale(-2.68,-2.68) "/>
		</marker>
		<marker id="mrkr13-177" class="st27" v:arrowType="13" v:arrowSize="2" v:setback="7.8" refX="7.8" orient="auto" markerUnits="strokeWidth" overflow="visible">
			<use xlink:href="#lend13" transform="scale(2.68) "/>
		</marker>
		<marker id="mrkr13-179" class="st27" v:arrowType="13" v:arrowSize="2" v:setback="8.04" refX="-8.04" orient="auto" markerUnits="strokeWidth" overflow="visible">
			<use xlink:href="#lend13" transform="scale(-2.68,-2.68) "/>
		</marker>
	</defs>
	<g v:mID="14" v:index="5" v:groupContext="foregroundPage">
		<v:userDefs>
			<v:ud v:nameU="msvThemeColors" v:val="VT0(36):26"/>
			<v:ud v:nameU="msvThemeEffects" v:val="VT0(16):26"/>
			<v:ud v:nameU="msvThemeOrder" v:val="VT0(0):26"/>
		</v:userDefs>
		<title>Page-5</title>
		<v:pageProperties v:drawingScale="1" v:pageScale="1" v:drawingUnits="0" v:shadowOffsetX="9" v:shadowOffsetY="-9"/>
		<g id="shape1-1" v:mID="1" v:groupContext="shape" transform="translate(20.2331,-95.8438)">
			<title>Sheet.1</title>
			<v:userDefs>
				<v:ud v:nameU="msvThemeColors" v:val="VT0(36):26"/>
				<v:ud v:nameU="msvThemeEffects" v:val="VT0(16):26"/>
			</v:userDefs>
			<g id="shadow1-2" v:groupContext="shadow" v:shadowOffsetX="1.44" v:shadowOffsetY="-1.44" v:shadowType="1" transform="matrix(1,0,0,1,1.44,1.44)" class="st1">
				<path d="M0 190.01 C0 173.86 21.09 160.75 47.1 160.75 L325.02 160.75 C351.02 160.75 372.09 173.86 372.09 190.01 L372.09         307 C372.09 323.16 351.02 336.25 325.02 336.25 L47.1 336.25 C21.09 336.25 0 323.16 0 307 L0 190.01 Z" class="st2"/>
			</g>
			<path d="M0 190.01 C0 173.86 21.09 160.75 47.1 160.75 L325.02 160.75 C351.02 160.75 372.09 173.86 372.09 190.01 L372.09        307 C372.09 323.16 351.02 336.25 325.02 336.25 L47.1 336.25 C21.09 336.25 0 323.16 0 307 L0 190.01 Z" class="st3"/>
		</g>
		<g id="shape2-7" v:mID="2" v:groupContext="shape" transform="translate(418.703,121.779) rotate(90)">
			<title>Sheet.2</title>
			<v:userDefs>
				<v:ud v:nameU="msvThemeColors" v:val="VT0(36):26"/>
				<v:ud v:nameU="msvThemeEffects" v:val="VT0(16):26"/>
			</v:userDefs>
			<path d="M0 336.25 L9.9 336.25" class="st4"/>
		</g>
		<g id="shape3-12" v:mID="3" v:groupContext="shape" transform="translate(61.0969,-194.844)">
			<title>Sheet.3</title>
			<v:userDefs>
				<v:ud v:nameU="msvThemeColors" v:val="VT0(36):26"/>
				<v:ud v:nameU="msvThemeEffects" v:val="VT0(16):26"/>
			</v:userDefs>
			<path d="M0 326.53 L126.33 326.53 L126.33 336.25" class="st4"/>
		</g>
		<g id="shape4-16" v:mID="4" v:groupContext="shape" transform="translate(397.347,131.682) rotate(90)">
			<title>Sheet.4</title>
			<v:userDefs>
				<v:ud v:nameU="msvThemeColors" v:val="VT0(36):26"/>
				<v:ud v:nameU="msvThemeEffects" v:val="VT0(16):26"/>
			</v:userDefs>
			<path d="M0 336.25 L9.72 336.25" class="st4"/>
		</g>
		<g id="shape5-20" v:mID="5" v:groupContext="shape" transform="translate(48.0769,-170.094)">
			<title>Sheet.5</title>
			<desc>P2P</desc>
			<v:userDefs>
				<v:ud v:nameU="msvThemeColors" v:val="VT0(36):26"/>
				<v:ud v:nameU="msvThemeEffects" v:val="VT0(16):26"/>
			</v:userDefs>
			<v:textBlock v:margins="rect(2,2,2,2)"/>
			<v:textRect cx="13.0201" cy="323.875" width="26.05" height="24.75"/>
			<path d="M0 315.63 C0 313.35 0.82 311.5 1.83 311.5 L24.22 311.5 C25.22 311.5 26.04 313.35 26.04 315.63 L26.04 332.13        C26.04 334.41 25.22 336.25 24.22 336.25 L1.83 336.25 C0.82 336.25 0 334.41 0 332.13 L0 315.63 Z" class="st5"/>
			<text x="6.86" y="326.27" class="st6" v:langID="1033"><v:paragraph v:horizAlign="1"/><v:tabList/>P2P</text>		</g>
		<g id="shape6-25" v:mID="6" v:groupContext="shape" transform="translate(69.281,-214.471)">
			<title>Sheet.6</title>
			<desc>P2P</desc>
			<v:userDefs>
				<v:ud v:nameU="msvThemeColors" v:val="VT0(36):26"/>
				<v:ud v:nameU="msvThemeEffects" v:val="VT0(16):26"/>
			</v:userDefs>
			<v:textBlock v:margins="rect(2,2,2,2)"/>
			<v:textRect cx="13.0201" cy="323.875" width="26.05" height="24.75"/>
			<path d="M0 315.63 C0 313.35 0.82 311.5 1.83 311.5 L24.22 311.5 C25.22 311.5 26.04 313.35 26.04 315.63 L26.04 332.13        C26.04 334.41 25.22 336.25 24.22 336.25 L1.83 336.25 C0.82 336.25 0 334.41 0 332.13 L0 315.63 Z" class="st5"/>
			<text x="6.86" y="326.27" class="st6" v:langID="1033"><v:paragraph v:horizAlign="1"/><v:tabList/>P2P</text>		</g>
		<g id="shape7-29" v:mID="7" v:groupContext="shape" transform="translate(41.856,-163.344)">
			<title>Sheet.7</title>
			<v:userDefs>
				<v:ud v:nameU="msvThemeColors" v:val="VT0(36):26"/>
				<v:ud v:nameU="msvThemeEffects" v:val="VT0(16):26"/>
			</v:userDefs>
			<path d="M0 336.25 L163.95 336.25 L163.95 250.75 L0 250.75 L0 336.25 Z" class="st7"/>
		</g>
		<g id="group8-31" transform="translate(39.6591,-239.965)" v:mID="8" v:groupContext="group">
			<v:userDefs>
				<v:ud v:nameU="msvThemeColors" v:val="VT0(36):26"/>
				<v:ud v:nameU="msvThemeEffects" v:val="VT0(16):26"/>
			</v:userDefs>
			<title>Sheet.8</title>
			<g id="shape9-32" v:mID="9" v:groupContext="shape" transform="translate(379.356,289.232) rotate(90)">
				<title>Sheet.9</title>
				<v:userDefs>
					<v:ud v:nameU="msvThemeColors" v:val="VT0(36):26"/>
					<v:ud v:nameU="msvThemeEffects" v:val="VT0(16):26"/>
				</v:userDefs>
				<path d="M0 336.25 L47.02 336.25" class="st8"/>
			</g>
			<g id="shape10-36" v:mID="10" v:groupContext="shape" transform="translate(1.59872E-014,-47.4882)">
				<title>Sheet.10</title>
				<desc>Host</desc>
				<v:userDefs>
					<v:ud v:nameU="msvThemeColors" v:val="VT0(36):26"/>
					<v:ud v:nameU="msvThemeEffects" v:val="VT0(16):26"/>
				</v:userDefs>
				<v:textBlock v:margins="rect(2,2,2,2)"/>
				<v:textRect cx="42.8339" cy="321.805" width="85.67" height="28.8906"/>
				<path d="M0 312.18 C0 309.52 2.7 307.36 6.01 307.36 L79.66 307.36 C82.98 307.36 85.67 309.52 85.67 312.18 L85.67         331.44 C85.67 334.1 82.98 336.25 79.66 336.25 L6.01 336.25 C2.7 336.25 -0 334.1 0 331.44 L0 312.18 Z" class="st9"/>
				<text x="20.32" y="329" class="st10" v:langID="1033"><v:paragraph v:horizAlign="1"/><v:tabList/>Host</text>			</g>
		</g>
		<g id="group11-40" transform="translate(386.516,262.906) rotate(90)" v:mID="11" v:groupContext="group">
			<v:userDefs>
				<v:ud v:nameU="msvThemeColors" v:val="VT0(36):26"/>
				<v:ud v:nameU="msvThemeEffects" v:val="VT0(16):26"/>
			</v:userDefs>
			<title>Sheet.11</title>
			<desc>PCIe SSD</desc>
			<g id="shape12-41" v:mID="12" v:groupContext="shape" transform="translate(0.0107429,0)">
				<title>Sheet.12</title>
				<v:userDefs>
					<v:ud v:nameU="msvThemeColors" v:val="VT0(36):26"/>
					<v:ud v:nameU="msvThemeEffects" v:val="VT0(16):26"/>
				</v:userDefs>
				<path d="M28.41 336.25 A25.5789 4.73545 -180 0 0 53.99 331.51 L53.99 331.08 L53.99 313.43 L0 313.43 L0 331.51 A28.4211         4.73545 -180 0 0 28.41 336.25 Z" class="st11"/>
			</g>
			<g id="shape13-44" v:mID="13" v:groupContext="shape" transform="translate(0,-18.5113)">
				<title>Sheet.13</title>
				<v:userDefs>
					<v:ud v:nameU="msvThemeColors" v:val="VT0(36):26"/>
					<v:ud v:nameU="msvThemeEffects" v:val="VT0(16):26"/>
				</v:userDefs>
				<ellipse cx="27" cy="331.945" rx="27" ry="4.30495" class="st11"/>
			</g>
			<g id="shape11-47" v:mID="11" v:groupContext="groupContent">
				<v:textBlock v:margins="rect(2,2,2,2)" v:verticalAlign="2"/>
				<v:textRect cx="27" cy="322.689" width="54" height="27.1212"/>
				<text x="8.83" y="331.25" class="st12" v:langID="1033"><v:paragraph v:horizAlign="1"/><v:tabList/>PCIe SSD</text>			</g>
		</g>
		<g id="group14-49" transform="translate(676.706,262.906) rotate(90)" v:mID="14" v:groupContext="group">
			<v:userDefs>
				<v:ud v:nameU="msvThemeColors" v:val="VT0(36):26"/>
				<v:ud v:nameU="msvThemeEffects" v:val="VT0(16):26"/>
			</v:userDefs>
			<title>Sheet.14</title>
			<desc>PCIe SSD</desc>
			<g id="shape15-50" v:mID="15" v:groupContext="shape" transform="translate(0.0107429,0)">
				<title>Sheet.15</title>
				<v:userDefs>
					<v:ud v:nameU="msvThemeColors" v:val="VT0(36):26"/>
					<v:ud v:nameU="msvThemeEffects" v:val="VT0(16):26"/>
				</v:userDefs>
				<path d="M28.41 336.25 A25.5789 4.73545 -180 0 0 53.99 331.51 L53.99 331.08 L53.99 313.43 L0 313.43 L0 331.51 A28.4211         4.73545 -180 0 0 28.41 336.25 Z" class="st13"/>
			</g>
			<g id="shape16-54" v:mID="16" v:groupContext="shape" transform="translate(0,-18.5113)">
				<title>Sheet.16</title>
				<v:userDefs>
					<v:ud v:nameU="msvThemeColors" v:val="VT0(36):26"/>
					<v:ud v:nameU="msvThemeEffects" v:val="VT0(16):26"/>
				</v:userDefs>
				<ellipse cx="27" cy="331.945" rx="27" ry="4.30495" class="st13"/>
			</g>
			<g id="shape14-57" v:mID="14" v:groupContext="groupContent">
				<v:textBlock v:margins="rect(2,2,2,2)" v:verticalAlign="2"/>
				<v:textRect cx="27" cy="322.689" width="54" height="27.1212"/>
				<text x="8.83" y="331.25" class="st12" v:langID="1033"><v:paragraph v:horizAlign="1"/><v:tabList/>PCIe SSD</text>			</g>
		</g>
		<g id="shape17-59" v:mID="17" v:groupContext="shape" transform="translate(42.4383,-239.094)">
			<title>Sheet.17</title>
			<desc>Partition 1</desc>
			<v:userDefs>
				<v:ud v:nameU="msvThemeColors" v:val="VT0(36):26"/>
				<v:ud v:nameU="msvThemeEffects" v:val="VT0(16):26"/>
			</v:userDefs>
			<v:textBlock v:margins="rect(2,2,2,2)"/>
			<v:textRect cx="20.25" cy="330.25" width="40.5" height="12"/>
			<rect x="0" y="324.25" width="40.5" height="12" class="st14"/>
			<text x="3.21" y="332.65" class="st6" v:langID="1033"><v:paragraph v:horizAlign="1"/><v:tabList/>Partition 1</text>		</g>
		<g id="shape18-62" v:mID="18" v:groupContext="shape" transform="translate(162.551,-253.206)">
			<title>Sheet.18</title>
			<desc>SwitchtecTM</desc>
			<v:userDefs>
				<v:ud v:nameU="msvThemeColors" v:val="VT0(36):26"/>
				<v:ud v:nameU="msvThemeEffects" v:val="VT0(16):26"/>
			</v:userDefs>
			<v:textBlock v:margins="rect(2,2,2,2)"/>
			<v:textRect cx="50" cy="330.25" width="100.01" height="12"/>
			<rect x="0" y="324.25" width="100" height="12" class="st14"/>
			<text x="7.47" y="335.65" class="st15" v:langID="1033"><v:paragraph v:horizAlign="1"/><v:tabList/>Switchtec<tspan dy="-0.234em" class="st16" v:baseFontSize="14">TM</tspan></text>		</g>
		<g id="shape19-66" v:mID="19" v:groupContext="shape" transform="translate(38.8659,-113.844)">
			<title>Sheet.19</title>
			<v:userDefs>
				<v:ud v:nameU="msvThemeColors" v:val="VT0(36):26"/>
				<v:ud v:nameU="msvThemeEffects" v:val="VT0(16):26"/>
			</v:userDefs>
			<rect x="0" y="295.75" width="334.336" height="40.5" class="st17"/>
		</g>
		<g id="shape20-68" v:mID="20" v:groupContext="shape" transform="translate(145.53,-116.094)">
			<title>Sheet.20</title>
			<desc>Logical to physical mapping</desc>
			<v:userDefs>
				<v:ud v:nameU="msvThemeColors" v:val="VT0(36):26"/>
				<v:ud v:nameU="msvThemeEffects" v:val="VT0(16):26"/>
			</v:userDefs>
			<v:textBlock v:margins="rect(2,2,2,2)"/>
			<v:textRect cx="60.75" cy="330.25" width="121.5" height="12"/>
			<rect x="0" y="324.25" width="121.5" height="12" class="st14"/>
			<text x="2" y="333.25" class="st18" v:langID="1033"><v:paragraph/><v:tabList/>Logical to physical mapping</text>		</g>
		<g id="group21-71" transform="translate(68.3269,-239.965)" v:mID="21" v:groupContext="group">
			<v:userDefs>
				<v:ud v:nameU="msvThemeColors" v:val="VT0(36):26"/>
				<v:ud v:nameU="msvThemeEffects" v:val="VT0(16):26"/>
			</v:userDefs>
			<title>Sheet.21</title>
		</g>
		<g id="group22-72" transform="translate(240.643,-129.53)" v:mID="22" v:groupContext="group">
			<v:userDefs>
				<v:ud v:nameU="msvThemeColors" v:val="VT0(36):26"/>
				<v:ud v:nameU="msvThemeEffects" v:val="VT0(16):26"/>
			</v:userDefs>
			<title>Sheet.22</title>
		</g>
		<g id="shape23-73" v:mID="23" v:groupContext="shape" transform="translate(79.5769,-170.094)">
			<title>Sheet.23</title>
			<desc>P2P</desc>
			<v:userDefs>
				<v:ud v:nameU="msvThemeColors" v:val="VT0(36):26"/>
				<v:ud v:nameU="msvThemeEffects" v:val="VT0(16):26"/>
			</v:userDefs>
			<v:textBlock v:margins="rect(2,2,2,2)"/>
			<v:textRect cx="13.0201" cy="323.875" width="26.05" height="24.75"/>
			<path d="M0 315.63 C0 313.35 0.82 311.5 1.83 311.5 L24.22 311.5 C25.22 311.5 26.04 313.35 26.04 315.63 L26.04 332.13        C26.04 334.41 25.22 336.25 24.22 336.25 L1.83 336.25 C0.82 336.25 0 334.41 0 332.13 L0 315.63 Z" class="st5"/>
			<text x="6.86" y="326.27" class="st6" v:langID="1033"><v:paragraph v:horizAlign="1"/><v:tabList/>P2P</text>		</g>
		<g id="shape24-77" v:mID="24" v:groupContext="shape" transform="translate(429.327,131.682) rotate(90)">
			<title>Sheet.24</title>
			<v:userDefs>
				<v:ud v:nameU="msvThemeColors" v:val="VT0(36):26"/>
				<v:ud v:nameU="msvThemeEffects" v:val="VT0(16):26"/>
			</v:userDefs>
			<path d="M0 336.25 L9.72 336.25" class="st4"/>
		</g>
		<g id="shape25-81" v:mID="25" v:groupContext="shape" transform="translate(458.577,131.682) rotate(90)">
			<title>Sheet.25</title>
			<v:userDefs>
				<v:ud v:nameU="msvThemeColors" v:val="VT0(36):26"/>
				<v:ud v:nameU="msvThemeEffects" v:val="VT0(16):26"/>
			</v:userDefs>
			<path d="M0 336.25 L9.72 336.25" class="st4"/>
		</g>
		<g id="shape26-85" v:mID="26" v:groupContext="shape" transform="translate(643.14,121.779) rotate(90)">
			<title>Sheet.26</title>
			<v:userDefs>
				<v:ud v:nameU="msvThemeColors" v:val="VT0(36):26"/>
				<v:ud v:nameU="msvThemeEffects" v:val="VT0(16):26"/>
			</v:userDefs>
			<path d="M0 336.25 L9.9 336.25" class="st4"/>
		</g>
		<g id="shape27-89" v:mID="27" v:groupContext="shape" transform="translate(232.012,-194.844)">
			<title>Sheet.27</title>
			<v:userDefs>
				<v:ud v:nameU="msvThemeColors" v:val="VT0(36):26"/>
				<v:ud v:nameU="msvThemeEffects" v:val="VT0(16):26"/>
			</v:userDefs>
			<path d="M0 326.53 L118.69 326.53 L118.69 336.25" class="st4"/>
		</g>
		<g id="shape28-93" v:mID="28" v:groupContext="shape" transform="translate(293.719,-214.471)">
			<title>Sheet.28</title>
			<desc>P2P</desc>
			<v:userDefs>
				<v:ud v:nameU="msvThemeColors" v:val="VT0(36):26"/>
				<v:ud v:nameU="msvThemeEffects" v:val="VT0(16):26"/>
			</v:userDefs>
			<v:textBlock v:margins="rect(2,2,2,2)"/>
			<v:textRect cx="13.0201" cy="323.875" width="26.05" height="24.75"/>
			<path d="M0 315.63 C0 313.35 0.82 311.5 1.83 311.5 L24.22 311.5 C25.22 311.5 26.04 313.35 26.04 315.63 L26.04 332.13        C26.04 334.41 25.22 336.25 24.22 336.25 L1.83 336.25 C0.82 336.25 0 334.41 0 332.13 L0 315.63 Z" class="st19"/>
			<text x="6.86" y="326.27" class="st6" v:langID="1033"><v:paragraph v:horizAlign="1"/><v:tabList/>P2P</text>		</g>
		<g id="shape29-97" v:mID="29" v:groupContext="shape" transform="translate(214.176,-163.344)">
			<title>Sheet.29</title>
			<v:userDefs>
				<v:ud v:nameU="msvThemeColors" v:val="VT0(36):26"/>
				<v:ud v:nameU="msvThemeEffects" v:val="VT0(16):26"/>
			</v:userDefs>
			<path d="M0 336.25 L159.03 336.25 L159.03 251.5 L0 251.5 L0 336.25 Z" class="st7"/>
		</g>
		<g id="shape30-99" v:mID="30" v:groupContext="shape" transform="translate(331.577,-238.344)">
			<title>Sheet.30</title>
			<desc>Partition 2</desc>
			<v:userDefs>
				<v:ud v:nameU="msvThemeColors" v:val="VT0(36):26"/>
				<v:ud v:nameU="msvThemeEffects" v:val="VT0(16):26"/>
			</v:userDefs>
			<v:textBlock v:margins="rect(2,2,2,2)"/>
			<v:textRect cx="20.25" cy="330.25" width="40.5" height="12"/>
			<rect x="0" y="324.25" width="40.5" height="12" class="st14"/>
			<text x="3.21" y="332.65" class="st6" v:langID="1033"><v:paragraph v:horizAlign="1"/><v:tabList/>Partition 2</text>		</g>
		<g id="shape31-102" v:mID="31" v:groupContext="shape" transform="translate(628.452,131.682) rotate(90)">
			<title>Sheet.31</title>
			<v:userDefs>
				<v:ud v:nameU="msvThemeColors" v:val="VT0(36):26"/>
				<v:ud v:nameU="msvThemeEffects" v:val="VT0(16):26"/>
			</v:userDefs>
			<path d="M0 336.25 L9.72 336.25" class="st4"/>
		</g>
		<g id="shape32-106" v:mID="32" v:groupContext="shape" transform="translate(657.702,131.622) rotate(90)">
			<title>Sheet.32</title>
			<v:userDefs>
				<v:ud v:nameU="msvThemeColors" v:val="VT0(36):26"/>
				<v:ud v:nameU="msvThemeEffects" v:val="VT0(16):26"/>
			</v:userDefs>
			<path d="M0 336.25 L9.45 336.25" class="st4"/>
		</g>
		<g id="group33-110" transform="translate(264.077,-239.965)" v:mID="33" v:groupContext="group">
			<v:userDefs>
				<v:ud v:nameU="msvThemeColors" v:val="VT0(36):26"/>
				<v:ud v:nameU="msvThemeEffects" v:val="VT0(16):26"/>
			</v:userDefs>
			<title>Sheet.33</title>
			<g id="shape34-111" v:mID="34" v:groupContext="shape" transform="translate(379.356,289.232) rotate(90)">
				<title>Sheet.34</title>
				<v:userDefs>
					<v:ud v:nameU="msvThemeColors" v:val="VT0(36):26"/>
					<v:ud v:nameU="msvThemeEffects" v:val="VT0(16):26"/>
				</v:userDefs>
				<path d="M0 336.25 L47.02 336.25" class="st8"/>
			</g>
			<g id="shape35-115" v:mID="35" v:groupContext="shape" transform="translate(1.59872E-014,-47.4882)">
				<title>Sheet.35</title>
				<desc>Host</desc>
				<v:userDefs>
					<v:ud v:nameU="msvThemeColors" v:val="VT0(36):26"/>
					<v:ud v:nameU="msvThemeEffects" v:val="VT0(16):26"/>
				</v:userDefs>
				<v:textBlock v:margins="rect(2,2,2,2)"/>
				<v:textRect cx="42.8339" cy="321.805" width="85.67" height="28.8906"/>
				<path d="M0 312.18 C0 309.52 2.7 307.36 6.01 307.36 L79.66 307.36 C82.98 307.36 85.67 309.52 85.67 312.18 L85.67         331.44 C85.67 334.1 82.98 336.25 79.66 336.25 L6.01 336.25 C2.7 336.25 -0 334.1 0 331.44 L0 312.18 Z" class="st20"/>
				<text x="20.32" y="329" class="st10" v:langID="1033"><v:paragraph v:horizAlign="1"/><v:tabList/>Host</text>			</g>
		</g>
		<g id="shape36-119" v:mID="36" v:groupContext="shape" transform="translate(216.765,-129.53)">
			<title>Sheet.36</title>
			<desc>Unbound</desc>
			<v:userDefs>
				<v:ud v:nameU="msvThemeColors" v:val="VT0(36):26"/>
				<v:ud v:nameU="msvThemeEffects" v:val="VT0(16):26"/>
			</v:userDefs>
			<v:textBlock v:margins="rect(2,2,2,2)"/>
			<v:textRect cx="31.0331" cy="329.85" width="62.07" height="12.7997"/>
			<rect x="0" y="323.45" width="62.0663" height="12.7997" class="st21"/>
			<text x="15.85" y="332.25" class="st6" v:langID="1033"><v:paragraph v:horizAlign="1"/><v:tabList/>Unbound</text>		</g>
		<g id="shape37-122" v:mID="37" v:groupContext="shape" transform="translate(338.162,-170.094)">
			<title>Sheet.37</title>
			<desc>P2P</desc>
			<v:userDefs>
				<v:ud v:nameU="msvThemeColors" v:val="VT0(36):26"/>
				<v:ud v:nameU="msvThemeEffects" v:val="VT0(16):26"/>
			</v:userDefs>
			<v:textBlock v:margins="rect(2,2,2,2)"/>
			<v:textRect cx="13.0201" cy="323.875" width="26.05" height="24.75"/>
			<path d="M0 315.63 C0 313.35 0.82 311.5 1.83 311.5 L24.22 311.5 C25.22 311.5 26.04 313.35 26.04 315.63 L26.04 332.13        C26.04 334.41 25.22 336.25 24.22 336.25 L1.83 336.25 C0.82 336.25 0 334.41 0 332.13 L0 315.63 Z" class="st19"/>
			<text x="6.86" y="326.27" class="st6" v:langID="1033"><v:paragraph v:horizAlign="1"/><v:tabList/>P2P</text>		</g>
		<g id="shape38-126" v:mID="38" v:groupContext="shape" transform="translate(308.912,-170.094)">
			<title>Sheet.38</title>
			<desc>P2P</desc>
			<v:userDefs>
				<v:ud v:nameU="msvThemeColors" v:val="VT0(36):26"/>
				<v:ud v:nameU="msvThemeEffects" v:val="VT0(16):26"/>
			</v:userDefs>
			<v:textBlock v:margins="rect(2,2,2,2)"/>
			<v:textRect cx="13.0201" cy="323.875" width="26.05" height="24.75"/>
			<path d="M0 315.63 C0 313.35 0.82 311.5 1.83 311.5 L24.22 311.5 C25.22 311.5 26.04 313.35 26.04 315.63 L26.04 332.13        C26.04 334.41 25.22 336.25 24.22 336.25 L1.83 336.25 C0.82 336.25 0 334.41 0 332.13 L0 315.63 Z" class="st19"/>
			<text x="6.86" y="326.27" class="st6" v:langID="1033"><v:paragraph v:horizAlign="1"/><v:tabList/>P2P</text>		</g>
		<g id="shape39-130" v:mID="39" v:groupContext="shape" transform="translate(279.182,-170.094)">
			<title>Sheet.39</title>
			<desc>P2P</desc>
			<v:userDefs>
				<v:ud v:nameU="msvThemeColors" v:val="VT0(36):26"/>
				<v:ud v:nameU="msvThemeEffects" v:val="VT0(16):26"/>
			</v:userDefs>
			<v:textBlock v:margins="rect(2,2,2,2)"/>
			<v:textRect cx="13.0201" cy="323.875" width="26.05" height="24.75"/>
			<path d="M0 315.63 C0 313.35 0.82 311.5 1.83 311.5 L24.22 311.5 C25.22 311.5 26.04 313.35 26.04 315.63 L26.04 332.13        C26.04 334.41 25.22 336.25 24.22 336.25 L1.83 336.25 C0.82 336.25 0 334.41 0 332.13 L0 315.63 Z" class="st19"/>
			<text x="6.86" y="326.27" class="st6" v:langID="1033"><v:paragraph v:horizAlign="1"/><v:tabList/>P2P</text>		</g>
		<g id="shape40-134" v:mID="40" v:groupContext="shape" transform="translate(110.567,-170.094)">
			<title>Sheet.40</title>
			<desc>P2P</desc>
			<v:userDefs>
				<v:ud v:nameU="msvThemeColors" v:val="VT0(36):26"/>
				<v:ud v:nameU="msvThemeEffects" v:val="VT0(16):26"/>
			</v:userDefs>
			<v:textBlock v:margins="rect(2,2,2,2)"/>
			<v:textRect cx="13.0201" cy="323.875" width="26.05" height="24.75"/>
			<path d="M0 315.63 C0 313.35 0.82 311.5 1.83 311.5 L24.22 311.5 C25.22 311.5 26.04 313.35 26.04 315.63 L26.04 332.13        C26.04 334.41 25.22 336.25 24.22 336.25 L1.83 336.25 C0.82 336.25 0 334.41 0 332.13 L0 315.63 Z" class="st22"/>
			<text x="6.86" y="326.27" class="st6" v:langID="1033"><v:paragraph v:horizAlign="1"/><v:tabList/>P2P</text>		</g>
		<g id="shape41-138" v:mID="41" v:groupContext="shape" transform="translate(688.077,166.156) rotate(90)">
			<title>Sheet.41</title>
			<v:userDefs>
				<v:ud v:nameU="msvThemeColors" v:val="VT0(36):26"/>
				<v:ud v:nameU="msvThemeEffects" v:val="VT0(16):26"/>
			</v:userDefs>
			<path d="M11.7 336.25 L12.06 336.25 L84.7 336.25" class="st23"/>
		</g>
		<g id="shape42-148" v:mID="42" v:groupContext="shape" transform="translate(108.827,-129.562)">
			<title>Sheet.42</title>
			<desc>Unbound</desc>
			<v:userDefs>
				<v:ud v:nameU="msvThemeColors" v:val="VT0(36):26"/>
				<v:ud v:nameU="msvThemeEffects" v:val="VT0(16):26"/>
			</v:userDefs>
			<v:textBlock v:margins="rect(2,2,2,2)"/>
			<v:textRect cx="45.9864" cy="329.85" width="91.98" height="12.7997"/>
			<rect x="0" y="323.45" width="91.9727" height="12.7997" class="st21"/>
			<text x="30.8" y="332.25" class="st6" v:langID="1033"><v:paragraph v:horizAlign="1"/><v:tabList/>Unbound</text>		</g>
		<g id="shape43-151" v:mID="43" v:groupContext="shape" transform="translate(460.827,166.888) rotate(90)">
			<title>Sheet.43</title>
			<v:userDefs>
				<v:ud v:nameU="msvThemeColors" v:val="VT0(36):26"/>
				<v:ud v:nameU="msvThemeEffects" v:val="VT0(16):26"/>
			</v:userDefs>
			<path d="M6.67 336.25 L7.03 336.25 L19.97 336.25" class="st25"/>
		</g>
		<g id="group44-161" transform="translate(413.516,262.906) rotate(90)" v:mID="44" v:groupContext="group">
			<v:userDefs>
				<v:ud v:nameU="msvThemeColors" v:val="VT0(36):26"/>
				<v:ud v:nameU="msvThemeEffects" v:val="VT0(16):26"/>
			</v:userDefs>
			<title>Sheet.44</title>
			<desc>PCIe SSD</desc>
			<g id="shape45-162" v:mID="45" v:groupContext="shape" transform="translate(0.0107429,0)">
				<title>Sheet.45</title>
				<v:userDefs>
					<v:ud v:nameU="msvThemeColors" v:val="VT0(36):26"/>
					<v:ud v:nameU="msvThemeEffects" v:val="VT0(16):26"/>
				</v:userDefs>
				<path d="M28.41 336.25 A25.5789 4.73545 -180 0 0 53.99 331.51 L53.99 331.08 L53.99 313.43 L0 313.43 L0 331.51 A28.4211         4.73545 -180 0 0 28.41 336.25 Z" class="st11"/>
			</g>
			<g id="shape46-165" v:mID="46" v:groupContext="shape" transform="translate(0,-18.5113)">
				<title>Sheet.46</title>
				<v:userDefs>
					<v:ud v:nameU="msvThemeColors" v:val="VT0(36):26"/>
					<v:ud v:nameU="msvThemeEffects" v:val="VT0(16):26"/>
				</v:userDefs>
				<ellipse cx="27" cy="331.945" rx="27" ry="4.30495" class="st11"/>
			</g>
			<g id="shape44-168" v:mID="44" v:groupContext="groupContent">
				<v:textBlock v:margins="rect(2,2,2,2)" v:verticalAlign="2"/>
				<v:textRect cx="27" cy="322.689" width="54" height="27.1212"/>
				<text x="8.83" y="331.25" class="st12" v:langID="1033"><v:paragraph v:horizAlign="1"/><v:tabList/>PCIe SSD</text>			</g>
		</g>
		<g id="shape47-170" v:mID="47" v:groupContext="shape" transform="translate(397.827,166.156) rotate(90)">
			<title>Sheet.47</title>
			<v:userDefs>
				<v:ud v:nameU="msvThemeColors" v:val="VT0(36):26"/>
				<v:ud v:nameU="msvThemeEffects" v:val="VT0(16):26"/>
			</v:userDefs>
			<path d="M11.7 336.25 L12.06 336.25 L84.69 336.25" class="st26"/>
		</g>
		<g id="shape48-180" v:mID="48" v:groupContext="shape" transform="translate(427.077,166.156) rotate(90)">
			<title>Sheet.48</title>
			<v:userDefs>
				<v:ud v:nameU="msvThemeColors" v:val="VT0(36):26"/>
				<v:ud v:nameU="msvThemeEffects" v:val="VT0(16):26"/>
			</v:userDefs>
			<path d="M11.7 336.25 L12.06 336.25 L84.7 336.25" class="st26"/>
		</g>
		<g id="group49-188" transform="translate(647.516,262.906) rotate(90)" v:mID="49" v:groupContext="group">
			<v:userDefs>
				<v:ud v:nameU="msvThemeColors" v:val="VT0(36):26"/>
				<v:ud v:nameU="msvThemeEffects" v:val="VT0(16):26"/>
			</v:userDefs>
			<title>Sheet.49</title>
			<desc>PCIe SSD</desc>
			<g id="shape50-189" v:mID="50" v:groupContext="shape" transform="translate(0.0107429,0)">
				<title>Sheet.50</title>
				<v:userDefs>
					<v:ud v:nameU="msvThemeColors" v:val="VT0(36):26"/>
					<v:ud v:nameU="msvThemeEffects" v:val="VT0(16):26"/>
				</v:userDefs>
				<path d="M28.41 336.25 A25.5789 4.73545 -180 0 0 53.99 331.51 L53.99 331.08 L53.99 313.43 L0 313.43 L0 331.51 A28.4211         4.73545 -180 0 0 28.41 336.25 Z" class="st13"/>
			</g>
			<g id="shape51-192" v:mID="51" v:groupContext="shape" transform="translate(0,-18.5113)">
				<title>Sheet.51</title>
				<v:userDefs>
					<v:ud v:nameU="msvThemeColors" v:val="VT0(36):26"/>
					<v:ud v:nameU="msvThemeEffects" v:val="VT0(16):26"/>
				</v:userDefs>
				<ellipse cx="27" cy="331.945" rx="27" ry="4.30495" class="st13"/>
			</g>
			<g id="shape49-195" v:mID="49" v:groupContext="groupContent">
				<v:textBlock v:margins="rect(2,2,2,2)" v:verticalAlign="2"/>
				<v:textRect cx="27" cy="322.689" width="54" height="27.1212"/>
				<text x="8.83" y="331.25" class="st12" v:langID="1033"><v:paragraph v:horizAlign="1"/><v:tabList/>PCIe SSD</text>			</g>
		</g>
		<g id="shape52-197" v:mID="52" v:groupContext="shape" transform="translate(661.077,166.156) rotate(90)">
			<title>Sheet.52</title>
			<v:userDefs>
				<v:ud v:nameU="msvThemeColors" v:val="VT0(36):26"/>
				<v:ud v:nameU="msvThemeEffects" v:val="VT0(16):26"/>
			</v:userDefs>
			<path d="M11.7 336.25 L12.06 336.25 L84.7 336.25" class="st23"/>
		</g>
		<g id="shape53-205" v:mID="53" v:groupContext="shape" transform="translate(491.339,132.575) rotate(90)">
			<title>Sheet.53</title>
			<v:userDefs>
				<v:ud v:nameU="msvThemeColors" v:val="VT0(36):26"/>
				<v:ud v:nameU="msvThemeEffects" v:val="VT0(16):26"/>
			</v:userDefs>
			<path d="M0 336.25 L9.72 336.25" class="st4"/>
		</g>
		<g id="shape54-209" v:mID="54" v:groupContext="shape" transform="translate(491.339,166.123) rotate(90)">
			<title>Sheet.54</title>
			<v:userDefs>
				<v:ud v:nameU="msvThemeColors" v:val="VT0(36):26"/>
				<v:ud v:nameU="msvThemeEffects" v:val="VT0(16):26"/>
			</v:userDefs>
			<path d="M6.67 336.25 L7.03 336.25 L19.97 336.25" class="st25"/>
		</g>
		<g id="shape55-217" v:mID="55" v:groupContext="shape" transform="translate(142.799,-170.127)">
			<title>Sheet.55</title>
			<desc>P2P</desc>
			<v:userDefs>
				<v:ud v:nameU="msvThemeColors" v:val="VT0(36):26"/>
				<v:ud v:nameU="msvThemeEffects" v:val="VT0(16):26"/>
			</v:userDefs>
			<v:textBlock v:margins="rect(2,2,2,2)"/>
			<v:textRect cx="13.0201" cy="323.875" width="26.05" height="24.75"/>
			<path d="M0 315.63 C0 313.35 0.82 311.5 1.83 311.5 L24.22 311.5 C25.22 311.5 26.04 313.35 26.04 315.63 L26.04 332.13        C26.04 334.41 25.22 336.25 24.22 336.25 L1.83 336.25 C0.82 336.25 0 334.41 0 332.13 L0 315.63 Z" class="st22"/>
			<text x="6.86" y="326.27" class="st6" v:langID="1033"><v:paragraph v:horizAlign="1"/><v:tabList/>P2P</text>		</g>
		<g id="shape56-221" v:mID="56" v:groupContext="shape" transform="translate(598.543,131.682) rotate(90)">
			<title>Sheet.56</title>
			<v:userDefs>
				<v:ud v:nameU="msvThemeColors" v:val="VT0(36):26"/>
				<v:ud v:nameU="msvThemeEffects" v:val="VT0(16):26"/>
			</v:userDefs>
			<path d="M0 336.25 L9.72 336.25" class="st4"/>
		</g>
		<g id="shape57-225" v:mID="57" v:groupContext="shape" transform="translate(598.801,166.754) rotate(90)">
			<title>Sheet.57</title>
			<v:userDefs>
				<v:ud v:nameU="msvThemeColors" v:val="VT0(36):26"/>
				<v:ud v:nameU="msvThemeEffects" v:val="VT0(16):26"/>
			</v:userDefs>
			<path d="M6.67 336.25 L7.03 336.25 L19.97 336.25" class="st25"/>
		</g>
		<g id="group58-233" transform="translate(616.05,262.543) rotate(90)" v:mID="58" v:groupContext="group">
			<v:userDefs>
				<v:ud v:nameU="msvThemeColors" v:val="VT0(36):26"/>
				<v:ud v:nameU="msvThemeEffects" v:val="VT0(16):26"/>
			</v:userDefs>
			<title>Sheet.58</title>
			<desc>PCIe SSD</desc>
			<g id="shape59-234" v:mID="59" v:groupContext="shape" transform="translate(0.0107429,0)">
				<title>Sheet.59</title>
				<v:userDefs>
					<v:ud v:nameU="msvThemeColors" v:val="VT0(36):26"/>
					<v:ud v:nameU="msvThemeEffects" v:val="VT0(16):26"/>
				</v:userDefs>
				<path d="M28.41 336.25 A25.5789 4.73545 -180 0 0 53.99 331.51 L53.99 331.08 L53.99 313.43 L0 313.43 L0 331.51 A28.4211         4.73545 -180 0 0 28.41 336.25 Z" class="st13"/>
			</g>
			<g id="shape60-237" v:mID="60" v:groupContext="shape" transform="translate(0,-18.5113)">
				<title>Sheet.60</title>
				<v:userDefs>
					<v:ud v:nameU="msvThemeColors" v:val="VT0(36):26"/>
					<v:ud v:nameU="msvThemeEffects" v:val="VT0(16):26"/>
				</v:userDefs>
				<ellipse cx="27" cy="331.945" rx="27" ry="4.30495" class="st13"/>
			</g>
			<g id="shape58-240" v:mID="58" v:groupContext="groupContent">
				<v:textBlock v:margins="rect(2,2,2,2)" v:verticalAlign="2"/>
				<v:textRect cx="27" cy="322.689" width="54" height="27.1212"/>
				<text x="8.83" y="331.25" class="st12" v:langID="1033"><v:paragraph v:horizAlign="1"/><v:tabList/>PCIe SSD</text>			</g>
		</g>
		<g id="shape61-242" v:mID="61" v:groupContext="shape" transform="translate(629.611,165.793) rotate(90)">
			<title>Sheet.61</title>
			<v:userDefs>
				<v:ud v:nameU="msvThemeColors" v:val="VT0(36):26"/>
				<v:ud v:nameU="msvThemeEffects" v:val="VT0(16):26"/>
			</v:userDefs>
			<path d="M11.7 336.25 L12.06 336.25 L84.7 336.25" class="st23"/>
		</g>
		<g id="shape62-250" v:mID="62" v:groupContext="shape" transform="translate(249.53,-169.964)">
			<title>Sheet.62</title>
			<desc>P2P</desc>
			<v:userDefs>
				<v:ud v:nameU="msvThemeColors" v:val="VT0(36):26"/>
				<v:ud v:nameU="msvThemeEffects" v:val="VT0(16):26"/>
			</v:userDefs>
			<v:textBlock v:margins="rect(2,2,2,2)"/>
			<v:textRect cx="13.0201" cy="323.875" width="26.05" height="24.75"/>
			<path d="M0 315.63 C0 313.35 0.82 311.5 1.83 311.5 L24.22 311.5 C25.22 311.5 26.04 313.35 26.04 315.63 L26.04 332.13        C26.04 334.41 25.22 336.25 24.22 336.25 L1.83 336.25 C0.82 336.25 0 334.41 0 332.13 L0 315.63 Z" class="st28"/>
			<text x="6.86" y="326.27" class="st6" v:langID="1033"><v:paragraph v:horizAlign="1"/><v:tabList/>P2P</text>		</g>
		<g id="shape63-254" v:mID="63" v:groupContext="shape" transform="translate(523.936,166.056) rotate(90)">
			<title>Sheet.63</title>
			<v:userDefs>
				<v:ud v:nameU="msvThemeColors" v:val="VT0(36):26"/>
				<v:ud v:nameU="msvThemeEffects" v:val="VT0(16):26"/>
			</v:userDefs>
			<path d="M6.67 336.25 L7.03 336.25 L19.97 336.25" class="st25"/>
		</g>
		<g id="shape64-262" v:mID="64" v:groupContext="shape" transform="translate(174.122,-170.194)">
			<title>Sheet.64</title>
			<desc>P2P</desc>
			<v:userDefs>
				<v:ud v:nameU="msvThemeColors" v:val="VT0(36):26"/>
				<v:ud v:nameU="msvThemeEffects" v:val="VT0(16):26"/>
			</v:userDefs>
			<v:textBlock v:margins="rect(2,2,2,2)"/>
			<v:textRect cx="13.0201" cy="323.875" width="26.05" height="24.75"/>
			<path d="M0 315.63 C0 313.35 0.82 311.5 1.83 311.5 L24.22 311.5 C25.22 311.5 26.04 313.35 26.04 315.63 L26.04 332.13        C26.04 334.41 25.22 336.25 24.22 336.25 L1.83 336.25 C0.82 336.25 0 334.41 0 332.13 L0 315.63 Z" class="st22"/>
			<text x="6.86" y="326.27" class="st6" v:langID="1033"><v:paragraph v:horizAlign="1"/><v:tabList/>P2P</text>		</g>
		<g id="shape65-266" v:mID="65" v:groupContext="shape" transform="translate(568.619,167.219) rotate(90)">
			<title>Sheet.65</title>
			<v:userDefs>
				<v:ud v:nameU="msvThemeColors" v:val="VT0(36):26"/>
				<v:ud v:nameU="msvThemeEffects" v:val="VT0(16):26"/>
			</v:userDefs>
			<path d="M6.67 336.25 L7.03 336.25 L19.97 336.25" class="st25"/>
		</g>
		<g id="shape66-274" v:mID="66" v:groupContext="shape" transform="translate(568.262,131.682) rotate(90)">
			<title>Sheet.66</title>
			<v:userDefs>
				<v:ud v:nameU="msvThemeColors" v:val="VT0(36):26"/>
				<v:ud v:nameU="msvThemeEffects" v:val="VT0(16):26"/>
			</v:userDefs>
			<path d="M0 336.25 L9.72 336.25" class="st4"/>
		</g>
		<g id="shape67-278" v:mID="67" v:groupContext="shape" transform="translate(219.349,-169.92)">
			<title>Sheet.67</title>
			<desc>P2P</desc>
			<v:userDefs>
				<v:ud v:nameU="msvThemeColors" v:val="VT0(36):26"/>
				<v:ud v:nameU="msvThemeEffects" v:val="VT0(16):26"/>
			</v:userDefs>
			<v:textBlock v:margins="rect(2,2,2,2)"/>
			<v:textRect cx="13.0201" cy="323.875" width="26.05" height="24.75"/>
			<path d="M0 315.63 C0 313.35 0.82 311.5 1.83 311.5 L24.22 311.5 C25.22 311.5 26.04 313.35 26.04 315.63 L26.04 332.13        C26.04 334.41 25.22 336.25 24.22 336.25 L1.83 336.25 C0.82 336.25 0 334.41 0 332.13 L0 315.63 Z" class="st28"/>
			<text x="6.86" y="326.27" class="st6" v:langID="1033"><v:paragraph v:horizAlign="1"/><v:tabList/>P2P</text>		</g>
	</g>
</svg>