<?xml version="1.0" encoding="UTF-8"?><!DOCTYPE svg PUBLIC "-//W3C//DTD SVG 1.0//EN" "/SysSchema/svg10.dtd">
<!-- Generated by Microsoft Visio 11.0, SVG Export, v1.0 IBM_logo_xi36600.svg Page-1 --><svg xmlns="http://www.w3.org/2000/svg" xmlns:xlink="http://www.w3.org/1999/xlink" xmlns:v="http://schemas.microsoft.com/visio/2003/SVGExtensions/" width="2.86063in" height="1.2955in" viewBox="0 0 205.965 93.2762" xml:space="preserve" color-interpolation-filters="sRGB" class="st2" preserveAspectRatio="xMidYMid meet" zoomAndPan="magnify" version="1.0" contentScriptType="text/ecmascript" contentStyleType="text/css">
	<v:documentProperties v:langID="1033" v:viewMarkup="false"/>

	<style type="text/css" xml:space="preserve">
	<![CDATA[
		.st1 {fill:#171412;stroke:none;stroke-linecap:butt;stroke-width:14.4}
		.st2 {fill:none;fill-rule:evenodd;font-size:12;overflow:visible;stroke-linecap:square;stroke-miterlimit:3}
	]]>
	</style>

	<g v:mID="0" v:index="1" v:groupContext="foregroundPage">
		<v:userDefs>
			<v:ud v:nameU="SchemeName" v:val="VT4(Default)"/>
		</v:userDefs>
		<title content="structured text">Page-1</title>
		<v:pageProperties v:drawingScale="0.0393701" v:pageScale="0.0393701" v:drawingUnits="24" v:shadowOffsetX="1.8" v:shadowOffsetY="-1.8"/>
		<v:layer v:name="Connector" v:index="0"/>
		<g id="shape1-1" v:mID="1" v:groupContext="shape" transform="translate(1.41732,-19.6716)">
			<title content="structured text">_128733648</title>
			<path d="M35.3 93.28 L35.3 88.4 L0 88.4 L0 93.28 L35.3 93.28 Z M171.72 69.15 L171.72 73.9 L156.51 73.9 L156.51 69.15        L171.72 69.15 Z M156.51 59.4 L171.72 59.4 L171.72 64.27 L156.51 64.27 L156.51 59.4 Z M35.3 35.32 L35.3 30.42        L0 30.42 L0 35.32 L35.3 35.32 Z M35.3 20.82 L0 20.82 L0 25.7 L35.3 25.7 L35.3 20.82 Z M35.3 83.65 L0 83.65        L0 78.56 L35.3 78.56 L35.3 83.65 Z M10.15 40.2 L25.15 40.2 L25.15 44.92 L10.15 44.92 L10.15 40.2 Z M10.15        49.77 L25.15 49.77 L25.15 54.49 L10.15 54.49 L10.15 49.77 Z M10.15 59.4 L25.15 59.4 L25.15 64.27 L10.15        64.27 L10.15 59.4 Z M10.15 69.15 L25.15 69.15 L25.15 73.9 L10.15 73.9 L10.15 69.15 Z M50.52 44.92 L65.39        44.92 L65.39 40.2 L50.52 40.2 L50.52 44.92 Z M50.52 69.15 L65.39 69.15 L65.39 73.9 L50.52 73.9 L50.52 69.15        Z M50.52 49.77 L50.52 54.49 L89.09 54.49 C90.91 53.41 92.36 51.8 93.65 49.77 L50.52 49.77 Z M50.52 64.27        L50.52 59.4 L89.3 59.4 C90.91 60.66 92.36 62.3 93.65 64.27 L50.52 64.27 Z M40.21 83.47 L40.21 78.77 L95.97        78.77 C95.63 80.22 95.47 81.86 94.36 83.47 L40.21 83.47 Z M40.21 30.42 L40.21 35.32 L95.97 35.32 C95.63        33.87 95.47 32.24 94.36 30.42 L40.21 30.42 Z M40.21 93.28 L40.21 88.19 L90.75 88.19 C87.3 91.3 82.42 93.28        75.17 93.28 L40.21 93.28 Z M40.21 20.82 L40.21 25.91 L90.75 25.91 C87.3 22.8 82.42 20.82 75.17 20.82 L40.21        20.82 Z M100.69 88.4 L126.06 88.4 L126.06 93.28 L100.69 93.28 L100.69 88.4 Z M100.69 78.56 L126.06 78.56        L126.06 83.65 L100.69 83.65 L100.69 78.56 Z M111.05 69.15 L126.06 69.15 L126.06 73.9 L111.05 73.9 L111.05        69.15 Z M111.05 59.4 L126.06 59.4 L126.06 64.27 L111.05 64.27 L111.05 59.4 Z M111.05 49.77 L111.05 54.49        L126.06 54.49 L126.06 50.35 L127.51 54.49 L155.06 54.49 L156.51 50.35 L156.51 54.49 L171.72 54.49 L171.72        49.77 L142.54 49.77 L141.27 53.59 L139.98 49.77 L111.05 49.77 Z M156.51 78.56 L181.29 78.56 L181.29 83.47        L156.51 83.47 L156.51 78.56 Z M156.51 88.4 L181.29 88.4 L181.29 93.28 L156.51 93.28 L156.51 88.4 Z M139.11        88.4 L143.25 88.4 L141.64 93.28 L140.93 93.28 L139.11 88.4 Z M146.7 78.56 L144.91 83.65 L137.5 83.65 L135.84        78.56 L146.7 78.56 Z M149.97 69.15 L132.6 69.15 L134.02 73.9 L148.34 73.9 L149.97 69.15 Z M151.58 64.27        L130.96 64.27 L129.12 59.4 L153.24 59.4 L151.58 64.27 Z M144.17 44.92 L145.78 40.2 L171.72 40.2 L171.72        44.92 L144.17 44.92 Z M147.44 35.32 L149.05 30.42 L181.29 30.42 L181.29 35.32 L147.44 35.32 Z M150.71 25.91        L181.29 25.91 L181.29 20.82 L152.32 20.82 L150.71 25.91 Z M138.19 44.92 L136.58 40.2 L111.05 40.2 L111.05        44.92 L138.19 44.92 Z M134.97 35.32 L133.31 30.42 L100.69 30.42 L100.69 35.32 L134.97 35.32 Z M131.65 25.91        L100.69 25.91 L100.69 20.82 L129.88 20.82 L131.65 25.91 Z M80.6 40.2 L80.6 44.92 L95.81 44.92 C96.34 43.26        96.34 42.02 96.55 40.2 L80.6 40.2 Z M80.6 73.9 L80.6 69.15 L95.97 69.15 C96.55 70.79 96.55 72.08 96.71 73.9        L80.6 73.9 Z" class="st1"/>
		</g>
		<g id="shape2-3" v:mID="2" v:groupContext="shape" transform="translate(187.087,-19.7691)">
			<title content="structured text">_128193512</title>
			<path d="M6.87 93.28 C10.57 93.28 13.76 90.39 13.76 86.55 C13.76 82.71 10.57 79.82 6.87 79.82 C3.19 79.82 0 82.71 0 86.55        C0 90.39 3.19 93.28 6.87 93.28 Z M1.47 86.55 C1.47 83.36 3.84 80.96 6.87 80.96 C9.91 80.96 12.29 83.36 12.29        86.55 C12.29 89.74 9.91 92.14 6.87 92.14 C3.84 92.14 1.47 89.74 1.47 86.55 Z M5.45 87.02 L6.87 87.02 L8.77        90.39 L10.24 90.39 L8.01 87.02 C9.1 86.88 9.91 86.22 9.91 84.78 C9.91 83.36 9.1 82.71 7.22 82.71 L4.31 82.71        L4.31 90.39 L5.45 90.39 L5.45 87.02 Z M5.45 86.06 L5.45 83.66 L7.03 83.66 C7.82 83.66 8.77 83.8 8.77 84.78        C8.77 85.9 7.82 86.06 6.87 86.06 L5.45 86.06 Z" class="st1"/>
		</g>
	</g>
</svg>