<?xml version="1.0" encoding="UTF-8" standalone="no"?>
<!-- Created with Inkscape (http://www.inkscape.org/) -->

<svg
   xmlns:dc="http://purl.org/dc/elements/1.1/"
   xmlns:cc="http://creativecommons.org/ns#"
   xmlns:rdf="http://www.w3.org/1999/02/22-rdf-syntax-ns#"
   xmlns:svg="http://www.w3.org/2000/svg"
   xmlns="http://www.w3.org/2000/svg"
   xmlns:sodipodi="http://sodipodi.sourceforge.net/DTD/sodipodi-0.dtd"
   xmlns:inkscape="http://www.inkscape.org/namespaces/inkscape"
   id="svg2"
   version="1.1"
   inkscape:version="0.48.4 r9939"
   width="61.950001"
   height="28.275"
   xml:space="preserve"
   sodipodi:docname="Atmel-42181-SAM-D21_Datasheet.pdf"><metadata
     id="metadata8"><rdf:RDF><cc:Work
         rdf:about=""><dc:format>image/svg+xml</dc:format><dc:type
           rdf:resource="http://purl.org/dc/dcmitype/StillImage" /><dc:title></dc:title></cc:Work></rdf:RDF></metadata><defs
     id="defs6"><clipPath
       clipPathUnits="userSpaceOnUse"
       id="clipPath18"><path
         d="m 0,762.9 612,0 0,0.53998 -612,0 L 0,762.9 z"
         id="path20"
         inkscape:connector-curvature="0" /></clipPath><clipPath
       clipPathUnits="userSpaceOnUse"
       id="clipPath28"><path
         d="m 611.76,757.86 0.23999,0 0,5.34 -0.23999,0 0,-5.34 z"
         id="path30"
         inkscape:connector-curvature="0" /></clipPath><clipPath
       clipPathUnits="userSpaceOnUse"
       id="clipPath38"><path
         d="m 0,757.86 612,0 0,0.54004 -612,0 0,-0.54004 z"
         id="path40"
         inkscape:connector-curvature="0" /></clipPath><clipPath
       clipPathUnits="userSpaceOnUse"
       id="clipPath48"><path
         d="m 0,758.1 0.29999,0 0,5.34 -0.29999,0 0,-5.34 z"
         id="path50"
         inkscape:connector-curvature="0" /></clipPath><clipPath
       clipPathUnits="userSpaceOnUse"
       id="clipPath60"><path
         d="m 0,791.7 612,0 0,0.29999 -612,0 L 0,791.7 z"
         id="path62"
         inkscape:connector-curvature="0" /></clipPath><clipPath
       clipPathUnits="userSpaceOnUse"
       id="clipPath70"><path
         d="m 611.76,762.9 0.23999,0 0,29.1 -0.23999,0 0,-29.1 z"
         id="path72"
         inkscape:connector-curvature="0" /></clipPath><clipPath
       clipPathUnits="userSpaceOnUse"
       id="clipPath80"><path
         d="m 0,762.9 612,0 0,0.53998 -612,0 L 0,762.9 z"
         id="path82"
         inkscape:connector-curvature="0" /></clipPath><clipPath
       clipPathUnits="userSpaceOnUse"
       id="clipPath90"><path
         d="m 0,763.14 0.29999,0 0,28.86 L 0,792 0,763.14 z"
         id="path92"
         inkscape:connector-curvature="0" /></clipPath><clipPath
       clipPathUnits="userSpaceOnUse"
       id="clipPath100"><path
         d="m 47.64,261.36 268.14,0 0,-25.32 -268.14,0 0,25.32 z"
         clip-rule="evenodd"
         id="path102"
         inkscape:connector-curvature="0" /></clipPath><clipPath
       clipPathUnits="userSpaceOnUse"
       id="clipPath106"><path
         d="m 0,792.03 612,0 0,-792 -612,0 0,792 z"
         id="path108"
         inkscape:connector-curvature="0" /></clipPath><clipPath
       clipPathUnits="userSpaceOnUse"
       id="clipPath118"><path
         d="m 47.64,261.36 263.58,0 0,-24.18 -263.58,0 0,24.18 z"
         clip-rule="evenodd"
         id="path120"
         inkscape:connector-curvature="0" /></clipPath><clipPath
       clipPathUnits="userSpaceOnUse"
       id="clipPath124"><path
         d="m 47.64,261.36 268.14,0 0,-25.32 -268.14,0 0,25.32 z"
         clip-rule="evenodd"
         id="path126"
         inkscape:connector-curvature="0" /></clipPath><clipPath
       clipPathUnits="userSpaceOnUse"
       id="clipPath130"><path
         d="m 0,792.03 612,0 0,-792 -612,0 0,792 z"
         id="path132"
         inkscape:connector-curvature="0" /></clipPath><clipPath
       clipPathUnits="userSpaceOnUse"
       id="clipPath292"><path
         d="m 442.02,258.72 120.78,0 0,-17.88 -120.78,0 0,17.88 z"
         clip-rule="evenodd"
         id="path294"
         inkscape:connector-curvature="0" /></clipPath><clipPath
       clipPathUnits="userSpaceOnUse"
       id="clipPath298"><path
         d="m 0,792.03 612,0 0,-792 -612,0 0,792 z"
         id="path300"
         inkscape:connector-curvature="0" /></clipPath><linearGradient
       x1="0"
       y1="0"
       x2="1"
       y2="0"
       gradientUnits="userSpaceOnUse"
       gradientTransform="matrix(-1e-6,-16.129,80.662,-4e-6,492.994,257.858)"
       spreadMethod="pad"
       id="linearGradient352"><stop
         style="stop-opacity:1;stop-color:#ffffff"
         offset="0"
         id="stop354" /><stop
         style="stop-opacity:1;stop-color:#dddbd9"
         offset="1"
         id="stop356" /></linearGradient><clipPath
       clipPathUnits="userSpaceOnUse"
       id="clipPath364"><path
         d="m 442.02,258.72 120.78,0 0,-17.88 -120.78,0 0,17.88 z"
         clip-rule="evenodd"
         id="path366"
         inkscape:connector-curvature="0" /></clipPath><clipPath
       clipPathUnits="userSpaceOnUse"
       id="clipPath370"><path
         d="m 0,792.03 612,0 0,-792 -612,0 0,792 z"
         id="path372"
         inkscape:connector-curvature="0" /></clipPath><linearGradient
       x1="0"
       y1="0"
       x2="1"
       y2="0"
       gradientUnits="userSpaceOnUse"
       gradientTransform="matrix(-1e-6,-16.129,71.972,-3e-6,497.078,257.858)"
       spreadMethod="pad"
       id="linearGradient388"><stop
         style="stop-opacity:1;stop-color:#97908f"
         offset="0"
         id="stop390" /><stop
         style="stop-opacity:1;stop-color:#86817f"
         offset="1"
         id="stop392" /></linearGradient><clipPath
       clipPathUnits="userSpaceOnUse"
       id="clipPath400"><path
         d="m 532.06,256.851 -0.797,0 -0.538,-2.067 -0.559,2.067 -0.83,0 c 0.166,-0.489 0.339,-0.979 0.506,-1.467 0.253,-0.734 0.41,-1.288 0.481,-1.667 l 0,-2.13 0.788,0 0,2.13 0.949,3.134 z m 2.106,-3.994 0,1.374 c 0,0.419 -0.072,0.725 -0.221,0.924 -0.196,0.267 -0.473,0.401 -0.828,0.401 -0.355,0 -0.633,-0.134 -0.828,-0.401 -0.152,-0.199 -0.223,-0.505 -0.223,-0.924 l 0,-1.374 c 0,-0.417 0.071,-0.726 0.223,-0.923 0.195,-0.268 0.473,-0.402 0.828,-0.402 0.355,0 0.632,0.134 0.828,0.402 0.149,0.197 0.221,0.506 0.221,0.923 z m -0.711,-0.134 c 0,-0.364 -0.11,-0.545 -0.338,-0.545 -0.23,0 -0.34,0.181 -0.34,0.545 l 0,1.65 c 0,0.363 0.11,0.544 0.34,0.544 0.228,0 0.338,-0.181 0.338,-0.544 l 0,-1.65 z m 3.34,-1.136 0,3.922 -0.711,0 0,-2.997 c -0.157,-0.223 -0.307,-0.334 -0.449,-0.334 -0.096,0 -0.151,0.057 -0.166,0.166 -0.01,0.024 -0.01,0.111 -0.01,0.278 l 0,2.887 -0.707,0 0,-3.101 c 0,-0.277 0.023,-0.465 0.062,-0.583 0.071,-0.2 0.23,-0.293 0.458,-0.293 0.259,0 0.53,0.158 0.812,0.482 l 0,-0.427 0.711,0"
         clip-rule="evenodd"
         id="path402"
         inkscape:connector-curvature="0" /></clipPath><clipPath
       clipPathUnits="userSpaceOnUse"
       id="clipPath406"><path
         d="m 442.02,258.72 120.78,0 0,-17.88 -120.78,0 0,17.88 z"
         clip-rule="evenodd"
         id="path408"
         inkscape:connector-curvature="0" /></clipPath><linearGradient
       x1="0"
       y1="0"
       x2="1"
       y2="0"
       gradientUnits="userSpaceOnUse"
       gradientTransform="matrix(0,5.3196,-28.737,-1e-6,547.434,251.527)"
       spreadMethod="pad"
       id="linearGradient418"><stop
         style="stop-opacity:1;stop-color:#383637"
         offset="0"
         id="stop420" /><stop
         style="stop-opacity:1;stop-color:#211d1d"
         offset="1"
         id="stop422" /></linearGradient><clipPath
       clipPathUnits="userSpaceOnUse"
       id="clipPath430"><path
         d="m 539.098,246.825 c 0,-0.907 -10e-4,-1.869 -0.204,-2.751 -0.142,-0.619 -0.649,-1.074 -1.258,-1.143 -1.445,-0.161 -2.904,-0.162 -4.358,-0.161 -1.456,-0.001 -2.916,0 -4.358,0.161 -0.61,0.069 -1.117,0.524 -1.258,1.143 -0.203,0.882 -0.203,1.844 -0.203,2.751 0,0.908 0.002,1.869 0.205,2.751 0.142,0.62 0.648,1.076 1.258,1.144 1.443,0.161 2.904,0.161 4.358,0.161 1.454,0 2.916,0 4.359,-0.161 0.608,-0.068 1.115,-0.524 1.257,-1.144 0.203,-0.882 0.202,-1.843 0.202,-2.751"
         clip-rule="evenodd"
         id="path432"
         inkscape:connector-curvature="0" /></clipPath><clipPath
       clipPathUnits="userSpaceOnUse"
       id="clipPath436"><path
         d="m 442.02,258.72 120.78,0 0,-17.88 -120.78,0 0,17.88 z"
         clip-rule="evenodd"
         id="path438"
         inkscape:connector-curvature="0" /></clipPath><linearGradient
       x1="0"
       y1="0"
       x2="1"
       y2="0"
       gradientUnits="userSpaceOnUse"
       gradientTransform="matrix(0,8.1108,44.083,-2e-6,511.237,242.768)"
       spreadMethod="pad"
       id="linearGradient448"><stop
         style="stop-opacity:1;stop-color:#691319"
         offset="0"
         id="stop450" /><stop
         style="stop-opacity:1;stop-color:#e9222d"
         offset="1"
         id="stop452" /></linearGradient><clipPath
       clipPathUnits="userSpaceOnUse"
       id="clipPath460"><path
         d="m 530.778,248.783 0,0.734 -2.452,0 0,-0.734 0.828,0 0,-4.475 0.781,0 0,4.475 0.843,0 z m 1.423,-4.475 0,0.423 c -0.28,-0.321 -0.546,-0.477 -0.805,-0.477 -0.225,0 -0.383,0.092 -0.452,0.29 -0.04,0.117 -0.063,0.302 -0.063,0.575 l 0,3.071 0.704,0 0,-2.859 c 0,-0.164 0,-0.251 0.006,-0.272 0.017,-0.11 0.071,-0.165 0.165,-0.165 0.14,0 0.288,0.108 0.445,0.329 l 0,2.967 0.703,0 0,-3.882 -0.703,0 z m 2.672,1.109 c 0,-0.351 -0.105,-0.523 -0.307,-0.523 -0.116,0 -0.233,0.055 -0.349,0.172 l 0,2.367 c 0.116,0.115 0.233,0.171 0.349,0.171 0.202,0 0.307,-0.18 0.307,-0.53 l 0,-1.657 z m 0.703,0.056 0,1.546 c 0,0.367 -0.024,0.624 -0.071,0.78 -0.094,0.29 -0.281,0.438 -0.563,0.438 -0.258,0 -0.5,-0.142 -0.725,-0.421 l 0,1.701 -0.705,0 0,-5.209 0.705,0 0,0.376 c 0.233,-0.29 0.475,-0.43 0.725,-0.43 0.282,0 0.469,0.147 0.563,0.435 0.047,0.165 0.071,0.424 0.071,0.784 z m 1.951,1.234 -0.703,0 0,0.359 c 0,0.358 0.117,0.538 0.352,0.538 0.234,0 0.351,-0.18 0.351,-0.538 l 0,-0.359 z m 0.703,-1.157 0,0.101 -0.717,0 c 0,-0.281 -0.009,-0.437 -0.016,-0.475 -0.04,-0.189 -0.142,-0.282 -0.314,-0.282 -0.242,0 -0.359,0.179 -0.359,0.539 l 0,0.687 1.406,0 0,0.805 c 0,0.415 -0.07,0.718 -0.217,0.914 -0.197,0.266 -0.477,0.398 -0.83,0.398 -0.359,0 -0.639,-0.132 -0.843,-0.398 -0.149,-0.196 -0.217,-0.499 -0.217,-0.914 l 0,-1.36 c 0,-0.413 0.077,-0.719 0.226,-0.913 0.204,-0.265 0.483,-0.398 0.851,-0.398 0.368,0 0.656,0.14 0.851,0.421 0.085,0.125 0.14,0.265 0.164,0.422 0.007,0.07 0.015,0.226 0.015,0.453"
         clip-rule="evenodd"
         id="path462"
         inkscape:connector-curvature="0" /></clipPath><clipPath
       clipPathUnits="userSpaceOnUse"
       id="clipPath466"><path
         d="m 442.02,258.72 120.78,0 0,-17.88 -120.78,0 0,17.88 z"
         clip-rule="evenodd"
         id="path468"
         inkscape:connector-curvature="0" /></clipPath><linearGradient
       x1="0"
       y1="0"
       x2="1"
       y2="0"
       gradientUnits="userSpaceOnUse"
       gradientTransform="matrix(0,5.263,-30.956,-1e-6,548.756,244.252)"
       spreadMethod="pad"
       id="linearGradient478"><stop
         style="stop-opacity:1;stop-color:#d6d6d0"
         offset="0"
         id="stop480" /><stop
         style="stop-opacity:1;stop-color:#ffffff"
         offset="1"
         id="stop482" /></linearGradient><clipPath
       clipPathUnits="userSpaceOnUse"
       id="clipPath490"><path
         d="m 562.804,258.746 -17.929,0 0,-17.929 17.929,0 0,17.929"
         id="path492"
         inkscape:connector-curvature="0" /></clipPath><clipPath
       clipPathUnits="userSpaceOnUse"
       id="clipPath496"><path
         d="m 442.02,258.72 120.78,0 0,-17.88 -120.78,0 0,17.88 z"
         clip-rule="evenodd"
         id="path498"
         inkscape:connector-curvature="0" /></clipPath><clipPath
       clipPathUnits="userSpaceOnUse"
       id="clipPath502"><path
         d="m 0,792.03 612,0 0,-792 -612,0 0,792 z"
         id="path504"
         inkscape:connector-curvature="0" /></clipPath><clipPath
       clipPathUnits="userSpaceOnUse"
       id="clipPath514"><path
         d="m 510.24,299.88 53.1,0 0,-26.52 -53.1,0 0,26.52 z"
         clip-rule="evenodd"
         id="path516"
         inkscape:connector-curvature="0" /></clipPath><clipPath
       clipPathUnits="userSpaceOnUse"
       id="clipPath520"><path
         d="m 0,792.03 612,0 0,-792 -612,0 0,792 z"
         id="path522"
         inkscape:connector-curvature="0" /></clipPath><clipPath
       clipPathUnits="userSpaceOnUse"
       id="clipPath532"><path
         d="m 512.22,297.9 49.56,0 0,-22.62 -49.56,0 0,22.62 z"
         clip-rule="evenodd"
         id="path534"
         inkscape:connector-curvature="0" /></clipPath><clipPath
       clipPathUnits="userSpaceOnUse"
       id="clipPath538"><path
         d="m 510.24,299.88 53.1,0 0,-26.52 -53.1,0 0,26.52 z"
         clip-rule="evenodd"
         id="path540"
         inkscape:connector-curvature="0" /></clipPath><clipPath
       clipPathUnits="userSpaceOnUse"
       id="clipPath544"><path
         d="m 0,792.03 612,0 0,-792 -612,0 0,792 z"
         id="path546"
         inkscape:connector-curvature="0" /></clipPath></defs><sodipodi:namedview
     pagecolor="#ffffff"
     bordercolor="#666666"
     borderopacity="1"
     objecttolerance="10"
     gridtolerance="10"
     guidetolerance="10"
     inkscape:pageopacity="0"
     inkscape:pageshadow="2"
     inkscape:window-width="1600"
     inkscape:window-height="1137"
     id="namedview4"
     showgrid="false"
     fit-margin-top="0"
     fit-margin-left="0"
     fit-margin-right="0"
     fit-margin-bottom="0"
     inkscape:zoom="10.788021"
     inkscape:cx="62.278721"
     inkscape:cy="19.648024"
     inkscape:window-x="1592"
     inkscape:window-y="-8"
     inkscape:window-maximized="1"
     inkscape:current-layer="g10" /><g
     id="g10"
     inkscape:groupmode="layer"
     inkscape:label="Atmel-42181-SAM-D21_Datasheet"
     transform="matrix(1.25,0,0,-1.25,0,28.275)"><g
       id="g528"
       transform="translate(-512.22,-275.28)"><g
         id="g530"
         clip-path="url(#clipPath532)"><g
           id="g536"
           clip-path="url(#clipPath538)"><g
             id="g542"
             clip-path="url(#clipPath544)"><path
               d="m 512.193,281.573 49.587,0 0,16.332 -49.587,0 0,-16.332 z"
               style="fill:#398daf;fill-opacity:1;fill-rule:nonzero;stroke:none"
               id="path548"
               inkscape:connector-curvature="0" /><g
               id="g550"
               transform="translate(555.742,295.401)"><path
                 d="m 0,0 c 0.003,-0.005 -0.003,0.005 0,0 -0.708,0.319 -1.916,0.452 -2.645,0.401 -3.092,-0.217 -4.786,-2.374 -5.264,-3.882 0.029,-0.004 0.242,-0.088 0.268,-0.093 1.274,1.791 3.16,2.304 4.818,2.269 1.334,-0.028 2.236,-0.479 2.883,-0.955 0.6,-0.439 1.161,-1.132 1.161,-1.132 L 0.122,-4.333 c 0,0 1.574,-0.529 2.118,-0.701 0.749,-0.238 1.516,-0.433 1.516,-0.433 0,0 -0.006,0.316 -0.045,0.644 -0.031,0.306 -0.096,0.6 -0.18,0.897 C 2.734,-0.996 0,0 0,0"
                 style="fill:#ffffff;fill-opacity:1;fill-rule:nonzero;stroke:none"
                 id="path552"
                 inkscape:connector-curvature="0" /></g><g
               id="g554"
               transform="translate(551.193,284.199)"><path
                 d="M 0,0 C -0.004,0.006 0.002,-0.006 0,0 0.707,-0.319 1.915,-0.452 2.644,-0.4 5.736,-0.184 7.43,1.974 7.908,3.481 7.879,3.486 7.666,3.569 7.64,3.575 6.367,1.783 4.48,1.27 2.822,1.305 1.488,1.334 0.586,1.785 -0.06,2.26 -0.66,2.699 -1.223,3.393 -1.223,3.393 l 1.1,0.94 c 0,0 -1.574,0.529 -2.118,0.702 -0.749,0.237 -1.516,0.432 -1.516,0.432 0,0 0.006,-0.315 0.044,-0.644 0.032,-0.306 0.097,-0.6 0.181,-0.897 C -2.736,0.997 0,0 0,0"
                 style="fill:#ffffff;fill-opacity:1;fill-rule:nonzero;stroke:none"
                 id="path556"
                 inkscape:connector-curvature="0" /></g><g
               id="g558"
               transform="translate(555.797,287.457)"><path
                 d="M 0,0 -4.674,0.013 -4.661,4.686 0.013,4.673 0,0 z m -0.701,1.623 -1.042,0 0,-1.0435 1.042,0 0,1.0435 z"
                 style="fill:#ffffff;fill-opacity:1;fill-rule:nonzero;stroke:none"
                 id="path560"
                 inkscape:connector-curvature="0" /></g><path
               d="m 512.193,275.256 49.587,0 0,5.8526 -49.587,0 0,-5.8526 z"
               style="fill:#398daf;fill-opacity:1;fill-rule:nonzero;stroke:none"
               id="path562"
               inkscape:connector-curvature="0" /><g
               id="g564"
               transform="translate(525.221,285.173)"><path
                 d="m 0,0 -2.359,0 -0.723,1.741 -3.931,0 L -7.67,0 l -2.321,0 3.545,8.792 2.541,0 L 0,0 z m -5.144,6.691 -1.288,-3.417 2.706,0 -1.418,3.417"
                 style="fill:#ffffff;fill-opacity:1;fill-rule:nonzero;stroke:none"
                 id="path566"
                 inkscape:connector-curvature="0" /></g><g
               id="g568"
               transform="translate(529.658,293.965)"><path
                 d="m 0,0 c 1.805,0 2.875,-1.212 2.875,-2.526 0,-0.967 -0.503,-1.689 -1.509,-2.153 0.903,-0.452 1.173,-1.534 2.411,-4.113 l -2.411,0 C 0.425,-6.908 0.078,-5.22 -1.108,-5.22 l -0.631,0 0,-3.572 -2.192,0 0,8.792 L 0,0 z m -1.739,-3.609 1.159,0 c 0.606,0 1.199,0.257 1.199,1.005 0,0.657 -0.426,0.993 -1.25,0.993 l -1.108,0 0,-1.998"
                 style="fill:#ffffff;fill-opacity:1;fill-rule:nonzero;stroke:none"
                 id="path570"
                 inkscape:connector-curvature="0" /></g><g
               id="g572"
               transform="translate(541.593,293.965)"><path
                 d="m 0,0 1.908,0 0,-8.792 -2.191,0 0,5.492 -2.372,-2.759 -0.335,0 -2.372,2.759 0,-5.492 -2.191,0 0,8.792 1.908,0 2.823,-3.261 L 0,0"
                 style="fill:#ffffff;fill-opacity:1;fill-rule:nonzero;stroke:none"
                 id="path574"
                 inkscape:connector-curvature="0" /></g><g
               id="g576"
               transform="translate(523.047,277.915)"><path
                 d="m 0,0 0,-0.498 c -0.285,-0.151 -0.583,-0.228 -0.896,-0.228 -0.405,0 -0.727,0.113 -0.967,0.337 -0.24,0.224 -0.36,0.501 -0.36,0.829 0,0.329 0.127,0.608 0.38,0.837 0.253,0.229 0.583,0.344 0.991,0.344 0.325,0 0.6,-0.067 0.825,-0.201 l 0,-0.508 c -0.276,0.156 -0.538,0.234 -0.785,0.234 -0.243,0 -0.441,-0.065 -0.595,-0.196 -0.154,-0.131 -0.231,-0.297 -0.231,-0.499 0,-0.203 0.076,-0.371 0.228,-0.504 0.152,-0.132 0.346,-0.198 0.584,-0.198 0.118,0 0.231,0.016 0.339,0.047 C -0.378,-0.173 -0.215,-0.105 0,0"
                 style="fill:#ffffff;fill-opacity:1;fill-rule:nonzero;stroke:none"
                 id="path578"
                 inkscape:connector-curvature="0" /></g><g
               id="g580"
               transform="translate(525.949,279.536)"><path
                 d="M 0,0 C 0.389,0 0.703,-0.118 0.943,-0.354 1.184,-0.589 1.304,-0.862 1.304,-1.174 1.304,-1.49 1.182,-1.766 0.938,-1.998 0.694,-2.231 0.382,-2.347 0,-2.347 c -0.386,0 -0.7,0.116 -0.943,0.348 -0.242,0.231 -0.364,0.506 -0.364,0.825 0,0.314 0.121,0.587 0.362,0.821 C -0.704,-0.117 -0.389,0 0,0 z m 0,-1.872 c 0.216,0 0.39,0.064 0.521,0.193 0.132,0.128 0.198,0.297 0.198,0.506 0,0.209 -0.066,0.378 -0.198,0.506 C 0.39,-0.539 0.216,-0.475 0,-0.475 c -0.216,0 -0.391,-0.064 -0.523,-0.192 -0.132,-0.128 -0.199,-0.297 -0.199,-0.506 0,-0.209 0.067,-0.378 0.199,-0.506 0.132,-0.129 0.307,-0.193 0.523,-0.193"
                 style="fill:#ffffff;fill-opacity:1;fill-rule:evenodd;stroke:none"
                 id="path582"
                 inkscape:connector-curvature="0" /></g><g
               id="g584"
               transform="translate(531.215,279.503)"><path
                 d="m 0,0 0,-2.279 -0.476,0 -1.262,1.46 0,-1.46 -0.568,0 0,2.279 0.521,0 1.217,-1.393 0,1.393 L 0,0"
                 style="fill:#ffffff;fill-opacity:1;fill-rule:nonzero;stroke:none"
                 id="path586"
                 inkscape:connector-curvature="0" /></g><g
               id="g588"
               transform="translate(535.276,279.503)"><path
                 d="m 0,0 0,-2.279 -0.476,0 -1.262,1.46 0,-1.46 -0.568,0 0,2.279 0.521,0 1.217,-1.393 0,1.393 L 0,0"
                 style="fill:#ffffff;fill-opacity:1;fill-rule:nonzero;stroke:none"
                 id="path590"
                 inkscape:connector-curvature="0" /></g><g
               id="g592"
               transform="translate(538.711,277.64)"><path
                 d="m 0,0 0,-0.417 -1.681,0 0,2.279 1.658,0 0,-0.418 -1.09,0 0,-0.478 1.04,0 0,-0.417 -1.04,0 L -1.113,0 0,0"
                 style="fill:#ffffff;fill-opacity:1;fill-rule:nonzero;stroke:none"
                 id="path594"
                 inkscape:connector-curvature="0" /></g><g
               id="g596"
               transform="translate(542.516,277.915)"><path
                 d="m 0,0 0,-0.498 c -0.285,-0.151 -0.584,-0.228 -0.896,-0.228 -0.405,0 -0.727,0.113 -0.966,0.337 -0.241,0.224 -0.361,0.501 -0.361,0.829 0,0.329 0.127,0.608 0.379,0.837 0.253,0.229 0.584,0.344 0.991,0.344 0.326,0 0.601,-0.067 0.827,-0.201 l 0,-0.508 c -0.278,0.156 -0.539,0.234 -0.786,0.234 -0.243,0 -0.441,-0.065 -0.595,-0.196 -0.154,-0.131 -0.231,-0.297 -0.231,-0.499 0,-0.203 0.076,-0.371 0.228,-0.504 0.152,-0.132 0.346,-0.198 0.584,-0.198 0.117,0 0.23,0.016 0.34,0.047 C -0.378,-0.173 -0.216,-0.105 0,0"
                 style="fill:#ffffff;fill-opacity:1;fill-rule:nonzero;stroke:none"
                 id="path598"
                 inkscape:connector-curvature="0" /></g><g
               id="g600"
               transform="translate(546.267,279.503)"><path
                 d="m 0,0 0,-0.418 -0.825,0 0,-1.861 -0.569,0 0,1.861 -0.825,0 0,0.418 L 0,0"
                 style="fill:#ffffff;fill-opacity:1;fill-rule:nonzero;stroke:none"
                 id="path602"
                 inkscape:connector-curvature="0" /></g><g
               id="g604"
               transform="translate(549.536,277.64)"><path
                 d="m 0,0 0,-0.417 -1.682,0 0,2.279 1.659,0 0,-0.418 -1.09,0 0,-0.478 1.039,0 0,-0.417 -1.039,0 L -1.113,0 0,0"
                 style="fill:#ffffff;fill-opacity:1;fill-rule:nonzero;stroke:none"
                 id="path606"
                 inkscape:connector-curvature="0" /></g><g
               id="g608"
               transform="translate(551.211,279.503)"><path
                 d="m 0,0 1.006,0 c 0.389,0 0.696,-0.106 0.922,-0.319 0.225,-0.213 0.339,-0.488 0.339,-0.826 0,-0.353 -0.116,-0.63 -0.344,-0.832 C 1.693,-2.179 1.366,-2.279 0.942,-2.279 L 0,-2.279 0,0 z m 0.568,-0.418 0,-1.444 0.371,0 c 0.241,0 0.424,0.066 0.551,0.198 0.128,0.133 0.192,0.307 0.192,0.523 0,0.224 -0.065,0.401 -0.194,0.53 -0.129,0.129 -0.314,0.193 -0.555,0.193 l -0.365,0"
                 style="fill:#ffffff;fill-opacity:1;fill-rule:evenodd;stroke:none"
                 id="path610"
                 inkscape:connector-curvature="0" /></g><g
               id="g612"
               transform="translate(544.445,293.167)"><path
                 d="m 0,0 c -0.19,0 -0.344,0.154 -0.344,0.344 0,0.187 0.154,0.342 0.344,0.342 0.188,0 0.34,-0.155 0.34,-0.342 C 0.34,0.154 0.188,0 0,0 z m 0,-0.073 c 0.229,0 0.412,0.186 0.412,0.417 0,0.228 -0.183,0.414 -0.412,0.414 -0.231,0 -0.417,-0.186 -0.417,-0.414 0,-0.231 0.186,-0.417 0.417,-0.417 z m -0.023,0.39 c 0.026,-0.003 0.05,0 0.07,-0.02 C 0.069,0.274 0.069,0.235 0.074,0.193 0.078,0.165 0.085,0.134 0.091,0.106 l 0.097,0 C 0.17,0.15 0.165,0.201 0.158,0.248 0.15,0.3 0.143,0.33 0.076,0.343 l 0,0.002 c 0.066,0.013 0.1,0.057 0.1,0.113 0,0.111 -0.093,0.135 -0.183,0.135 l -0.158,0 0,-0.487 0.076,0 0,0.211 0.066,0 z m -0.066,0.075 0,0.125 0.092,0 c 0.061,0 0.078,-0.018 0.078,-0.055 0,-0.038 -0.017,-0.067 -0.089,-0.07 l -0.081,0"
                 style="fill:#ffffff;fill-opacity:1;fill-rule:nonzero;stroke:none"
                 id="path614"
                 inkscape:connector-curvature="0" /></g><g
               id="g616"
               transform="translate(558.692,295.776)"><path
                 d="m 0,0 -0.168,0 0,0.077 0.424,0 0,-0.077 -0.17,0 0,-0.442 L 0,-0.442 0,0 z m 0.314,0.077 0.128,0 0.129,-0.415 0.003,0 0.125,0.415 0.125,0 0,-0.519 -0.079,0 0,0.435 -0.003,0 -0.131,-0.435 -0.078,0 L 0.397,0 0.393,0 l 0,-0.442 -0.079,0 0,0.519"
                 style="fill:#ffffff;fill-opacity:1;fill-rule:nonzero;stroke:none"
                 id="path618"
                 inkscape:connector-curvature="0" /></g></g></g></g></g></g></svg>