<?xml version="1.0" encoding="UTF-8" standalone="no"?>
<!-- Generator: Adobe Illustrator 15.0.2, SVG Export Plug-In . SVG Version: 6.00 Build 0)  -->

<svg
   xmlns:dc="http://purl.org/dc/elements/1.1/"
   xmlns:cc="http://creativecommons.org/ns#"
   xmlns:rdf="http://www.w3.org/1999/02/22-rdf-syntax-ns#"
   xmlns:svg="http://www.w3.org/2000/svg"
   xmlns="http://www.w3.org/2000/svg"
   xmlns:sodipodi="http://sodipodi.sourceforge.net/DTD/sodipodi-0.dtd"
   xmlns:inkscape="http://www.inkscape.org/namespaces/inkscape"
   version="1.1"
   id="Layer_1"
   x="0px"
   y="0px"
   width="727.56097"
   height="120.574"
   viewBox="0 0 727.56097 120.574"
   enable-background="new 0 0 792 612"
   xml:space="preserve"
   inkscape:version="0.48.4 r9939"
   sodipodi:docname="Atmel_SMART_Logo_ 1_Clr_White_Horiz.svg"><metadata
     id="metadata3104"><rdf:RDF><cc:Work
         rdf:about=""><dc:format>image/svg+xml</dc:format><dc:type
           rdf:resource="http://purl.org/dc/dcmitype/StillImage" /></cc:Work></rdf:RDF></metadata><defs
     id="defs3102" /><sodipodi:namedview
     pagecolor="#ffffff"
     bordercolor="#666666"
     borderopacity="1"
     objecttolerance="10"
     gridtolerance="10"
     guidetolerance="10"
     inkscape:pageopacity="0"
     inkscape:pageshadow="2"
     inkscape:window-width="1600"
     inkscape:window-height="1137"
     id="namedview3100"
     showgrid="false"
     inkscape:zoom="1.3682726"
     inkscape:cx="365.771"
     inkscape:cy="25.946999"
     inkscape:window-x="1592"
     inkscape:window-y="-8"
     inkscape:window-maximized="1"
     inkscape:current-layer="Layer_1"
     fit-margin-top="0"
     fit-margin-left="0"
     fit-margin-right="0"
     fit-margin-bottom="0" /><path
     style="fill:#ffffff"
     inkscape:connector-curvature="0"
     id="path3068"
     d="m 261.821,70.095999 h 9.508 v -4.677 c 0,-7.588 -2.438,-14.518 -6.872,-19.5 -4.912,-5.532 -11.953,-8.459 -20.353,-8.459 -8.438,0 -15.656,2.9 -20.874,8.392 -4.837,5.093 -7.504,12.042 -7.504,19.567 0,16.725 10.066,29.086 28.343,29.022 15.23,-0.05 23.411,-8.506 25.656,-15.65 h -11.48 -0.915 c -2.926,4.025 -8.283,6.197 -13.126,6.042 -8.995,-0.281 -16.034,-6.604 -15.709,-14.737 h 33.326 z m -17.717,-22.284 c 10.255,0 13.718,6.698 14.833,12.129 h -30.394 c 1.869,-7.651 7.299,-12.129 15.561,-12.129"
     clip-path="url(#SVGID_2_)" /><path
     style="fill:#ffffff"
     inkscape:connector-curvature="0"
     id="path3070"
     d="m 299.884,18.023999 c -2.892,0 -5.238,2.339 -5.238,5.229 0,2.883 2.346,5.225 5.238,5.225 2.882,0 5.229,-2.342 5.229,-5.225 0,-2.89 -2.347,-5.229 -5.229,-5.229 m 0,9.32 c -2.264,-0.004 -4.096,-1.831 -4.096,-4.091 0,-2.262 1.832,-4.085 4.096,-4.091 2.258,0.006 4.085,1.829 4.091,4.091 -0.006,2.26 -1.833,4.087 -4.091,4.091"
     clip-path="url(#SVGID_2_)" /><path
     style="fill:#ffffff"
     inkscape:connector-curvature="0"
     id="path3072"
     d="m 302.027,22.294999 c 0,-0.804 -0.62,-1.481 -1.539,-1.481 h -2.469 v 4.75 h 0.91 v -1.796 h 1.166 l 1.303,1.796 h 1.125 l -1.428,-1.925 c 0.583,-0.224 0.932,-0.75 0.932,-1.344 m -1.694,0.756 h -1.403 v -1.499 h 1.403 c 0.411,0 0.763,0.291 0.763,0.743 -10e-4,0.448 -0.335,0.756 -0.763,0.756"
     clip-path="url(#SVGID_2_)" /><path
     style="fill:#ffffff"
     inkscape:connector-curvature="0"
     id="path3074"
     d="m 301.685,82.137999 c -1.684,0 -3.292,-0.32 -4.776,-0.94 -1.491,-0.625 -2.809,-1.503 -3.912,-2.605 -1.098,-1.09 -1.981,-2.404 -2.605,-3.896 -0.624,-1.486 -0.941,-3.091 -0.941,-4.751 v -51.93 h -11.142 v 51.92 c 0,3.174 0.618,6.206 1.822,9.041 1.21,2.811 2.915,5.318 5.049,7.462 2.146,2.124 4.655,3.815 7.467,5.025 2.825,1.203 5.871,1.814 9.038,1.814 h 5.835 v -11.14 h -5.835 z"
     clip-path="url(#SVGID_2_)" /><path
     style="fill:#ffffff"
     inkscape:connector-curvature="0"
     id="path3076"
     d="m 206.828,52.304999 c -1.208,-2.854 -2.895,-5.384 -5.021,-7.524 -2.127,-2.13 -4.616,-3.837 -7.401,-5.072 -2.794,-1.234 -5.844,-1.858 -9.069,-1.858 -3.797,0 -7.356,0.875 -10.581,2.598 -2.682,1.423 -5.019,3.313 -6.966,5.627 -1.937,-2.31 -4.258,-4.201 -6.906,-5.625 -3.195,-1.725 -6.772,-2.6 -10.631,-2.6 -3.164,0 -6.194,0.624 -9.016,1.858 -2.821,1.235 -5.308,2.942 -7.401,5.08 -2.091,2.141 -3.76,4.667 -4.964,7.52 -1.204,2.854 -1.819,5.975 -1.819,9.275 v 31.607 h 11.477 v -31.59 c 0,-1.656 0.307,-3.23 0.914,-4.667 0.607,-1.459 1.46,-2.746 2.522,-3.841 1.064,-1.085 2.325,-1.954 3.743,-2.582 1.421,-0.621 2.954,-0.931 4.562,-0.931 1.619,0 3.173,0.31 4.623,0.931 1.45,0.632 2.725,1.497 3.788,2.582 1.063,1.095 1.915,2.382 2.521,3.841 0.608,1.447 0.916,3.02 0.916,4.667 v 31.59 h 11.467 v -31.59 c 0,-1.647 0.308,-3.218 0.915,-4.667 0.606,-1.445 1.454,-2.742 2.526,-3.841 1.069,-1.089 2.324,-1.957 3.741,-2.582 1.422,-0.621 2.96,-0.931 4.569,-0.931 1.608,0 3.163,0.31 4.614,0.931 1.45,0.628 2.725,1.493 3.788,2.582 1.067,1.099 1.915,2.388 2.526,3.841 0.602,1.434 0.909,3.007 0.909,4.667 v 31.59 h 11.478 v -31.607 c -10e-4,-3.3 -0.616,-6.421 -1.824,-9.279"
     clip-path="url(#SVGID_2_)" /><polygon
     style="fill:#ffffff"
     id="polygon3078"
     points="106.634,304.493 106.634,229.389 93.733,229.389 30.229,304.493 43.507,304.493 62.974,281.58 85.379,281.58 85.379,270.931 72.017,270.931 95.499,243.313 95.499,304.493 "
     clip-path="url(#SVGID_2_)"
     transform="translate(-30.229,-211.373)" /><path
     style="fill:#ffffff"
     inkscape:connector-curvature="0"
     id="path3080"
     d="m 113.808,82.137999 c -1.673,0 -3.278,-0.32 -4.764,-0.94 -1.493,-0.625 -2.807,-1.503 -3.909,-2.605 -1.104,-1.09 -1.978,-2.404 -2.612,-3.896 -0.623,-1.486 -0.944,-3.091 -0.944,-4.751 v -20.111 h 17.441 v -11.264 h -17.441 v -20.555 H 90.441 v 20.555 h -5.846 v 11.264 h 5.846 v 20.101 c 0,3.174 0.615,6.206 1.827,9.041 1.204,2.811 2.904,5.318 5.045,7.462 2.14,2.124 4.648,3.815 7.47,5.025 2.824,1.203 5.861,1.814 9.025,1.814 h 5.501 v -11.14 h -5.501 z"
     clip-path="url(#SVGID_2_)" /><rect
     style="fill:#ffffff"
     id="rect3082"
     height="120.574"
     width="1.251"
     clip-path="url(#SVGID_2_)"
     y="0"
     x="349.19501" /><path
     style="fill:#ffffff"
     inkscape:connector-curvature="0"
     id="path3084"
     d="m 431.286,38.944999 -4.034,7.883 c -5.343,-4.117 -11.913,-6.221 -17.43,-6.221 -4.997,0 -8.324,3.154 -9.111,6.221 0.091,4.117 3.418,6.398 6.57,7.619 l 14.979,5.871 h -0.087 c 9.025,3.418 11.648,9.372 11.648,14.716 0,2.892 -0.962,5.695 -1.838,7.8 -2.891,6.304 -10.338,10.071 -19.971,10.071 -3.945,0 -8.321,-0.437 -12.618,-2.101 -3.504,-1.313 -8.318,-3.33 -11.997,-6.744 l 4.729,-7.89 c 4.991,4.388 13.051,7.625 19.975,7.625 4.643,0 8.236,-2.099 9.896,-5.606 0.176,-0.612 0.351,-1.314 0.351,-2.278 0,-3.24 -2.452,-5.518 -5.078,-6.567 h 0.086 c -5.431,-2.107 -10.861,-4.298 -16.293,-6.309 -9.111,-3.504 -12.18,-9.55 -12.18,-14.543 0,-0.962 0.087,-1.84 0.178,-2.538 1.316,-8.411 9.722,-14.193 21.284,-14.193 3.682,0 7.359,0.615 11.037,1.753 4.209,1.49 7.622,3.678 9.904,5.431"
     clip-path="url(#SVGID_2_)" /><path
     style="fill:#ffffff"
     inkscape:connector-curvature="0"
     id="path3086"
     d="m 521.28,92.060999 24.526,-59.044 h 10.95 l 24.527,59.044 h -12.088 l -5.431,-13.314 h -25.14 l -5.256,13.314 H 521.28 z m 20.674,-22.163 h 18.572 l -9.201,-24.705 -9.371,24.705 z"
     clip-path="url(#SVGID_2_)" /><path
     style="fill:#ffffff"
     inkscape:connector-curvature="0"
     id="path3088"
     d="m 633.82,66.218999 c 3.068,1.05 4.646,3.149 5.872,6.482 2.541,7.009 3.946,12.61 8.147,19.36 h -12.265 c -3.679,-5.783 -3.94,-8.938 -6.219,-14.981 -1.836,-5.431 -4.292,-7.712 -8.585,-7.712 h -10.512 v 22.693 h -11.476 v -59.044 h 26.19 c 15.771,0 19.188,10.687 19.188,18.834 0.002,1.225 -0.874,10.603 -10.34,14.368 m -8.582,-5.781 c 6.219,0 7.625,-5.696 7.625,-8.501 0,-4.99 -2.193,-9.986 -8.41,-9.986 H 610.26 v 18.487 h 14.978 z"
     clip-path="url(#SVGID_2_)" /><polygon
     style="fill:#ffffff"
     id="polygon3090"
     points="718.354,303.433 706.963,303.433 706.963,253.324 688.745,253.324 688.745,244.389 736.57,244.389 736.57,253.324 718.354,253.324 "
     clip-path="url(#SVGID_2_)"
     transform="translate(-30.229,-211.373)" /><polygon
     style="fill:#ffffff"
     id="polygon3092"
     points="742.305,245.311 742.305,244.393 748.517,244.393 748.517,245.311 745.949,245.311 745.949,252.782 744.859,252.782 744.859,245.311 "
     clip-path="url(#SVGID_2_)"
     transform="translate(-30.229,-211.373)" /><path
     style="fill:#ffffff"
     inkscape:connector-curvature="0"
     id="path3094"
     d="m 726.292,37.726999 c -0.063,-1.174 -0.137,-2.58 -0.125,-3.626 h -0.035 c -0.291,0.983 -0.635,2.03 -1.063,3.187 l -1.478,4.072 h -0.826 l -1.353,-3.998 c -0.399,-1.183 -0.739,-2.265 -0.975,-3.261 h -0.021 c -0.022,1.046 -0.089,2.452 -0.162,3.713 l -0.226,3.595 h -1.031 l 0.587,-8.389 h 1.38 l 1.433,4.057 c 0.349,1.031 0.634,1.954 0.843,2.829 h 0.04 c 0.21,-0.85 0.51,-1.771 0.885,-2.829 l 1.492,-4.057 h 1.382 l 0.522,8.389 h -1.06 l -0.209,-3.682 z"
     clip-path="url(#SVGID_2_)" /><path
     style="fill:#ffffff"
     inkscape:connector-curvature="0"
     id="path3096"
     d="m 503.78,95.532999 c -4.793,0 -8.69,-3.899 -8.69,-8.691 0,-2.507 1.081,-4.888 2.969,-6.541 0.445,-0.456 1.326,-1.352 1.326,-4.075 v -2.264 c 0,-2.721 -0.905,-3.643 -1.391,-4.135 -1.837,-1.599 -2.904,-3.974 -2.904,-6.478 0,-1.778 0.543,-3.493 1.532,-4.924 -1.556,1.472 -3.664,2.367 -5.979,2.367 l -0.437,0.006 c -0.362,0 -0.724,-0.016 -1.083,-0.031 -0.318,-0.019 -0.537,-0.027 -0.756,-0.027 -0.591,0 -0.664,0.071 -0.868,0.254 -0.269,0.238 -0.312,0.282 -0.368,1.582 l -0.008,0.171 c -0.021,0.374 -0.04,0.762 -0.089,1.17 -0.281,4.52 -4.08,8.088 -8.655,8.088 -4.575,0 -8.387,-3.575 -8.666,-8.145 -0.043,-0.387 -0.067,-0.81 -0.084,-1.213 -0.061,-1.375 -0.104,-1.415 -0.359,-1.643 -0.21,-0.193 -0.292,-0.264 -0.879,-0.264 -0.225,0 -0.444,0.008 -0.667,0.022 -0.448,0.02 -0.812,0.036 -1.176,0.036 l -0.446,-0.006 c -2.3,0 -4.386,-0.888 -5.943,-2.349 0.968,1.41 1.51,3.124 1.51,4.906 0,2.504 -1.082,4.887 -2.972,6.539 -0.444,0.457 -1.326,1.353 -1.326,4.074 v 2.264 c 0,2.723 0.905,3.646 1.394,4.137 1.837,1.6 2.904,3.972 2.904,6.479 0,4.792 -3.898,8.691 -8.69,8.691 -4.796,0 -8.697,-3.899 -8.697,-8.691 0,-2.5 1.08,-4.882 2.97,-6.541 0.444,-0.459 1.321,-1.36 1.321,-4.075 v -2.264 c 0,-2.716 -0.866,-3.603 -1.384,-4.135 -1.837,-1.605 -2.907,-3.974 -2.907,-6.478 0,-2.547 1.112,-4.96 3.049,-6.613 0.342,-0.364 1.242,-1.301 1.242,-3.994 v -2.13 c 0,-2.685 -0.891,-3.617 -1.317,-4.065 -1.875,-1.595 -2.974,-3.99 -2.974,-6.539 0,-4.794 3.901,-8.695 8.697,-8.695 4.792,0 8.69,3.901 8.69,8.695 0,0.246 -0.014,0.496 -0.039,0.756 0.017,0.535 0.025,1.213 1.601,2.7 0.057,0.051 0.266,0.131 0.596,0.131 0.088,0 0.162,-0.005 0.214,-0.014 0.529,-0.08 1.17,-0.177 1.897,-0.177 h 0.177 c 4.448,0 8.254,3.473 8.651,7.901 0.087,0.59 0.103,1.174 0.116,1.693 0.03,1.073 0.08,1.253 0.184,1.379 l 0.285,0.255 c 0.022,0.005 0.102,0.06 0.529,0.06 0.276,0 0.543,-0.017 0.817,-0.038 0.441,-0.026 0.865,-0.049 1.296,-0.049 h 0.773 c 0.431,0 0.852,0.023 1.282,0.049 0.282,0.021 0.553,0.038 0.831,0.038 0.428,0 0.505,-0.055 0.594,-0.112 l 0.271,-0.259 c 0.049,-0.076 0.1,-0.25 0.132,-1.323 0.013,-0.484 0.03,-1.085 0.114,-1.731 0.404,-4.4 4.205,-7.863 8.652,-7.863 h 0.176 c 0.742,0 1.37,0.097 1.875,0.173 0.067,0.013 0.146,0.018 0.233,0.018 0.334,0 0.545,-0.08 0.603,-0.137 1.568,-1.481 1.583,-2.159 1.597,-2.755 -0.024,-0.182 -0.036,-0.44 -0.036,-0.695 0,-4.794 3.897,-8.695 8.69,-8.695 4.794,0 8.697,3.901 8.697,8.695 0,2.544 -1.111,4.958 -3.05,6.609 -0.378,0.404 -1.244,1.313 -1.248,3.995 l 0.004,2.13 c 0,2.689 0.893,3.626 1.323,4.074 1.872,1.591 2.971,3.986 2.971,6.533 0,2.5 -1.082,4.883 -2.971,6.539 -0.44,0.454 -1.323,1.349 -1.327,4.074 l 0.004,2.264 c 0,2.719 0.9,3.646 1.39,4.141 1.831,1.596 2.904,3.965 2.904,6.475 0,4.792 -3.903,8.691 -8.697,8.691 m -3.569,-47.563 0.16,0.898 c 0.091,0.531 0.139,1.116 0.139,1.744 v 2.13 c 0,3.139 -1.116,4.308 -1.591,4.808 -1.735,1.486 -2.706,3.581 -2.706,5.799 0,2.18 0.926,4.245 2.548,5.659 0.589,0.595 1.749,1.773 1.749,4.954 v 2.264 c 0,3.179 -1.134,4.335 -1.682,4.894 -1.676,1.468 -2.615,3.542 -2.615,5.722 0,4.174 3.394,7.565 7.566,7.565 4.175,0 7.571,-3.391 7.571,-7.565 0,-2.184 -0.93,-4.245 -2.552,-5.658 -0.63,-0.646 -1.742,-1.779 -1.742,-4.958 l -0.004,-2.264 c 0.004,-3.181 1.138,-4.336 1.683,-4.891 1.676,-1.467 2.615,-3.547 2.615,-5.722 0,-2.218 -0.953,-4.3 -2.615,-5.716 -0.575,-0.592 -1.679,-1.748 -1.679,-4.891 l -0.004,-2.13 c 0.004,-3.133 1.122,-4.303 1.595,-4.803 1.738,-1.486 2.703,-3.585 2.703,-5.801 0,-4.174 -3.396,-7.571 -7.571,-7.571 -4.173,0 -7.566,3.397 -7.566,7.571 0,0.22 0.014,0.441 0.032,0.65 -0.01,0.805 -0.032,1.81 -1.947,3.622 -0.303,0.284 -0.791,0.438 -1.372,0.438 -0.158,0 -0.307,-0.013 -0.409,-0.03 -0.46,-0.071 -1.045,-0.157 -1.699,-0.157 h -0.176 c -3.871,0 -7.182,3.014 -7.537,6.858 -0.074,0.619 -0.092,1.188 -0.105,1.64 -0.03,1.139 -0.079,1.612 -0.438,2.056 l -0.39,0.37 c -0.398,0.281 -0.73,0.363 -1.293,0.363 -0.303,0 -0.602,-0.017 -0.91,-0.04 -0.396,-0.025 -0.801,-0.048 -1.203,-0.048 h -0.773 c -0.404,0 -0.81,0.023 -1.218,0.048 -0.289,0.023 -0.593,0.04 -0.896,0.04 -0.565,0 -0.896,-0.082 -1.227,-0.307 l -0.408,-0.369 c -0.415,-0.505 -0.458,-0.978 -0.489,-2.119 -0.012,-0.474 -0.031,-1.023 -0.105,-1.59 -0.355,-3.88 -3.665,-6.902 -7.536,-6.902 h -0.177 c -0.644,0 -1.216,0.082 -1.716,0.163 -0.083,0.011 -0.229,0.024 -0.396,0.024 -0.574,0 -1.065,-0.154 -1.362,-0.434 -1.775,-1.675 -1.938,-2.64 -1.954,-3.563 0.021,-0.286 0.033,-0.502 0.033,-0.713 0,-4.174 -3.391,-7.571 -7.564,-7.571 -4.175,0 -7.573,3.397 -7.573,7.571 0,2.22 0.953,4.302 2.615,5.718 0.574,0.597 1.678,1.749 1.678,4.886 v 2.13 c 0,3.146 -1.119,4.312 -1.599,4.813 -1.728,1.475 -2.694,3.576 -2.694,5.794 0,2.18 0.932,4.241 2.554,5.659 0.634,0.642 1.739,1.777 1.739,4.954 v 2.264 c 0,3.17 -1.13,4.332 -1.669,4.884 -1.684,1.478 -2.624,3.555 -2.624,5.732 0,4.174 3.398,7.565 7.573,7.565 4.174,0 7.564,-3.391 7.564,-7.565 0,-2.18 -0.926,-4.245 -2.548,-5.662 -0.589,-0.592 -1.75,-1.771 -1.75,-4.954 v -2.264 c 0,-3.177 1.134,-4.333 1.686,-4.891 1.673,-1.467 2.612,-3.542 2.612,-5.722 0,-2.218 -0.953,-4.3 -2.612,-5.716 -0.574,-0.587 -1.686,-1.739 -1.686,-4.891 v -2.13 c 0,-0.617 0.045,-1.205 0.137,-1.74 l 0.148,-0.902 0.735,0.541 c 0.293,0.212 0.585,0.435 0.855,0.69 0.503,0.496 0.489,0.712 0.446,1.62 -0.022,0.423 -0.056,0.985 -0.007,1.588 0.178,4.078 3.489,7.258 7.545,7.258 l 0.449,0.005 c 0.343,0 0.685,-0.011 1.028,-0.03 1.361,-0.071 1.832,-0.024 2.442,0.525 0.616,0.554 0.668,1.021 0.729,2.403 0.017,0.406 0.035,0.798 0.08,1.187 0.25,4.01 3.56,7.126 7.546,7.126 3.98,0 7.29,-3.104 7.535,-7.067 0.048,-0.413 0.066,-0.777 0.083,-1.125 l 0.01,-0.172 c 0.06,-1.337 0.109,-1.788 0.734,-2.353 0.455,-0.423 0.839,-0.551 1.626,-0.551 0.235,0 0.483,0.009 0.723,0.021 0.429,0.025 0.771,0.036 1.114,0.036 l 0.435,-0.005 c 4.063,0 7.381,-3.167 7.553,-7.214 0.054,-0.651 0.021,-1.192 0,-1.626 -0.043,-0.914 -0.057,-1.13 0.404,-1.596 0.307,-0.276 0.599,-0.504 0.887,-0.72 l 0.73,-0.541 z m -42.83,2.08 c -0.008,0.183 -0.012,0.368 -0.012,0.562 v 2.13 c 0,2.697 0.895,3.626 1.326,4.074 0.093,0.08 0.185,0.164 0.272,0.242 -0.901,-1.305 -1.46,-2.874 -1.534,-4.579 -0.048,-0.658 -0.018,-1.262 0.004,-1.705 0.021,-0.32 0.033,-0.593 0.015,-0.663 -0.007,-0.009 -0.035,-0.032 -0.071,-0.061 m 41.993,0 c -0.031,0.029 -0.066,0.061 -0.087,0.091 0,0.037 0.013,0.309 0.027,0.629 0.024,0.44 0.06,1.051 0,1.748 -0.074,1.683 -0.616,3.23 -1.511,4.528 0.11,-0.106 0.226,-0.207 0.339,-0.305 0.378,-0.405 1.242,-1.314 1.242,-3.999 v -2.13 c 0,-0.194 -0.004,-0.379 -0.01,-0.562"
     clip-path="url(#SVGID_2_)" /><path
     style="fill:#ffffff"
     inkscape:connector-curvature="0"
     id="path3098"
     d="m 506.987,67.234999 c 1.083,-0.919 1.803,-2.317 1.803,-3.732 0,-1.449 -0.62,-3.032 -1.715,-3.923 -1.054,-1.081 -2.488,-2.559 -2.488,-5.783 v -4.065 c 0,-3.23 1.199,-4.865 2.225,-5.915 1.122,-0.918 1.769,-2.275 1.769,-3.726 0,-2.65 -2.163,-4.807 -4.813,-4.807 -2.648,0 -4.813,2.157 -4.813,4.807 0,0.185 0.019,0.365 0.036,0.506 0.035,1.371 -0.827,4.178 -3.587,6.205 -0.663,0.486 -1.511,0.644 -2.274,0.644 -0.363,0 -0.729,-0.052 -1.126,-0.109 -0.397,-0.06 -0.816,-0.122 -1.248,-0.122 h -0.16 c -2.488,0 -4.593,2.046 -4.786,4.506 -0.067,0.437 -0.079,0.876 -0.089,1.301 -0.034,1.141 0.039,2.445 -0.869,3.447 l -0.511,0.47 c -0.876,0.68 -2.065,1.726 -3.875,1.581 -0.317,-0.021 -0.629,-0.017 -0.939,-0.038 -0.32,-0.019 -0.644,-0.04 -0.967,-0.04 -0.124,0 -0.247,0.003 -0.335,0.009 -0.44,-0.023 -0.888,0.002 -1.335,0.031 -0.31,0.021 -0.622,0.038 -0.932,0.038 -0.714,0 -2.287,-0.128 -3.28,-1.123 l -0.785,-0.968 c -0.932,-1.019 -0.725,-2.4 -0.751,-3.539 -0.013,-0.426 -0.029,-0.864 -0.089,-1.277 -0.194,-2.478 -2.58,-4.491 -5.096,-4.491 l -0.132,-0.005 c -0.433,0 -0.853,0.067 -1.257,0.124 -0.389,0.057 -0.846,0.188 -1.208,0.198 -1.386,0.039 -2.437,-0.88 -3.177,-1.64 -1.976,-2.031 -2.233,-3.527 -2.385,-4.961 0.019,-0.18 -0.007,-0.562 -0.007,-0.747 0,-2.65 -2.16,-4.807 -4.809,-4.807 -2.652,0 -4.81,2.157 -4.81,4.807 0,1.451 0.645,2.808 1.743,3.706 1.045,1.07 2.294,2.609 2.294,5.839 l 0.053,4.346 c -0.098,2.816 -1.582,4.675 -2.605,5.726 -1.12,0.922 -1.639,2.394 -1.639,3.839 0,1.417 0.861,2.782 1.924,3.679 1.063,0.895 2.313,3.317 2.313,7.004 v 2.039 c 0,3.686 -1.618,6.214 -2.55,6.994 -1.079,0.916 -1.49,2.207 -1.49,3.622 0,2.648 2.16,4.806 4.812,4.806 2.652,0 4.808,-2.158 4.808,-4.806 0,-1.415 -0.619,-2.752 -1.683,-3.652 -0.707,-0.716 -2.422,-2.821 -2.422,-6.51 v -2.037 c 0.12,-5.48 1.637,-6.626 2.443,-7.445 1.08,-0.918 1.82,-2.3 1.82,-3.717 0,-1.443 -0.501,-2.864 -1.693,-3.839 -1.049,-1.076 -2.534,-2.763 -2.534,-5.993 l -0.046,-3.833 c 0,-1.297 0.381,-2.627 0.731,-3.576 0.229,-0.487 0.777,-0.954 1.591,-0.954 0.314,0 0.835,0.004 1.169,0.171 0.658,0.361 1.291,0.652 1.96,1.267 1.38,1.096 2.162,1.88 1.929,4.204 -0.04,0.391 -0.04,0.797 -0.006,1.213 0.091,2.601 2.241,4.833 4.878,4.833 h 0.011 c 0.388,0.019 0.79,0 1.186,-0.017 1.151,-0.054 2.942,-0.124 4.294,0.958 1.515,1.213 1.823,3.259 1.876,4.507 0.018,0.358 0.036,0.716 0.074,1.048 0.126,2.557 2.235,4.564 4.794,4.564 2.566,0 4.93,-1.922 5.058,-4.462 0.042,-0.35 0.058,-0.706 0.074,-1.06 0.212,-3.512 1.056,-3.737 2.322,-4.755 1.33,-1.073 2.776,-0.804 3.922,-0.751 0.277,0.014 0.558,0.025 0.84,0.025 0.113,0 0.232,0 0.386,-0.004 2.601,0 4.738,-2.165 4.824,-4.754 0.036,-0.435 0.021,-0.838 -0.004,-1.227 -0.057,-1.076 -0.082,-2.494 1.017,-3.572 0.67,-0.619 2.004,-1.666 2.816,-2.038 0.346,-0.157 0.918,-0.224 1.234,-0.224 0.651,0 1.607,0.733 1.726,1.202 0.356,0.972 0.517,2.278 0.603,3.257 0.092,0.979 0.031,4.04 0.031,4.04 0,3.225 -1.464,4.792 -2.487,5.847 -1.119,0.919 -1.735,2.369 -1.735,3.813 0,1.416 0.716,2.943 1.776,3.84 1.694,1.391 2.407,3.864 2.45,7.859 v 2.038 c -0.237,3.797 -1.919,5.313 -2.608,6.007 -1.081,0.918 -1.645,2.39 -1.645,3.805 0,2.654 2.32,4.832 4.974,4.832 2.65,0 4.987,-2.12 4.987,-4.775 0,-1.415 -0.506,-2.834 -1.646,-3.875 -0.713,-0.718 -2.443,-2.487 -2.559,-5.839 l -0.069,-2.115 c -0.064,-6.048 2.058,-7.544 2.493,-7.956"
     clip-path="url(#SVGID_2_)" /></svg>