<?xml version="1.0" encoding="UTF-8" standalone="no"?>
<!-- Created with Inkscape (http://www.inkscape.org/) -->

<svg
   xmlns:dc="http://purl.org/dc/elements/1.1/"
   xmlns:cc="http://creativecommons.org/ns#"
   xmlns:rdf="http://www.w3.org/1999/02/22-rdf-syntax-ns#"
   xmlns:svg="http://www.w3.org/2000/svg"
   xmlns="http://www.w3.org/2000/svg"
   xmlns:sodipodi="http://sodipodi.sourceforge.net/DTD/sodipodi-0.dtd"
   xmlns:inkscape="http://www.inkscape.org/namespaces/inkscape"
   id="svg3336"
   version="1.1"
   inkscape:version="0.91 r13725"
   xml:space="preserve"
   width="1376.5487"
   height="716.68872"
   viewBox="0 0 1376.5487 716.68872"
   sodipodi:docname="MCHP_Logo_Vertical_4C.svg"><metadata
     id="metadata3342"><rdf:RDF><cc:Work
         rdf:about=""><dc:format>image/svg+xml</dc:format><dc:type
           rdf:resource="http://purl.org/dc/dcmitype/StillImage" /><dc:title></dc:title></cc:Work></rdf:RDF></metadata><defs
     id="defs3340"><clipPath
       clipPathUnits="userSpaceOnUse"
       id="clipPath3354"><path
         d="m 0.059998,573.351 1101.180002,0 0,-573.291 -1101.180002,0 0,573.291 z"
         id="path3356"
         inkscape:connector-curvature="0" /></clipPath><clipPath
       clipPathUnits="userSpaceOnUse"
       id="clipPath3394"><path
         d="m 0.059998,573.351 1101.180002,0 0,-573.291 -1101.180002,0 0,573.291 z"
         id="path3396"
         inkscape:connector-curvature="0" /></clipPath></defs><sodipodi:namedview
     pagecolor="#ffffff"
     bordercolor="#666666"
     borderopacity="1"
     objecttolerance="10"
     gridtolerance="10"
     guidetolerance="10"
     inkscape:pageopacity="0"
     inkscape:pageshadow="2"
     inkscape:window-width="1366"
     inkscape:window-height="706"
     id="namedview3338"
     showgrid="false"
     inkscape:zoom="0.6625265"
     inkscape:cx="688.27435"
     inkscape:cy="358.34436"
     inkscape:window-x="-8"
     inkscape:window-y="-8"
     inkscape:window-maximized="1"
     inkscape:current-layer="g3344" /><g
     id="g3344"
     inkscape:groupmode="layer"
     inkscape:label="MCHP_Logo_Vertical_4C"
     transform="matrix(1.25,0,0,-1.25,0,716.68875)"><g
       id="g3346"
       transform="translate(608.951,563.788)"><path
         d="m 0,0 c -18.576,5.332 -38.266,8.224 -58.685,8.224 -111.01,0 -200.998,-84.836 -200.998,-189.496 0,-104.658 89.988,-189.49 200.998,-189.49 102.002,0 186.2,71.652 199.196,164.463 L 0,0"
         style="fill:#ffffff;fill-opacity:1;fill-rule:nonzero;stroke:none"
         id="path3348"
         inkscape:connector-curvature="0" /></g><g
       id="g3350"><g
         id="g3352"
         clip-path="url(#clipPath3354)"><g
           id="g3358"
           transform="translate(604.967,323.894)"><path
             d="m 0,0 c 0,0 -32.481,-47.361 -35.809,-51.882 -19.867,-27 -34.487,4.168 -34.487,4.168 l -103.352,162.469 c 0,0 19.24,26.995 34.295,48.398 16.56,23.558 31.483,7.11 36.449,-0.68 C -67.126,106.387 0,0 0,0 Z m 28.947,230.622 c -25.869,12.206 -49.787,18.264 -80.57,18.802 -110.974,1.932 -202.433,-81.966 -204.279,-187.393 -0.314,-18.26 2.073,-35.958 6.821,-52.772 l 57.365,80.426 38.839,-60.792 c 0,0 11.673,-13.234 2.819,-26.62 -0.548,-0.842 -52.695,-72.872 -52.695,-72.872 36.016,-37.735 86.682,-60.771 144.472,-61.783 56.056,-0.984 106.097,19.463 143.15,53.994 L -37.149,114.207 c 0,0 19.25,27.006 34.294,48.406 16.576,23.559 31.482,7.115 36.466,-0.677 C 69.382,105.848 136.512,-0.536 136.512,-0.536 l 0.033,0.619 c 6.883,15.818 10.404,20.609 11.138,43.39 L 28.947,230.622"
             style="fill:#ed1b2d;fill-opacity:1;fill-rule:nonzero;stroke:none"
             id="path3360"
             inkscape:connector-curvature="0" /></g><g
           id="g3362"
           transform="translate(160.348,1.6551)"><path
             d="m 0,0 -8.905,111.554 -0.368,0 -34.4,-89.074 C -46.855,14.185 -53.9,7.383 -63.767,7.383 c -9.859,0 -17.67,8.205 -20.093,15.097 l -33.637,87.961 -0.365,0 L -127.533,0 l -32.815,0.021 16.76,157.256 c 1.102,8.682 8.221,18.568 17.902,18.568 14.845,0 20.788,-8.681 23.746,-17.363 l 37.994,-95.486 0.365,0 37.988,95.486 c 3.344,8.682 9.097,17.363 23.752,17.363 9.681,0 16.801,-9.886 17.896,-20.595 L 32.663,0.021 0,0"
             style="fill:#231f20;fill-opacity:1;fill-rule:nonzero;stroke:none"
             id="path3364"
             inkscape:connector-curvature="0" /></g></g></g><path
       d="m 210.371,1.676 30.589,0 0,132.987 -30.589,0 0,-132.987 z"
       style="fill:#231f20;fill-opacity:1;fill-rule:nonzero;stroke:none"
       id="path3366"
       inkscape:connector-curvature="0" /><path
       d="m 933.81,1.676 30.586,0 0,132.987 -30.586,0 0,-132.987 z"
       style="fill:#231f20;fill-opacity:1;fill-rule:nonzero;stroke:none"
       id="path3368"
       inkscape:connector-curvature="0" /><g
       id="g3370"
       transform="translate(257.895,88.004)"><path
         d="m 0,0 c 0,38.944 14.905,48.125 39.948,48.125 l 32.688,0 c 39.57,0 44.713,2.576 44.458,-35.084 l -71.678,0.123 c -14.655,0 -16.864,-9.3 -16.864,-25.839 l 0,-14.329 c 0,-19.281 2.754,-26.63 15.909,-26.63 l 73.758,0.058 c 0,-22.408 -0.292,-34.224 -28.218,-34.224 l -50.053,0 C 14.905,-87.8 0,-78.615 0,-39.668 L 0,0"
         style="fill:#231f20;fill-opacity:1;fill-rule:nonzero;stroke:none"
         id="path3372"
         inkscape:connector-curvature="0" /></g><g
       id="g3374"
       transform="translate(481.865,83.227)"><path
         d="m 0,0 c 0,-9.547 -2.753,-13.957 -10.269,-13.957 l -50.919,0 0,32.332 48.416,0 C -4.007,18.375 0,16.166 0,4.41 L 0,0 Z m 27.05,3.492 0,8.449 c 0,23.881 -5.758,39.495 -27.172,39.495 l -88.872,0 0,-132.987 27.806,0 0,34.533 48.667,0 c 8.642,0 11.389,-4.599 11.389,-18.554 l 0,-15.979 27.813,0 0,22.588 c 0,21.858 -6.893,27.188 -15.157,29.397 l 0,0.363 c 12.778,4.41 15.526,14.883 15.526,32.695"
         style="fill:#231f20;fill-opacity:1;fill-rule:nonzero;stroke:none"
         id="path3376"
         inkscape:connector-curvature="0" /></g><g
       id="g3378"
       transform="translate(554.24,61)"><path
         d="m 0,0 c 0,-19.281 2.758,-26.63 15.905,-26.63 l 35.57,0 c 13.149,0 15.902,7.349 15.902,26.63 l 0,14.329 c 0,16.539 -2.753,26.636 -17.408,26.636 l -32.559,0 C 2.758,40.965 0,30.868 0,14.329 L 0,0 Z m -28.552,27.004 c 0,38.944 14.9,48.125 39.949,48.125 l 44.585,0 c 25.047,0 39.948,-9.181 39.948,-48.125 l 0,-39.668 c 0,-38.947 -14.901,-48.132 -39.948,-48.132 l -44.585,0 c -25.049,0 -39.949,9.185 -39.949,48.132 l 0,39.668"
         style="fill:#231f20;fill-opacity:1;fill-rule:nonzero;stroke:none"
         id="path3380"
         inkscape:connector-curvature="0" /></g><g
       id="g3382"
       transform="translate(799.916,134.663)"><path
         d="m 0,0 27.796,0 0,-47.395 58.614,0 0,47.395 27.801,0 0,-132.987 -27.801,0 0,50.33 -58.614,0 0,-50.33 -27.796,0 L 0,0"
         style="fill:#231f20;fill-opacity:1;fill-rule:nonzero;stroke:none"
         id="path3384"
         inkscape:connector-curvature="0" /></g><g
       id="g3386"
       transform="translate(1072.69,82.315)"><path
         d="m 0,0 c 0,-7.904 -2.51,-14.143 -9.02,-14.143 l -53.38,0 0,33.43 51,0 C -3.01,19.287 0,14.139 0,5.14 L 0,0 Z m -4.26,52.348 -85.945,0 0,-132.987 27.805,0 0,33.428 65.4,0 c 19.66,0 25.55,22.781 25.55,42.613 l 0,11.391 c 0,26.084 -6.39,45.555 -32.81,45.555"
         style="fill:#231f20;fill-opacity:1;fill-rule:nonzero;stroke:none"
         id="path3388"
         inkscape:connector-curvature="0" /></g><g
       id="g3390"><g
         id="g3392"
         clip-path="url(#clipPath3394)"><g
           id="g3398"
           transform="translate(665.263,87.801)"><path
             d="m 0,0 c 0,38.947 14.901,48.129 39.951,48.129 l 32.686,0 c 39.576,0 44.542,2.576 44.291,-35.084 l -71.51,0.123 c -14.655,0 -16.865,-9.305 -16.865,-25.838 l 0,-14.322 c 0,-19.291 2.759,-26.637 15.905,-26.637 l 73.762,0.057 c 0,-22.406 -0.288,-34.229 -28.216,-34.229 l -50.053,0 C 14.901,-87.801 0,-78.615 0,-39.668 L 0,0"
             style="fill:#231f20;fill-opacity:1;fill-rule:nonzero;stroke:none"
             id="path3400"
             inkscape:connector-curvature="0" /></g></g></g><g
       id="g3402"
       transform="translate(682.522,545.253)"><path
         d="m 0,0 c 2.285,0 4.321,0.174 4.321,2.914 0,2.19 -1.999,2.611 -3.882,2.611 l -3.672,0 L -3.233,0 0,0 Z m -3.233,-10.015 -2.699,0 0,17.837 6.78,0 c 4.215,0 6.306,-1.566 6.306,-5.076 0,-3.193 -2.01,-4.588 -4.62,-4.911 l 5.07,-7.85 -3.031,0 -4.705,7.735 -3.101,0 0,-7.735 z m 3.267,-3.959 c 6.998,0 12.509,5.479 12.509,12.911 0,7.319 -5.511,12.847 -12.509,12.847 -7.072,0 -12.596,-5.528 -12.596,-12.847 0,-7.432 5.524,-12.911 12.596,-12.911 z m -15.702,12.911 c 0,8.885 7.202,15.418 15.702,15.418 8.432,0 15.619,-6.533 15.619,-15.418 0,-8.952 -7.187,-15.493 -15.619,-15.493 -8.5,0 -15.702,6.541 -15.702,15.493"
         style="fill:#231f20;fill-opacity:1;fill-rule:nonzero;stroke:none"
         id="path3404"
         inkscape:connector-curvature="0" /></g></g></svg>