<?xml version="1.0" encoding="UTF-8"?><!-- Created with Inkscape (http://www.inkscape.org/) --><svg xmlns:dc="http://purl.org/dc/elements/1.1/" xmlns:cc="http://creativecommons.org/ns#" xmlns:rdf="http://www.w3.org/1999/02/22-rdf-syntax-ns#" xmlns:svg="http://www.w3.org/2000/svg" xmlns="http://www.w3.org/2000/svg" xmlns:sodipodi="http://sodipodi.sourceforge.net/DTD/sodipodi-0.dtd" xmlns:inkscape="http://www.inkscape.org/namespaces/inkscape" id="svg2985" version="1.1" inkscape:version="0.48.0 r9654" width="569.90875" height="175.1925" xml:space="preserve" sodipodi:docname="Adaptec_color.pdf"><metadata id="metadata2991"><rdf:RDF><cc:Work rdf:about=""><dc:format>image/svg+xml</dc:format><dc:type rdf:resource="http://purl.org/dc/dcmitype/StillImage"/><dc:title/></cc:Work></rdf:RDF></metadata><defs id="defs2989"/><sodipodi:namedview pagecolor="#ffffff" bordercolor="#666666" borderopacity="1" objecttolerance="10" gridtolerance="10" guidetolerance="10" inkscape:pageopacity="0" inkscape:pageshadow="2" inkscape:window-width="1061" inkscape:window-height="760" id="namedview2987" showgrid="false" fit-margin-top="0" fit-margin-left="0" fit-margin-right="0" fit-margin-bottom="0" inkscape:zoom="0.52462312" inkscape:cx="298.95625" inkscape:cy="81.16125" inkscape:window-x="0" inkscape:window-y="0" inkscape:window-maximized="0" inkscape:current-layer="g2993"/><g id="g2993" inkscape:groupmode="layer" inkscape:label="Adaptec_color" transform="matrix(1.25,0,0,-1.25,-52.91875,342.78125)"><g id="g2995" transform="translate(280.234,151.298)"><path d="m 0,0 c 0,-3.251 1.689,-3.969 4.898,-3.969 l 4.77,0 c 3.885,0 4.265,1.351 4.265,3.758 l 0,2.533 c 0,2.406 -0.38,3.758 -4.265,3.758 l -4.77,0 C 1.689,6.08 0,5.362 0,2.111 L 0,0 z m -7.6,20.857 8.106,0 0,-13.005 0.085,0 c 0.507,3.378 3.927,4.307 7.262,4.307 l 2.407,0 c 10.26,0 11.527,-3.673 11.527,-9.161 l 0,-3.885 c 0,-5.488 -1.267,-9.162 -11.527,-9.162 l -2.365,0 c -4.898,0 -6.924,1.647 -7.811,4.307 l -0.084,0 0,-3.969 -7.6,0 0,30.568" style="fill:#231f20;fill-opacity:1;fill-rule:nonzero;stroke:none" id="path2997" inkscape:connector-curvature="0"/></g><g id="g2999" transform="translate(311.604,139.392)"><path d="m 0,0 0.675,0 c 3.209,0 5.278,0.632 5.278,3.124 l -2.87,0 -9.88,20.604 8.781,0 6.207,-14.989 6.206,14.989 8.782,0 L 11.104,-1.774 C 9.837,-4.392 7.388,-5.321 3.293,-5.321 1.773,-5.321 0.802,-5.194 0,-5.152 L 0,0" style="fill:#231f20;fill-opacity:1;fill-rule:nonzero;stroke:none" id="path3001" inkscape:connector-curvature="0"/></g><g id="g3003" transform="translate(369.149,156.871)"><path d="m 0,0 14.566,0 c 2.196,0 3.04,1.436 3.04,3.251 l 0,1.182 c 0,2.069 -1.013,3.251 -3.842,3.251 L 0,7.684 0,0 z m -9.373,15.284 25.543,0 c 8.91,0 11.063,-4.475 11.063,-10.47 l 0,-2.619 c 0,-4.559 -1.985,-9.795 -8.613,-9.795 l -18.62,0 0,-7.684 -9.373,0 0,30.568" style="fill:#231f20;fill-opacity:1;fill-rule:nonzero;stroke:none" id="path3005" inkscape:connector-curvature="0"/></g><g id="g3007" transform="translate(401.871,172.155)"><path d="M 0,0 14.397,0 24.994,-19.676 35.592,0 l 14.397,0 0,-30.568 -9.12,0 0,21.955 -0.084,0 -12.286,-21.955 -7.009,0 -12.286,21.955 -0.085,0 0,-21.955 -9.119,0 L 0,0" style="fill:#231f20;fill-opacity:1;fill-rule:nonzero;stroke:none" id="path3009" inkscape:connector-curvature="0"/></g><g id="g3011" transform="translate(457.939,161.431)"><path d="m 0,0 c 0,8.951 5.025,11.062 13.469,11.062 l 11.02,0 c 13.342,0 15.072,-2.871 14.988,-11.526 l -9.373,0 0,0.844 c 0,2.195 -1.605,2.829 -4.391,2.829 l -10.217,0 c -4.941,0 -5.87,-2.323 -5.87,-6.122 l 0,-3.293 c 0,-4.434 0.929,-6.122 5.363,-6.122 l 10.007,0 c 4.221,0 5.488,0.421 5.488,4.221 l 9.373,0 0,-2.871 c 0,-5.15 -1.858,-9.204 -11.273,-9.204 l -15.115,0 C 5.025,-20.182 0,-18.071 0,-9.119 L 0,0" style="fill:#231f20;fill-opacity:1;fill-rule:nonzero;stroke:none" id="path3013" inkscape:connector-curvature="0"/></g><g id="g3015" transform="translate(324.61,273.463)"><path d="m 0,0 18.066,0 0,-15.613 17.663,0 -6.589,-15.993 -11.074,0 0,-46.668 L 0,-78.274 0,0" style="fill:#00467f;fill-opacity:1;fill-rule:nonzero;stroke:none" id="path3017" inkscape:connector-curvature="0"/></g><g id="g3019" transform="translate(104.819,258.232)"><path d="m 0,0 0,-63.043 -18.829,0 0,46.859 -8.094,0 c -9.077,0 -16.433,-6.843 -16.433,-15.341 0,-8.49 7.356,-15.329 16.433,-15.329 l 7.338,0 -8.088,-16.549 c -0.312,-0.011 -0.626,-0.011 -0.942,-0.011 -18.707,0 -33.869,14.194 -33.869,31.708 0,17.513 15.162,31.706 33.869,31.706 L 0,0" style="fill:#00467f;fill-opacity:1;fill-rule:nonzero;stroke:none" id="path3021" inkscape:connector-curvature="0"/></g><g id="g3023" transform="translate(156.551,258.232)"><path d="m 0,0 -9.788,0 c -18.704,0 -33.868,-14.193 -33.868,-31.706 0,-17.514 15.164,-31.708 33.868,-31.708 0.322,0 0.634,0 0.951,0.011 l 8.081,16.549 -7.333,0 c -9.079,0 -16.439,6.839 -16.439,15.329 0,8.498 7.36,15.341 16.439,15.341 l 8.089,0 0,-46.859 18.827,0 0,79.036 L 0,15.993 0,0" style="fill:#00467f;fill-opacity:1;fill-rule:nonzero;stroke:none" id="path3025" inkscape:connector-curvature="0"/></g><g id="g3027" transform="translate(245.759,258.232)"><path d="m 0,0 0,-63.043 -18.835,0 0,46.859 -8.089,0 c -9.07,0 -16.433,-6.843 -16.433,-15.341 0,-8.49 7.363,-15.329 16.433,-15.329 l 7.339,0 -8.094,-16.549 c -0.315,-0.011 -0.624,-0.011 -0.934,-0.011 -18.713,0 -33.875,14.194 -33.875,31.708 0,17.513 15.162,31.706 33.875,31.706 L 0,0" style="fill:#00467f;fill-opacity:1;fill-rule:nonzero;stroke:none" id="path3029" inkscape:connector-curvature="0"/></g><g id="g3031" transform="translate(254.026,258.232)"><path d="m 0,0 0,-74.894 18.827,0 0,58.71 8.091,0 c 9.073,0 16.435,-6.843 16.435,-15.341 0,-8.49 -7.362,-15.329 -16.435,-15.329 l -7.343,0 8.099,-16.549 c 0.307,-0.011 0.624,-0.011 0.936,-0.011 18.708,0 33.874,14.194 33.874,31.708 C 62.484,-14.193 47.318,0 28.61,0 L 0,0" style="fill:#00467f;fill-opacity:1;fill-rule:nonzero;stroke:none" id="path3033" inkscape:connector-curvature="0"/></g><g id="g3035" transform="translate(400.849,215.262)"><path d="m 0,0 c -2.937,-2.977 -7.019,-4.83 -11.532,-4.83 -8.939,0 -16.183,7.25 -16.183,16.189 0,8.933 7.244,16.178 16.183,16.178 6.137,0 11.478,-3.426 14.22,-8.468 l -18.646,0 -5.846,-13.731 42.838,0 c 0.36,1.955 0.549,3.961 0.549,6.021 0,18.286 -14.828,33.114 -33.115,33.114 -18.292,0 -33.12,-14.828 -33.12,-33.114 0,-18.298 14.828,-33.126 33.12,-33.126 14.312,0 26.504,9.02 31.124,21.74 L 0,0" style="fill:#00467f;fill-opacity:1;fill-rule:nonzero;stroke:none" id="path3037" inkscape:connector-curvature="0"/></g><g id="g3039" transform="translate(478.432,220.403)"><path d="m 0,0 c -2.502,-5.617 -8.192,-9.595 -14.791,-9.595 -8.923,0 -16.157,7.164 -16.157,15.998 0,8.829 7.234,15.998 16.157,15.998 6.728,0 12.488,-4.198 14.92,-9.971 l 19.701,0 c -2.943,15.411 -16.986,27.099 -33.868,27.099 -19.018,0 -34.438,-14.834 -34.438,-33.126 0,-18.291 15.42,-33.115 34.438,-33.115 16.769,0 30.748,11.446 33.808,26.712 L 0,0" style="fill:#00467f;fill-opacity:1;fill-rule:nonzero;stroke:none" id="path3041" inkscape:connector-curvature="0"/></g></g></svg>