<?xml version="1.0" encoding="UTF-8" standalone="no"?>
<!-- Created with Inkscape (http://www.inkscape.org/) -->

<svg
   xmlns:dc="http://purl.org/dc/elements/1.1/"
   xmlns:cc="http://creativecommons.org/ns#"
   xmlns:rdf="http://www.w3.org/1999/02/22-rdf-syntax-ns#"
   xmlns:svg="http://www.w3.org/2000/svg"
   xmlns="http://www.w3.org/2000/svg"
   version="1.1"
   width="20.156445"
   height="20.164"
   id="svg2">
  <defs
     id="defs4" />
  <metadata
     id="metadata7">
    <rdf:RDF>
      <cc:Work
         rdf:about="">
        <dc:format>image/svg+xml</dc:format>
        <dc:type
           rdf:resource="http://purl.org/dc/dcmitype/StillImage" />
        <dc:title></dc:title>
      </cc:Work>
    </rdf:RDF>
  </metadata>
  <g
     transform="translate(-465.26742,-419.25597)"
     id="layer1">
    <g
       transform="matrix(0.07554889,0,0,0.07554889,452.83207,397.52811)"
       id="g2986">
      <path
         d="m 416.7,554.4 c 8.1,0 14.7,-6.6 14.7,-14.7 V 302.3 c 0,-8.1 -6.6,-14.7 -14.7,-14.7 H 179.3 c -8.1,0 -14.7,6.6 -14.7,14.7 v 237.4 c 0,8.1 6.6,14.7 14.7,14.7 h 237.4 z"
         id="Blue_1_-1"
         style="fill:#3c5a99" />
      <path
         d="M 348.7,554.4 V 451.1 h 34.7 l 5.2,-40.3 h -39.9 v -25.7 c 0,-11.7 3.2,-19.6 20,-19.6 l 21.3,0 v -36 c -3.7,-0.5 -16.4,-1.6 -31.1,-1.6 -30.8,0 -51.8,18.8 -51.8,53.2 v 29.7 h -34.8 v 40.3 h 34.8 v 103.4 h 41.6 z"
         id="f"
         style="fill:#ffffff" />
    </g>
  </g>
  <style
     type="text/css"
     id="style5539" />
  <style
     type="text/css"
     id="style5539-7" />
</svg>
