<?xml version="1.0" encoding="UTF-8" standalone="no"?>
<!-- Created with Inkscape (http://www.inkscape.org/) -->

<svg
   xmlns:dc="http://purl.org/dc/elements/1.1/"
   xmlns:cc="http://creativecommons.org/ns#"
   xmlns:rdf="http://www.w3.org/1999/02/22-rdf-syntax-ns#"
   xmlns:svg="http://www.w3.org/2000/svg"
   xmlns="http://www.w3.org/2000/svg"
   version="1.1"
   width="20.62125"
   height="20.172501"
   id="svg5264">
  <defs
     id="defs5266" />
  <metadata
     id="metadata5269">
    <rdf:RDF>
      <cc:Work
         rdf:about="">
        <dc:format>image/svg+xml</dc:format>
        <dc:type
           rdf:resource="http://purl.org/dc/dcmitype/StillImage" />
        <dc:title></dc:title>
      </cc:Work>
    </rdf:RDF>
  </metadata>
  <g
     transform="translate(-419.23348,-950.83614)"
     id="g5722">
    <path
       d="m 439.21098,950.83614 -19.33375,0 c -0.355,0 -0.64375,0.29 -0.64375,0.645 l 0,18.8825 c 0,0.35625 0.28875,0.645 0.64375,0.645 l 19.33375,0 c 0.355,0 0.64375,-0.28875 0.64375,-0.645 l 0,-18.8825 c 0,-0.355 -0.28875,-0.645 -0.64375,-0.645"
       id="path3171"
       style="fill:#de3733;fill-opacity:1;fill-rule:nonzero;stroke:none" />
    <path
       d="m 430.05848,961.90744 -0.65,-0.5075 c -0.19875,-0.1625 -0.46875,-0.38 -0.46875,-0.77875 0,-0.3975 0.27,-0.6525 0.505,-0.88625 0.75875,-0.59625 1.515,-1.2325 1.515,-2.57125 0,-1.375 -0.865,-2.10125 -1.28125,-2.445 l 1.12125,0 1.1725,-0.73625 -3.5575,0 c -0.97625,0 -2.3825,0.23 -3.41125,1.08 -0.77625,0.67125 -1.155,1.595 -1.155,2.4275 0,1.41 1.08375,2.8425 2.99625,2.8425 0.18,0 0.37875,-0.0188 0.5775,-0.0375 -0.09,0.2175 -0.18,0.4 -0.18,0.70625 0,0.56125 0.28875,0.90625 0.5425,1.23 -0.81375,0.0562 -2.33125,0.145 -3.45,0.83375 -1.065,0.63375 -1.38875,1.5575 -1.38875,2.20875 0,1.34125 1.2625,2.5875 3.88,2.5875 3.10625,0 4.74875,-1.7175 4.74875,-3.42 0,-1.25 -0.72,-1.865 -1.51625,-2.53375 m -2.365,-2.08375 c -1.55375,0 -2.255,-2.0075 -2.255,-3.22 0,-0.4725 0.0875,-0.96 0.39375,-1.34 0.29125,-0.36375 0.795,-0.59875 1.26625,-0.59875 1.49625,0 2.27375,2.02875 2.27375,3.33125 0,0.325 -0.0362,0.90375 -0.45125,1.3225 -0.29,0.29 -0.77625,0.505 -1.2275,0.505 m 0.0187,7.28125 c -1.9325,0 -3.1775,-0.925 -3.1775,-2.21125 0,-1.285 1.155,-1.72125 1.55125,-1.86375 0.75875,-0.255 1.73375,-0.29125 1.89625,-0.29125 0.18,0 0.27125,0 0.415,0.0187 1.37375,0.9775 1.96875,1.465 1.96875,2.39 0,1.12125 -0.92125,1.9575 -2.65375,1.9575"
       id="path3175"
       style="fill:#ffffff;fill-opacity:1;fill-rule:nonzero;stroke:none" />
    <path
       d="m 434.61723,959.79744 0,-1.81 -0.89375,0 0,1.81 -1.805,0 0,0.90375 1.805,0 0,1.82125 0.89375,0 0,-1.82125 1.81375,0 0,-0.90375 -1.81375,0"
       id="path3179"
       style="fill:#ffffff;fill-opacity:1;fill-rule:nonzero;stroke:none" />
  </g>
  <style
     type="text/css"
     id="style5539" />
</svg>
