<?xml version="1.0" encoding="UTF-8" standalone="no"?>
<!-- Created with Inkscape (http://www.inkscape.org/) -->

<svg
   xmlns:dc="http://purl.org/dc/elements/1.1/"
   xmlns:cc="http://creativecommons.org/ns#"
   xmlns:rdf="http://www.w3.org/1999/02/22-rdf-syntax-ns#"
   xmlns:svg="http://www.w3.org/2000/svg"
   xmlns="http://www.w3.org/2000/svg"
   version="1.1"
   width="20.15625"
   height="20.1875"
   id="svg5264">
  <defs
     id="defs5266" />
  <metadata
     id="metadata5269">
    <rdf:RDF>
      <cc:Work
         rdf:about="">
        <dc:format>image/svg+xml</dc:format>
        <dc:type
           rdf:resource="http://purl.org/dc/dcmitype/StillImage" />
        <dc:title></dc:title>
      </cc:Work>
    </rdf:RDF>
  </metadata>
  <path
     d="M 1.5,0 C 0.68125,0 0,0.6675 0,1.46875 l 0,17.25 c 0,0.80375 0.68125,1.46875 1.5,1.46875 l 17.15625,0 c 0.82125,0 1.5,-0.665 1.5,-1.46875 l 0,-17.25 C 20.15625,0.6675 19.4775,0 18.65625,0 L 1.5,0 z m 2.96875,2.78125 c 0.95625,0 1.75,0.79375 1.75,1.75 C 6.21875,5.49 5.425,6.25 4.46875,6.25 3.51125,6.25 2.75,5.49 2.75,4.53125 c 0,-0.95625 0.76125,-1.75 1.71875,-1.75 z m 9.125,4.5625 c 3.02625,0 3.59375,2.00125 3.59375,4.59375 l 0,5.28125 -3,0 0,-4.6875 c 0,-1.11625 -0.03,-2.5625 -1.5625,-2.5625 -1.555,0 -1.78125,1.21375 -1.78125,2.46875 l 0,4.78125 -3,0 0,-9.65625 2.875,0 0,1.34375 0.0312,0 c 0.3975,-0.755 1.39,-1.5625 2.84375,-1.5625 z M 3,7.5625 l 2.96875,0 0,9.65625 -2.96875,0 0,-9.65625 z"
     id="path3199"
     style="fill:#0977b6;fill-opacity:1;fill-rule:nonzero;stroke:none" />
  <style
     type="text/css"
     id="style5539" />
</svg>
