<?xml version="1.0" encoding="UTF-8" standalone="no"?>
<!-- Created with Inkscape (http://www.inkscape.org/) -->

<svg
   xmlns:dc="http://purl.org/dc/elements/1.1/"
   xmlns:cc="http://creativecommons.org/ns#"
   xmlns:rdf="http://www.w3.org/1999/02/22-rdf-syntax-ns#"
   xmlns:svg="http://www.w3.org/2000/svg"
   xmlns="http://www.w3.org/2000/svg"
   version="1.1"
   width="20.164442"
   height="20.164444"
   id="svg5264">
  <defs
     id="defs5266" />
  <metadata
     id="metadata5269">
    <rdf:RDF>
      <cc:Work
         rdf:about="">
        <dc:format>image/svg+xml</dc:format>
        <dc:type
           rdf:resource="http://purl.org/dc/dcmitype/StillImage" />
        <dc:title></dc:title>
      </cc:Work>
    </rdf:RDF>
  </metadata>
  <path
     d="m 19.053433,20.164444 c 0.612189,0 1.11101,-0.498821 1.11101,-1.11101 V 1.11101 C 20.164443,0.498821 19.665622,0 19.053433,0 H 1.111009 C 0.498821,0 0,0.498821 0,1.11101 v 17.942424 c 0,0.612189 0.498821,1.11101 1.111009,1.11101 h 17.942424 z"
     id="Blue_1_"
     style="fill:#55acee;fill-opacity:1" />
  <g
     transform="matrix(1.25,0,0,-1.25,16.802846,5.9109715)"
     id="g3193">
    <path
       d="m 0,0 c -0.396,-0.176 -0.821,-0.294 -1.267,-0.348 0.455,0.273 0.805,0.706 0.969,1.221 C -0.723,0.62 -1.195,0.437 -1.697,0.337 -2.1,0.766 -2.674,1.035 -3.308,1.035 c -1.217,0 -2.206,-0.988 -2.206,-2.208 0,-0.171 0.02,-0.341 0.058,-0.503 -1.833,0.091 -3.458,0.971 -4.547,2.306 -0.188,-0.326 -0.299,-0.705 -0.299,-1.11 0,-0.766 0.39,-1.441 0.982,-1.837 -0.363,0.012 -0.701,0.111 -0.999,0.277 l 0,-0.029 c 0,-1.069 0.759,-1.961 1.768,-2.163 -0.184,-0.051 -0.379,-0.077 -0.58,-0.077 -0.142,0 -0.28,0.014 -0.415,0.039 0.281,-0.877 1.095,-1.514 2.06,-1.532 -0.754,-0.592 -1.706,-0.945 -2.739,-0.945 -0.178,0 -0.354,0.01 -0.527,0.029 0.977,-0.625 2.135,-0.99 3.383,-0.99 4.057,0 6.275,3.363 6.275,6.279 0,0.096 -0.002,0.191 -0.007,0.287 C -0.67,-0.833 -0.296,-0.443 0,0"
       id="path3195"
       style="fill:#ffffff;fill-opacity:1;fill-rule:nonzero;stroke:none" />
  </g>
  <style
     type="text/css"
     id="style5539" />
</svg>
