<?xml version="1.0" encoding="UTF-8" standalone="no"?>
<!-- Created with Inkscape (http://www.inkscape.org/) -->

<svg
   xmlns:dc="http://purl.org/dc/elements/1.1/"
   xmlns:cc="http://creativecommons.org/ns#"
   xmlns:rdf="http://www.w3.org/1999/02/22-rdf-syntax-ns#"
   xmlns:svg="http://www.w3.org/2000/svg"
   xmlns="http://www.w3.org/2000/svg"
   version="1.1"
   width="20.17075"
   height="20.172001"
   id="svg3673">
  <defs
     id="defs3675" />
  <metadata
     id="metadata3678">
    <rdf:RDF>
      <cc:Work
         rdf:about="">
        <dc:format>image/svg+xml</dc:format>
        <dc:type
           rdf:resource="http://purl.org/dc/dcmitype/StillImage" />
        <dc:title></dc:title>
      </cc:Work>
    </rdf:RDF>
  </metadata>
  <g
     transform="translate(-394.79314,-397.39754)"
     id="layer1">
    <g
       transform="matrix(1.2506665,0,0,1.2506665,-277.41509,-233.14849)"
       id="W_1_of_3">
      <g
         id="g226">
        <path
           d="m 552.413,504.168 h -13.744 c -0.654,0 -1.189,0.521 -1.189,1.162 v 13.803 c 0,0.643 0.535,1.164 1.189,1.164 h 13.744 c 0.656,0 1.195,-0.521 1.195,-1.164 V 505.33 c 0,-0.64 -0.539,-1.162 -1.195,-1.162 z"
           id="path228" />
        <g
           id="g230">
          <path
             d="m 553.118,507.958 c 0,0.055 -0.017,0.104 -0.051,0.148 -0.034,0.044 -0.07,0.068 -0.112,0.068 -0.331,0.031 -0.604,0.139 -0.815,0.32 -0.212,0.182 -0.429,0.529 -0.653,1.039 l -3.438,7.748 c -0.022,0.07 -0.086,0.107 -0.188,0.107 -0.082,0 -0.145,-0.037 -0.19,-0.107 l -1.927,-4.031 -2.218,4.031 c -0.046,0.07 -0.107,0.107 -0.188,0.107 -0.1,0 -0.165,-0.037 -0.196,-0.107 l -3.377,-7.748 c -0.212,-0.479 -0.434,-0.816 -0.668,-1.006 -0.232,-0.189 -0.559,-0.309 -0.977,-0.354 -0.035,0 -0.07,-0.02 -0.103,-0.059 -0.032,-0.037 -0.047,-0.08 -0.047,-0.131 0,-0.127 0.036,-0.188 0.107,-0.188 0.302,0 0.615,0.012 0.945,0.039 0.305,0.029 0.593,0.041 0.861,0.041 0.274,0 0.6,-0.012 0.972,-0.041 0.391,-0.027 0.737,-0.039 1.038,-0.039 0.071,0 0.107,0.061 0.107,0.188 0,0.127 -0.022,0.189 -0.066,0.189 -0.301,0.021 -0.538,0.1 -0.711,0.229 -0.173,0.129 -0.261,0.301 -0.261,0.514 0,0.107 0.036,0.24 0.109,0.402 l 2.791,6.303 1.584,-2.99 -1.476,-3.098 c -0.267,-0.551 -0.484,-0.906 -0.654,-1.066 -0.172,-0.16 -0.43,-0.258 -0.777,-0.293 -0.032,0 -0.06,-0.02 -0.09,-0.059 -0.029,-0.037 -0.043,-0.08 -0.043,-0.131 0,-0.127 0.03,-0.188 0.095,-0.188 0.3,0 0.575,0.012 0.828,0.039 0.241,0.029 0.501,0.041 0.775,0.041 0.269,0 0.554,-0.012 0.855,-0.041 0.311,-0.027 0.615,-0.039 0.916,-0.039 0.072,0 0.107,0.061 0.107,0.188 0,0.127 -0.021,0.189 -0.065,0.189 -0.603,0.041 -0.904,0.211 -0.904,0.512 0,0.135 0.069,0.344 0.209,0.627 l 0.978,1.982 0.972,-1.814 c 0.134,-0.254 0.201,-0.471 0.201,-0.646 0,-0.412 -0.302,-0.633 -0.902,-0.66 -0.055,0 -0.081,-0.063 -0.081,-0.189 0,-0.045 0.013,-0.086 0.04,-0.127 0.026,-0.041 0.055,-0.061 0.08,-0.061 0.216,0 0.482,0.012 0.796,0.039 0.302,0.029 0.549,0.041 0.742,0.041 0.139,0 0.344,-0.012 0.612,-0.033 0.342,-0.031 0.628,-0.047 0.856,-0.047 0.055,0 0.08,0.053 0.08,0.16 0,0.145 -0.049,0.217 -0.146,0.217 -0.352,0.035 -0.634,0.133 -0.847,0.291 -0.213,0.156 -0.48,0.514 -0.797,1.068 l -1.297,2.395 1.753,3.572 2.589,-6.02 c 0.09,-0.219 0.136,-0.422 0.136,-0.605 0,-0.441 -0.302,-0.674 -0.904,-0.701 -0.054,0 -0.081,-0.063 -0.081,-0.189 0,-0.126 0.041,-0.188 0.123,-0.188 0.218,0 0.479,0.012 0.78,0.039 0.278,0.029 0.513,0.041 0.7,0.041 0.199,0 0.428,-0.012 0.688,-0.041 0.271,-0.027 0.514,-0.039 0.729,-0.039 0.064,0.002 0.096,0.055 0.096,0.162 z"
             id="letterw_1_"
             style="fill:#ffffff" />
        </g>
      </g>
    </g>
  </g>
</svg>
