<?xml version="1.0" encoding="UTF-8" standalone="no"?>
<!-- Created with Inkscape (http://www.inkscape.org/) -->

<svg
   xmlns:dc="http://purl.org/dc/elements/1.1/"
   xmlns:cc="http://creativecommons.org/ns#"
   xmlns:rdf="http://www.w3.org/1999/02/22-rdf-syntax-ns#"
   xmlns:svg="http://www.w3.org/2000/svg"
   xmlns="http://www.w3.org/2000/svg"
   xmlns:sodipodi="http://sodipodi.sourceforge.net/DTD/sodipodi-0.dtd"
   xmlns:inkscape="http://www.inkscape.org/namespaces/inkscape"
   width="76.473312"
   height="71.479134"
   id="svg3579"
   version="1.1"
   inkscape:version="0.48.4 r9939"
   sodipodi:docname="New document 2">
  <defs
     id="defs3581" />
  <sodipodi:namedview
     id="base"
     pagecolor="#ffffff"
     bordercolor="#666666"
     borderopacity="1.0"
     inkscape:pageopacity="0.0"
     inkscape:pageshadow="2"
     inkscape:zoom="2.8"
     inkscape:cx="-102.07096"
     inkscape:cy="87.689817"
     inkscape:document-units="px"
     inkscape:current-layer="layer1"
     showgrid="false"
     fit-margin-top="0"
     fit-margin-left="0"
     fit-margin-right="0"
     fit-margin-bottom="0"
     inkscape:window-width="1600"
     inkscape:window-height="1137"
     inkscape:window-x="4792"
     inkscape:window-y="-8"
     inkscape:window-maximized="1" />
  <metadata
     id="metadata3584">
    <rdf:RDF>
      <cc:Work
         rdf:about="">
        <dc:format>image/svg+xml</dc:format>
        <dc:type
           rdf:resource="http://purl.org/dc/dcmitype/StillImage" />
        <dc:title></dc:title>
      </cc:Work>
    </rdf:RDF>
  </metadata>
  <g
     inkscape:label="Layer 1"
     inkscape:groupmode="layer"
     id="layer1"
     transform="translate(-537.13932,-280.32667)">
    <path
       d="m 613.61263,339.98031 c 0,6.53256 -5.2974,11.82549 -11.82104,11.82549 h -52.82678 c -6.53256,0 -11.82549,-5.29739 -11.82549,-11.82549 v -47.82815 c 0,-6.53256 5.29739,-11.82549 11.82549,-11.82549 h 52.82678 c 6.5281,0 11.82104,5.29739 11.82104,11.82549 v 47.82815 z"
       id="path207"
       inkscape:connector-curvature="0"
       style="fill:#d82532" />
    <polygon
       style="fill:#d82532"
       id="polygon211"
       points="523.363,510.384 523.363,513.665 526.519,512.031 "
       transform="matrix(4.4590851,0,0,4.4590851,-1763.7263,-1967.6542)" />
    <path
       style="fill:#ffffff"
       inkscape:connector-curvature="0"
       id="path223"
       d="m 600.89086,305.65427 c 0,0 -0.51726,-3.5851 -2.07348,-5.16362 -1.97983,-2.07793 -4.20492,-2.08685 -5.21713,-2.20279 -7.2906,-0.53063 -18.22428,-0.53063 -18.22428,-0.53063 h -0.0178 c 0,0 -10.93367,0 -18.21982,0.53063 -1.02113,0.11594 -3.23729,0.12486 -5.21267,2.20279 -1.5696,1.57852 -2.07347,5.16362 -2.07347,5.16362 0,0 -0.52172,4.21829 -0.52172,8.43213 v 3.95521 c 0,4.21829 0.52172,8.42767 0.52172,8.42767 0,0 0.50387,3.59848 2.07347,5.16808 1.97538,2.07347 4.57948,2.01105 5.73884,2.22954 4.16479,0.3924 17.70703,0.52171 17.70703,0.52171 0,0 10.93814,-0.0134 18.22874,-0.544 1.01221,-0.11594 3.2373,-0.13378 5.21713,-2.20725 1.55622,-1.57406 2.07348,-5.16808 2.07348,-5.16808 0,0 0.52171,-4.20492 0.52171,-8.42767 v -3.95521 c 0,-4.21384 -0.52171,-8.43213 -0.52171,-8.43213 m -30.897,17.16748 v -14.6258 l 14.06841,7.33965 -14.06841,7.28615 z" />
  </g>
</svg>
