<?xml version="1.0" encoding="UTF-8"?><svg xmlns:dc="http://purl.org/dc/elements/1.1/" xmlns:cc="http://creativecommons.org/ns#" xmlns:rdf="http://www.w3.org/1999/02/22-rdf-syntax-ns#" xmlns:svg="http://www.w3.org/2000/svg" xmlns="http://www.w3.org/2000/svg" xmlns:xlink="http://www.w3.org/1999/xlink" height="300" width="380" id="svg2" xml:space="preserve" viewBox="0 0 380 300" y="0px" x="0px" version="1.1"><metadata id="metadata916"><rdf:RDF><cc:Work rdf:about=""><dc:format>image/svg+xml</dc:format><dc:type rdf:resource="http://purl.org/dc/dcmitype/StillImage"/><dc:title/></cc:Work></rdf:RDF></metadata><defs id="defs914"/><style id="style4" type="text/css">
	.st0{fill:url(#SVGID_1_);}
	.st1{fill:url(#SVGID_2_);}
	.st2{fill:url(#SVGID_3_);}
	.st3{fill:url(#SVGID_4_);}
	.st4{fill:url(#SVGID_5_);}
	.st5{clip-path:url(#SVGID_7_);}
	.st6{clip-path:url(#SVGID_7_);fill:url(#SVGID_10_);}
	.st7{clip-path:url(#SVGID_7_);fill:url(#SVGID_11_);}
	.st8{clip-path:url(#SVGID_7_);fill:url(#SVGID_12_);}
	.st9{clip-path:url(#SVGID_7_);fill:url(#SVGID_13_);}
	.st10{clip-path:url(#SVGID_7_);fill:url(#SVGID_14_);}
	.st11{clip-path:url(#SVGID_7_);fill:none;}
	.st12{clip-path:url(#SVGID_7_);fill:url(#SVGID_15_);}
	.st13{clip-path:url(#SVGID_17_);fill:url(#SVGID_18_);}
	.st14{clip-path:url(#SVGID_17_);fill:url(#SVGID_19_);}
	.st15{clip-path:url(#SVGID_17_);fill:#00BCE4;stroke:#00BCE4;stroke-width:5.4549;}
	.st16{clip-path:url(#SVGID_7_);fill:url(#SVGID_20_);}
	.st17{clip-path:url(#SVGID_7_);fill:url(#SVGID_21_);}
	.st18{opacity:0.53;clip-path:url(#SVGID_7_);fill:url(#SVGID_22_);}
	.st19{opacity:0.53;clip-path:url(#SVGID_7_);fill:url(#SVGID_23_);}
	.st20{clip-path:url(#SVGID_7_);fill:none;stroke:#231F20;stroke-width:0.1364;}
	.st21{clip-path:url(#SVGID_7_);fill:#FFFFFF;}
	.st22{clip-path:url(#SVGID_7_);fill:url(#SVGID_24_);}
	.st23{fill:url(#SVGID_25_);}
	.st24{fill:url(#SVGID_26_);}
	.st25{fill:url(#SVGID_27_);}
	.st26{fill:url(#SVGID_28_);}
	.st27{fill:url(#SVGID_29_);}
	.st28{fill:url(#SVGID_30_);}
	.st29{clip-path:url(#SVGID_33_);fill:url(#SVGID_34_);}
	.st30{clip-path:url(#SVGID_33_);fill:url(#SVGID_35_);}
	.st31{fill:none;}
	.st32{clip-path:url(#SVGID_38_);fill:url(#SVGID_39_);}
	.st33{fill:url(#SVGID_40_);}
	.st34{clip-path:url(#SVGID_42_);fill:url(#SVGID_43_);}
	.st35{clip-path:url(#SVGID_45_);fill:url(#SVGID_46_);}
	.st36{clip-path:url(#SVGID_45_);fill:url(#SVGID_47_);}
	.st37{clip-path:url(#SVGID_45_);fill:none;stroke:#231F20;stroke-width:0.1364;}
	.st38{opacity:0.6;clip-path:url(#SVGID_49_);fill:url(#SVGID_50_);}
	.st39{clip-path:url(#SVGID_49_);fill:url(#SVGID_51_);}
	.st40{opacity:0.6;clip-path:url(#SVGID_49_);fill:url(#SVGID_52_);}
	.st41{clip-path:url(#SVGID_49_);fill:url(#SVGID_53_);}
	.st42{fill:url(#SVGID_54_);}
</style><g transform="translate(-200.75,-105.75)" id="type"><g id="g7"><g id="g9"><path id="path11" d="m 254.5,384.6 -11.4,0 -2.2,-46.4 -9.2,46.4 -10.8,0 12.1,-55.5 17.1,0 1.8,38.4 18.4,-38.4 17.2,0 -10.6,55.5 -10.9,0 10.2,-46.1 -21.7,46.1 z"/><path id="path13" d="m 291.5,344.3 11.3,0 -8.9,40.3 -11.3,0 8.9,-40.3 z m 3.4,-15.2 11.3,0 -2.2,9.8 -11.3,0 2.2,-9.8 z"/><path id="path15" d="m 327.8,369.5 11.1,1.7 c -1.8,4.7 -4.5,8.3 -8.1,10.7 -3.6,2.5 -7.7,3.7 -12.5,3.7 -5.4,0 -9.7,-1.5 -12.8,-4.6 -3.2,-3.1 -4.7,-7.3 -4.7,-12.7 0,-4.4 1,-8.5 2.9,-12.4 1.9,-3.9 4.8,-7 8.6,-9.2 3.8,-2.2 8.1,-3.4 12.7,-3.4 5,0 9,1.3 12,3.8 3,2.5 4.6,5.8 5,9.9 l -10.7,1.1 c -0.3,-2.3 -1,-4 -2.2,-5.1 -1.2,-1.1 -2.8,-1.6 -4.7,-1.6 -2.2,0 -4.3,0.8 -6.2,2.3 -1.9,1.6 -3.4,3.9 -4.4,7 -1,3.1 -1.5,6.1 -1.5,8.8 0,2.4 0.6,4.2 1.8,5.5 1.2,1.3 2.7,1.9 4.6,1.9 1.8,0 3.6,-0.6 5.3,-1.9 1.5,-1.1 2.8,-3 3.8,-5.5 z"/><path id="path17" d="m 346.5,344.3 10.6,0 -1.7,7.7 c 4,-5.8 8.4,-8.7 13,-8.7 1.7,0 3.4,0.4 5.3,1.2 l -4.4,8.9 c -1.1,-0.4 -2.2,-0.5 -3.3,-0.5 -2,0 -4,0.7 -6.1,2.1 -2.1,1.4 -3.7,3.3 -4.8,5.7 -1.2,2.4 -2.3,6.1 -3.4,11.3 l -2.7,12.6 -11.3,0 8.8,-40.3 z"/><path id="path19" d="m 365.7,367.9 c 0,-7.5 2.2,-13.4 6.6,-17.9 4.4,-4.5 10.2,-6.7 17.3,-6.7 6.2,0 11.1,1.6 14.5,4.9 3.5,3.3 5.2,7.7 5.2,13.2 0,6.5 -2.2,12.2 -6.5,17 -4.4,4.8 -10.2,7.1 -17.5,7.1 -4,0 -7.5,-0.8 -10.5,-2.3 -3.1,-1.5 -5.3,-3.7 -6.9,-6.5 -1.5,-2.6 -2.2,-5.6 -2.2,-8.8 z M 398,360 c 0,-2.6 -0.8,-4.7 -2.4,-6.2 -1.6,-1.6 -3.6,-2.3 -6.1,-2.3 -2.5,0 -4.6,0.7 -6.5,2.2 -1.9,1.5 -3.4,3.6 -4.4,6.4 -1.1,2.8 -1.6,5.4 -1.6,7.7 0,2.9 0.8,5.2 2.4,6.9 1.6,1.7 3.7,2.6 6.2,2.6 3.1,0 5.7,-1.3 7.8,-3.9 3.1,-3.7 4.6,-8.1 4.6,-13.4 z"/><path id="path21" d="m 406.2,373.3 11.1,-1.7 c 1,2.2 2.2,3.8 3.6,4.7 1.4,0.9 3.4,1.4 5.9,1.4 2.6,0 4.6,-0.5 6.2,-1.7 1.1,-0.8 1.6,-1.7 1.6,-2.8 0,-0.7 -0.3,-1.4 -0.8,-2 -0.6,-0.6 -2.2,-1.2 -4.7,-2.1 -6.9,-2.2 -11.2,-3.9 -12.8,-5.2 -2.6,-2 -3.9,-4.6 -3.9,-7.8 0,-3.2 1.2,-5.9 3.8,-8.3 3.5,-3.2 8.6,-4.8 15.5,-4.8 5.4,0 9.6,1 12.3,2.9 2.8,1.9 4.5,4.5 5.3,7.8 l -10.5,1.8 c -0.6,-1.5 -1.5,-2.6 -2.7,-3.3 -1.7,-1 -3.8,-1.5 -6.2,-1.5 -2.4,0 -4.1,0.4 -5.2,1.1 -1.1,0.8 -1.6,1.6 -1.6,2.6 0,1 0.5,1.9 1.6,2.5 0.7,0.4 2.8,1.1 6.4,2.1 5.6,1.5 9.3,3.1 11.2,4.6 2.6,2.1 4,4.7 4,7.6 0,3.8 -1.7,7.1 -5,10 -3.4,2.8 -8.1,4.2 -14.2,4.2 -6.1,0 -10.8,-1.1 -14.1,-3.2 -3.4,-2 -5.6,-5 -6.8,-8.9 z"/><path id="path23" d="m 487.7,367.8 -28.5,0 c 0,0.4 0,0.8 0,1 0,2.7 0.8,4.9 2.4,6.5 1.6,1.7 3.5,2.5 5.8,2.5 3.7,0 6.7,-1.8 8.8,-5.6 l 10.2,1.6 c -2,3.9 -4.6,6.9 -7.9,8.9 -3.3,2 -7,3 -11.1,3 -5.6,0 -10.2,-1.7 -13.8,-5.2 -3.5,-3.4 -5.3,-8 -5.3,-13.6 0,-5.5 1.6,-10.4 4.8,-14.7 4.4,-5.8 10.6,-8.7 18.7,-8.7 5.2,0 9.2,1.5 12.3,4.6 3,3 4.5,7.3 4.5,12.8 -0.1,2.4 -0.3,4.8 -0.9,6.9 z m -9.6,-6.7 c 0,-0.5 0.1,-0.8 0.1,-1.1 0,-3 -0.7,-5.2 -2.1,-6.7 -1.4,-1.5 -3.3,-2.2 -5.6,-2.2 -2.4,0 -4.5,0.8 -6.3,2.5 -1.9,1.7 -3.1,4.2 -3.8,7.4 l 17.7,0 z"/><path id="path25" d="m 494.6,344.3 10.8,0 -1,4.9 c 4.2,-3.9 8.6,-5.8 13.2,-5.8 3.2,0 5.6,0.6 7.3,1.9 1.7,1.3 2.8,3 3.3,5.3 1.5,-2 3.5,-3.7 6.3,-5.1 2.7,-1.4 5.6,-2.1 8.5,-2.1 3.4,0 6,0.9 7.9,2.6 1.9,1.7 2.8,4.1 2.8,6.9 -0.1,1.4 -0.5,3.8 -1.2,7.2 l -5.5,24.6 -11.4,0 5.4,-24.7 c 0.7,-3.1 1.1,-4.8 1.2,-5.2 0,-1.1 -0.4,-2 -1.1,-2.7 -0.7,-0.7 -1.8,-1 -3.2,-1 -2.9,0 -5.4,1.4 -7.7,4.3 -1.6,2.1 -3,5.7 -4.2,10.9 l -4,18.3 -11.4,0 5.4,-24.4 c 0.6,-2.8 0.9,-4.6 0.9,-5.5 0,-1.1 -0.4,-1.9 -1.1,-2.6 -0.8,-0.7 -1.8,-1 -3.1,-1 -1.3,0 -2.5,0.4 -3.8,1.1 -1.3,0.7 -2.5,1.7 -3.5,2.9 -1,1.2 -1.8,2.8 -2.6,4.8 -0.3,0.9 -0.9,3 -1.6,6.2 l -4.1,18.5 -11.3,0 8.8,-40.3 z"/><path id="path27" d="m 561.2,344.3 11.4,0 -8.9,40.3 -11.4,0 8.9,-40.3 z m 3.4,-15.2 11.3,0 -2.2,9.8 -11.3,0 2.2,-9.8 z"/></g><g id="g29"><path id="path31" d="m 580.9,379.7 c 0,0.9 -0.2,1.7 -0.7,2.5 -0.4,0.8 -1,1.4 -1.8,1.8 -0.8,0.4 -1.6,0.7 -2.5,0.7 -0.9,0 -1.7,-0.2 -2.5,-0.7 -0.8,-0.4 -1.4,-1 -1.8,-1.8 -0.4,-0.8 -0.7,-1.6 -0.7,-2.5 0,-0.9 0.2,-1.7 0.7,-2.5 0.4,-0.8 1,-1.4 1.8,-1.8 0.8,-0.4 1.6,-0.7 2.5,-0.7 0.9,0 1.7,0.2 2.5,0.7 0.8,0.4 1.4,1 1.8,1.8 0.5,0.8 0.7,1.7 0.7,2.5 z m -1,0 c 0,-1.1 -0.4,-2 -1.2,-2.8 -0.8,-0.8 -1.7,-1.2 -2.8,-1.2 -1.1,0 -2,0.4 -2.8,1.2 -0.8,0.8 -1.2,1.7 -1.2,2.8 0,1.1 0.4,2 1.2,2.8 0.8,0.8 1.7,1.2 2.8,1.2 1.1,0 2,-0.4 2.8,-1.2 0.8,-0.7 1.2,-1.7 1.2,-2.8 z m -6.2,-2.6 2.4,0 c 0.7,0 1.2,0.1 1.5,0.4 0.3,0.3 0.5,0.6 0.5,1.1 0,0.4 -0.1,0.7 -0.3,0.9 -0.2,0.3 -0.6,0.4 -1.1,0.6 0.2,0.1 0.4,0.2 0.4,0.2 0.1,0.1 0.3,0.3 0.4,0.5 0,0 0.3,0.5 0.9,1.5 l -1.6,0 c -0.5,-1 -0.8,-1.6 -1,-1.8 -0.2,-0.2 -0.3,-0.3 -0.5,-0.3 0,0 -0.1,0 -0.2,0 l 0,2.1 -1.3,0 0,-5.2 z m 1.3,2.2 0.6,0 c 0.4,0 0.6,-0.1 0.8,-0.2 0.2,-0.1 0.2,-0.3 0.2,-0.5 0,-0.2 -0.1,-0.3 -0.2,-0.5 -0.1,-0.1 -0.4,-0.2 -0.8,-0.2 l -0.6,0 0,1.4 z"/></g></g></g><g transform="translate(-200.75,-105.75)" id="g34"><g id="g36"><linearGradient id="SVGID_1_" gradientUnits="userSpaceOnUse" x1="367.16479" y1="168.1992" x2="501.17249" y2="168.1992"><stop offset="0" style="stop-color:#086DB6" id="stop39"/><stop offset="0.1138" style="stop-color:#0F6AB0" id="stop41"/><stop offset="0.2189" style="stop-color:#1965A4" id="stop43"/><stop offset="0.3208" style="stop-color:#225E92" id="stop45"/><stop offset="0.4205" style="stop-color:#27537C" id="stop47"/><stop offset="0.5177" style="stop-color:#274560" id="stop49"/><stop offset="0.5951" style="stop-color:#243849" id="stop51"/><stop offset="0.7303" style="stop-color:#243849" id="stop53"/><stop offset="0.9326" style="stop-color:#086DB6" id="stop55"/></linearGradient><path class="st0" d="m 450.6,147.1 c -46.6,-10.5 -76.3,-4 -76.3,-4 l -0.1,7.8 c 0,0 44.5,-11.3 95.2,20 26,16.1 31.2,24.4 31.2,24.4 l 0.5,-0.1 0,-28.8 c -11.8,-6.8 -28.8,-14.5 -50.5,-19.3 z" id="path57" style="fill:url(#SVGID_1_)"/></g><linearGradient id="SVGID_2_" gradientUnits="userSpaceOnUse" x1="354.41309" y1="163.188" x2="524.12299" y2="163.188"><stop offset="0.362" style="stop-color:#005394" id="stop60"/><stop offset="0.5296" style="stop-color:#0462A6" id="stop62"/><stop offset="0.6742" style="stop-color:#086DB6" id="stop64"/><stop offset="0.9326" style="stop-color:#415DA9" id="stop66"/></linearGradient><path class="st1" d="m 500.7,186.6 23.2,-3.5 0.3,0.3 -2.2,-2.5 c 0,0 -26.5,-26.7 -73.4,-36 -23.4,-4.6 -44,-5.6 -60.1,-5.1 -17.2,0.4 -29.3,2.4 -34,3.2 6.7,-0.4 27.2,0.5 27.2,0.5 0,0 47.4,-6.2 91.1,20.6 26,16.1 27.9,22.5 27.9,22.5 z" id="path68" style="fill:url(#SVGID_2_)"/><g id="g70"><linearGradient id="SVGID_3_" gradientUnits="userSpaceOnUse" x1="500.86621" y1="188.5898" x2="525.95819" y2="188.5898"><stop offset="0" style="stop-color:#6F91CB" id="stop73"/><stop offset="0.1232" style="stop-color:#6688C1" id="stop75"/><stop offset="0.3501" style="stop-color:#4A72AF" id="stop77"/><stop offset="0.6535" style="stop-color:#085596" id="stop79"/><stop offset="0.6742" style="stop-color:#005394" id="stop81"/><stop offset="0.9326" style="stop-color:#415DA9" id="stop83"/></linearGradient><polygon class="st2" points="524.1,183.5 522.7,181.9 500.9,185.1 500.9,195.3 524.1,191.8 " id="polygon85" style="fill:url(#SVGID_3_)"/></g><g id="g87"><g id="g89"><linearGradient id="SVGID_4_" gradientUnits="userSpaceOnUse" x1="367.7674" y1="164.78909" x2="502.41309" y2="164.78909"><stop offset="8.988800e-02" style="stop-color:#5E91CC" id="stop92"/><stop offset="0.3652" style="stop-color:#086DB6" id="stop94"/><stop offset="0.4486" style="stop-color:#1265A7" id="stop96"/><stop offset="0.6016" style="stop-color:#18538A" id="stop98"/><stop offset="0.6798" style="stop-color:#19497B" id="stop100"/><stop offset="0.7669" style="stop-color:#19497B" id="stop102"/><stop offset="0.9944" style="stop-color:#5281C2" id="stop104"/></linearGradient><path class="st3" d="m 460.4,156.1 c -12.4,-6.1 -25.9,-9.7 -38.8,-11.6 -10.7,-1.5 -20.7,-2.1 -29.3,-2 -14.5,0.2 -19.4,1.3 -19.4,1.3 0,0 16.9,-2.6 46.2,2.2 11.4,1.8 25,5.3 34.8,9.9 33.9,15.8 46.5,30.6 46.9,31.1 l 0.8,-3.2 C 501,183 489.4,170.3 460.4,156.1 Z" id="path106" style="fill:url(#SVGID_4_)"/></g><g id="g108"><linearGradient id="SVGID_5_" gradientUnits="userSpaceOnUse" x1="500.71329" y1="184.0367" x2="526.71411" y2="184.0367"><stop offset="8.988800e-02" style="stop-color:#7DA3D6" id="stop111"/><stop offset="0.3652" style="stop-color:#086DB6" id="stop113"/><stop offset="0.9944" style="stop-color:#086DB6" id="stop115"/></linearGradient><path class="st4" d="m 524.1,183.5 -2.2,-2.5 -20.2,2.9 c 0,0 0,0 0,0 l -0.8,3.2 c 0,0 0,0 0,0 l 23.2,-3.6 z" id="path117" style="fill:url(#SVGID_5_)"/></g></g><g id="g119"><g id="g121"><defs id="defs123"><path id="SVGID_6_" d="m 544.9,236.1 c -6.3,52.1 -80.7,73 -116.7,71.8 -77.3,-2.5 -112.4,-57.6 -120.2,-72.6 -6.9,-15.5 -7.8,-28 -7.4,-33.7 0.1,-1.1 0.3,-2.7 -3.1,-2.5 -3.4,0.3 -42.4,5.7 -42.4,5.7 l -0.4,-8.6 c 0,0 22,-48.7 116,-54.7 2.8,-0.2 5.9,0.3 8.8,0.4 6.4,0.2 12.6,0.6 19.5,1.9 7.9,1.5 16.2,3.7 23.7,6.5 29,11.1 54.8,30.7 68,50.4 1.6,2.5 3.7,6.4 5.6,9.4 1.9,3 3.3,5.7 11.3,4.8 8,-1 34.2,-5.2 34.2,-5.2 0,0 4.8,11.6 3.1,26.4 z m -64.1,-20.4 c -0.2,-0.4 -0.5,-0.7 -0.7,-1.1 -0.5,-0.7 -0.9,-1.4 -1.4,-2.2 -0.5,-0.7 -0.9,-1.4 -1.4,-2 -17.1,-24.6 -44.6,-41.2 -76.6,-41.5 -33.8,-0.3 -45.3,22.1 -45.3,22.1 0,0 -32.6,4.6 -36,5.2 -3.4,0.5 -3.7,2.3 -3,4.6 1,3.5 2.2,6.8 3.5,9.9 0.3,0.6 0.6,1.3 0.8,1.9 0.2,0.4 0.4,0.8 0.5,1.2 0.2,0.4 0.4,0.8 0.6,1.1 0.1,0.3 0.3,0.5 0.4,0.8 l 0,0 c 13.7,27.1 39.6,39.8 72.8,40.7 38.9,1.1 50.2,-30.3 50.2,-30.3 l 1.1,-1 36.4,-6.1 c 0,0.1 -0.9,-1.5 -1.9,-3.3 z"/></defs><clipPath id="SVGID_7_"><use xlink:href="#SVGID_6_" style="overflow:visible" id="use127" x="0" y="0" width="100%" height="100%"/></clipPath><g class="st5" id="g129" clip-path="url(#SVGID_7_)"><defs id="defs131"><rect id="SVGID_8_" x="217.10001" y="134" width="355.79999" height="188.5"/></defs><clipPath id="SVGID_9_"><use xlink:href="#SVGID_8_" style="overflow:visible" id="use135" x="0" y="0" width="100%" height="100%"/></clipPath></g><linearGradient id="SVGID_10_" gradientUnits="userSpaceOnUse" x1="254.24471" y1="234.7556" x2="506.07599" y2="89.360703"><stop offset="0.2978" style="stop-color:#16B14B" id="stop138"/><stop offset="0.4213" style="stop-color:#00BCE4" id="stop140"/><stop offset="0.6011" style="stop-color:#005394" id="stop142"/><stop offset="1" style="stop-color:#005394" id="stop144"/></linearGradient><path class="st6" d="m 517.1,108.4 -273.9,0 0,107.3 79,0 c -2.3,-4.6 -4.3,-9.5 -5.9,-14.9 -0.7,-2.3 -0.4,-4.1 3,-4.6 3.4,-0.5 36,-5.2 36,-5.2 0,0 11.5,-22.4 45.3,-22.1 33.8,0.3 62.6,18.8 79.4,45.7 0.2,0.4 0.5,0.8 0.7,1.1 l 36.3,0 0,-107.3 z" id="path146" clip-path="url(#SVGID_7_)" style="fill:url(#SVGID_10_)"/><linearGradient id="SVGID_11_" gradientUnits="userSpaceOnUse" x1="346.63461" y1="361.99991" x2="507.32819" y2="170.4928"><stop offset="5.618000e-03" style="stop-color:#EE3425" id="stop149"/><stop offset="0.2044" style="stop-color:#EE3626" id="stop151"/><stop offset="0.276" style="stop-color:#EF3D29" id="stop153"/><stop offset="0.327" style="stop-color:#EF472F" id="stop155"/><stop offset="0.368" style="stop-color:#F0553A" id="stop157"/><stop offset="0.403" style="stop-color:#F06549" id="stop159"/><stop offset="0.4045" style="stop-color:#F06649" id="stop161"/><stop offset="0.4377" style="stop-color:#F58D4E" id="stop163"/><stop offset="0.4693" style="stop-color:#F9AA50" id="stop165"/><stop offset="0.4978" style="stop-color:#FCC151" id="stop167"/><stop offset="0.5221" style="stop-color:#FFCE51" id="stop169"/><stop offset="0.5393" style="stop-color:#FFD351" id="stop171"/><stop offset="0.7528" style="stop-color:#FFE5A2" id="stop173"/><stop offset="0.8708" style="stop-color:#FFD24F" id="stop175"/><stop offset="1" style="stop-color:#BAAA99" id="stop177"/></linearGradient><path class="st7" d="m 477.3,210.3 c 1,1.4 1.9,2.8 2.8,4.2 1.4,2.2 2.7,4.5 2.7,4.5 l -36.4,6.1 -1.1,1 c 0,0 -11.3,31.4 -50.2,30.3 -35.4,-1 -62.4,-15.3 -75.3,-46.1 l -20.7,0 0,111.8 255.7,0 0,-111.8 -77.5,0 z" id="path179" clip-path="url(#SVGID_7_)" style="fill:url(#SVGID_11_)"/><linearGradient id="SVGID_12_" gradientUnits="userSpaceOnUse" x1="316.39301" y1="203.2422" x2="316.39301" y2="233.2437"><stop offset="0" style="stop-color:#16B14B" id="stop182"/><stop offset="0.9775" style="stop-color:#EE3425" id="stop184"/></linearGradient><path class="st8" d="m 298.2,203.2 0,30 36.5,0 c -7.6,-7.8 -13.5,-17.8 -17.4,-30 l -19.1,0 z" id="path186" clip-path="url(#SVGID_7_)" style="fill:url(#SVGID_12_)"/><linearGradient id="SVGID_13_" gradientUnits="userSpaceOnUse" x1="262.46979" y1="184.6993" x2="293.61359" y2="210.832"><stop offset="2.809000e-02" style="stop-color:#543818" id="stop189"/><stop offset="0.2978" style="stop-color:#086DB6" id="stop191"/><stop offset="0.3187" style="stop-color:#2D7FC0" id="stop193"/><stop offset="0.3517" style="stop-color:#4B9DD1" id="stop195"/><stop offset="0.381" style="stop-color:#60B5DF" id="stop197"/><stop offset="0.4052" style="stop-color:#6EC5E7" id="stop199"/><stop offset="0.4213" style="stop-color:#72CCEA" id="stop201"/><stop offset="0.6011" style="stop-color:#005394" id="stop203"/><stop offset="0.9551" style="stop-color:#005394" id="stop205"/><stop offset="0.9944" style="stop-color:#16B14B" id="stop207"/></linearGradient><polyline class="st9" points="254.3,196 301.9,189.8 302.5,191 302.9,199.8 254.9,206.3 253.2,195.7     " id="polyline209" clip-path="url(#SVGID_7_)" style="fill:url(#SVGID_13_)"/><linearGradient id="SVGID_14_" gradientUnits="userSpaceOnUse" x1="254.3022" y1="174.6852" x2="496.77539" y2="174.6852"><stop offset="3.370800e-02" style="stop-color:#086DB6" id="stop212"/><stop offset="0.4213" style="stop-color:#BEE5F4" id="stop214"/><stop offset="0.5506" style="stop-color:#005394" id="stop216"/><stop offset="0.7921" style="stop-color:#243849" id="stop218"/><stop offset="0.9326" style="stop-color:#19497B" id="stop220"/></linearGradient><path class="st10" d="m 495,204.7 c -1,-1.8 -2,-3.5 -2.9,-4.8 -16.3,-24.4 -51.8,-49.1 -89.6,-57.4 -7.7,-2.1 -28.6,-2.8 -31.8,-2.6 -35.4,2.2 -64.8,10.7 -87.3,25.2 -18,11.6 -26.3,23.8 -29,28.5 l 2.8,1.6 c 2.6,-4.5 10.5,-16.1 27.9,-27.3 22.1,-14.2 49.4,-23.8 84.3,-25.9 5.2,-0.3 11.1,-0.6 16.8,0.1 17.6,2 34,7.1 51.4,16.2 21.1,11.1 41.5,28 51.8,43.5 0.8,1.2 1.8,2.9 2.8,4.6 l 1.9,3.2 2.8,-1.7 -1.9,-3.2 z" id="path222" clip-path="url(#SVGID_7_)" style="fill:url(#SVGID_14_)"/><path class="st11" d="m 254.7,196.2 c 0,0 22,-48.9 116,-54.7 47.1,-2.9 99.2,28.1 120,59.3 1.6,2.5 3.7,6.4 5.6,9.4 1.9,3 3.3,5.7 11.3,4.8 8,-1 34.2,-5.2 34.2,-5.2 0,0 4.8,11.5 3,26.3 -6.3,52.1 -80.7,73 -116.7,71.8 -77.3,-2.5 -112.4,-57.6 -120.2,-72.6 -6.9,-15.5 -7.8,-28 -7.4,-33.7 0.1,-1.1 0.3,-2.7 -3.1,-2.5 -3.4,0.3 -42.4,5.7 -42.4,5.7 l -0.3,-8.6 z" id="path224" clip-path="url(#SVGID_7_)" style="fill:none"/><linearGradient id="SVGID_15_" gradientUnits="userSpaceOnUse" x1="488.85031" y1="206.6207" x2="490.36191" y2="215.1931"><stop offset="0.427" style="stop-color:#005394" id="stop227"/><stop offset="0.6404" style="stop-color:#3069A5" id="stop229"/><stop offset="0.8207" style="stop-color:#BFB49F" id="stop231"/><stop offset="0.9045" style="stop-color:#FFE295" id="stop233"/></linearGradient><polygon class="st12" points="486.2,215.9 497.4,213.3 494.3,207.7 481.7,207.9 " id="polygon235" clip-path="url(#SVGID_7_)" style="fill:url(#SVGID_15_)"/><g class="st5" id="g237" clip-path="url(#SVGID_7_)"><defs id="defs239"><path id="SVGID_16_" d="m 482.8,219.1 c 0,0 -1.6,-2.5 -3,-4.6 -16.8,-26.9 -45.5,-45.4 -79.4,-45.7 -33.8,-0.3 -45.3,22.1 -45.3,22.1 -32.5,4.6 -29.2,4.1 -36,5.2 -3.3,0.5 -3.7,2.2 -3,4.5 l -1.9,-8.6 c -0.6,-2.2 0.9,-4.4 4.2,-4.9 3.4,-0.5 36,-5.2 36,-5.2 0,0 11.6,-21.5 45.4,-21.3 33.8,0.3 61.8,19.4 79.2,44.9 1.5,2.1 7,12.6 7,12.6 l -3.2,1 z"/></defs><clipPath id="SVGID_17_"><use xlink:href="#SVGID_16_" style="overflow:visible" id="use243" x="0" y="0" width="100%" height="100%"/></clipPath><linearGradient id="SVGID_18_" gradientUnits="userSpaceOnUse" x1="354.4502" y1="189.33791" x2="501.0264" y2="189.33791"><stop offset="1.123600e-02" style="stop-color:#16B14B" id="stop246"/><stop offset="2.306095e-02" style="stop-color:#1DB36D" id="stop248"/><stop offset="3.497089e-02" style="stop-color:#1DB58E" id="stop250"/><stop offset="4.722469e-02" style="stop-color:#1DB7A8" id="stop252"/><stop offset="5.960910e-02" style="stop-color:#19B9BE" id="stop254"/><stop offset="7.216204e-02" style="stop-color:#12BACF" id="stop256"/><stop offset="8.496256e-02" style="stop-color:#07BCDB" id="stop258"/><stop offset="9.815681e-02" style="stop-color:#00BCE2" id="stop260"/><stop offset="0.1124" style="stop-color:#00BCE4" id="stop262"/><stop offset="0.2416" style="stop-color:#086DB6" id="stop264"/><stop offset="0.4775" style="stop-color:#19497B" id="stop266"/><stop offset="0.8876" style="stop-color:#243849" id="stop268"/></linearGradient><path class="st13" d="m 501,159.6 -146.2,0 -0.4,31.5 c 0.6,-0.1 1,-0.1 1,-0.1 0,0 11.5,-22.4 45.3,-22.1 33.8,0.3 62.6,18.8 79.4,45.7 1.3,2.1 2.6,4.4 2.7,4.5 l 17.6,0 0.6,-59.5 z" id="path270" clip-path="url(#SVGID_17_)" style="fill:url(#SVGID_18_)"/><linearGradient id="SVGID_19_" gradientUnits="userSpaceOnUse" x1="316.12921" y1="195.61819" x2="355.28961" y2="195.61819"><stop offset="0.1685" style="stop-color:#16B14B" id="stop273"/><stop offset="0.5899" style="stop-color:#75C69D" id="stop275"/><stop offset="0.8764" style="stop-color:#00BCE4" id="stop277"/></linearGradient><path class="st14" d="m 355.3,191 c -2.3,0.3 -32.6,4.6 -35.9,5.2 -3.1,0.5 -3.6,2 -3.1,4.1 l 39,0 0,-9.3 z" id="path279" clip-path="url(#SVGID_17_)" style="fill:url(#SVGID_19_)"/><line class="st15" x1="354.70001" y1="193.10001" x2="315.20001" y2="199.2" id="line281" clip-path="url(#SVGID_17_)" style="fill:#00bce4;stroke:#00bce4;stroke-width:5.45489979"/><line class="st15" x1="354.70001" y1="192.60001" x2="315.20001" y2="198.60001" id="line283" clip-path="url(#SVGID_17_)" style="fill:#00bce4;stroke:#00bce4;stroke-width:5.45489979"/></g><path class="st11" d="m 316.4,200.6 c -0.6,-2.2 -0.3,-3.9 3,-4.5 3.4,-0.5 36,-5.2 36,-5.2 0,0 11.5,-22.4 45.3,-22.1 33.8,0.3 62.6,18.8 79.4,45.7 1.4,2.2 2.6,4.5 2.6,4.5" id="path285" clip-path="url(#SVGID_7_)" style="fill:none"/><linearGradient id="SVGID_20_" gradientUnits="userSpaceOnUse" x1="293.05429" y1="203.4321" x2="406.10699" y2="316.4848"><stop offset="1.123600e-02" style="stop-color:#005394" id="stop288"/><stop offset="1.493880e-02" style="stop-color:#0064A1" id="stop290"/><stop offset="1.987879e-02" style="stop-color:#0079B0" id="stop292"/><stop offset="2.514390e-02" style="stop-color:#008CBF" id="stop294"/><stop offset="3.070622e-02" style="stop-color:#009DCC" id="stop296"/><stop offset="3.666458e-02" style="stop-color:#00AAD7" id="stop298"/><stop offset="4.320763e-02" style="stop-color:#00B4DE" id="stop300"/><stop offset="5.078382e-02" style="stop-color:#00BAE3" id="stop302"/><stop offset="6.179800e-02" style="stop-color:#00BCE4" id="stop304"/><stop offset="0.236" style="stop-color:#F06649" id="stop306"/><stop offset="0.6573" style="stop-color:#791715" id="stop308"/></linearGradient><path class="st16" d="m 327.1,248.2 c -24.5,-38.7 -24.5,-54.3 -24.5,-54.3 l -2.7,3.3 c 0,0 -3,43.6 28.9,71.7 48.5,42.8 86.7,38.2 86.7,38.2 l 0.3,-11.2 c -0.1,0.1 -64.2,-8.9 -88.7,-47.7 z" id="path310" clip-path="url(#SVGID_7_)" style="fill:url(#SVGID_20_)"/><linearGradient id="SVGID_21_" gradientUnits="userSpaceOnUse" x1="497.1011" y1="204.4053" x2="497.1011" y2="215.20799"><stop offset="3.370800e-02" style="stop-color:#19497B" id="stop313"/><stop offset="0.2978" style="stop-color:#19497B" id="stop315"/><stop offset="0.9326" style="stop-color:#FFD664" id="stop317"/></linearGradient><path class="st17" d="m 492.1,206.3 c 0.2,0.3 0.5,0.9 0.7,1.2 0.7,1.3 1.6,3 2.6,4.7 l 1.9,3 4.8,-0.4 -3.8,-4.4 c -1,-1.8 -2,-3.5 -2.9,-4.8 -0.3,-0.4 -0.5,-0.8 -0.8,-1.2" id="path319" clip-path="url(#SVGID_7_)" style="fill:url(#SVGID_21_)"/><linearGradient id="SVGID_22_" gradientUnits="userSpaceOnUse" x1="352.87561" y1="288.7291" x2="455.77121" y2="229.3223"><stop offset="5.056200e-02" style="stop-color:#EE3425" id="stop322"/><stop offset="0.1108" style="stop-color:#EF3C26" id="stop324"/><stop offset="0.1942" style="stop-color:#F04F27" id="stop326"/><stop offset="0.2912" style="stop-color:#F2692C" id="stop328"/><stop offset="0.3985" style="stop-color:#F58834" id="stop330"/><stop offset="0.5127" style="stop-color:#FAAC40" id="stop332"/><stop offset="0.6124" style="stop-color:#FFD24F" id="stop334"/></linearGradient><path class="st18" d="m 449.3,268.9 c -22.9,-12 -30,-16.5 -30,-16.5 0,0 -0.3,0.1 -1,0.3 -6.3,2.5 -14,4.1 -23.2,3.8 -4,-0.1 -8,-0.4 -11.8,-0.9 -3.1,-0.3 -6.2,-0.8 -9.3,-1.5 -14.4,-3.1 -26.9,-9 -36.8,-18.2 -6.7,0.2 -13.6,0.5 -13.6,0.5 0,0 7.3,30.5 61,49.4 53.6,18.9 101.2,-4.3 101.2,-4.3 0,0 -17.5,-2.7 -36.5,-12.6 z" id="path336" clip-path="url(#SVGID_7_)" style="opacity:0.52999998;fill:url(#SVGID_22_)"/><linearGradient id="SVGID_23_" gradientUnits="userSpaceOnUse" x1="387.06369" y1="262.01279" x2="414.5687" y2="246.13271"><stop offset="5.056200e-02" style="stop-color:#F06649" id="stop339"/><stop offset="0.1072" style="stop-color:#E96448" id="stop341"/><stop offset="0.1527" style="stop-color:#DA6144" id="stop343"/><stop offset="0.1944" style="stop-color:#C55C3E" id="stop345"/><stop offset="0.2337" style="stop-color:#A95536" id="stop347"/><stop offset="0.2714" style="stop-color:#874B2B" id="stop349"/><stop offset="0.3074" style="stop-color:#623D1E" id="stop351"/><stop offset="0.3202" style="stop-color:#543818" id="stop353"/><stop offset="0.3439" style="stop-color:#654720" id="stop355"/><stop offset="0.4036" style="stop-color:#916E30" id="stop357"/><stop offset="0.4618" style="stop-color:#BB933D" id="stop359"/><stop offset="0.5172" style="stop-color:#DCB347" id="stop361"/><stop offset="0.5687" style="stop-color:#F3C84D" id="stop363"/><stop offset="0.6124" style="stop-color:#FFD24F" id="stop365"/></linearGradient><path class="st19" d="m 383.3,255.6 c 3.8,0.5 7.7,0.8 11.8,0.9 9.2,0.3 16.9,-1.3 23.2,-3.8 -3.9,0.9 -19.1,4.4 -35,2.9 z" id="path367" clip-path="url(#SVGID_7_)" style="opacity:0.52999998;fill:url(#SVGID_23_)"/><path class="st20" d="M 539.1,211.8" id="path369" clip-path="url(#SVGID_7_)" style="fill:none;stroke:#231f20;stroke-width:0.1364"/><path class="st21" d="m 319.4,196.2 c 3.3,-0.5 34.9,-5 36,-5.2 -32.6,4.6 -32.6,4.6 -36,5.2 z" id="path371" clip-path="url(#SVGID_7_)" style="fill:#ffffff"/><linearGradient id="SVGID_24_" gradientUnits="userSpaceOnUse" x1="323.6283" y1="179.3903" x2="345.51379" y2="201.2758"><stop offset="0" style="stop-color:#16B14B" id="stop374"/><stop offset="0.764" style="stop-color:#243849" id="stop376"/></linearGradient><path class="st22" d="m 355.3,182.7 c 0,0 -36,4.1 -39.3,4.6 -3.3,0.5 -0.3,12.4 -0.3,12.4 l 3.5,-3.1 36.2,-5.3 -0.1,-8.6 z" id="path378" clip-path="url(#SVGID_7_)" style="fill:url(#SVGID_24_)"/></g><g id="g380"><linearGradient id="SVGID_25_" gradientUnits="userSpaceOnUse" x1="428.16211" y1="270.37711" x2="545.09589" y2="270.37711"><stop offset="0.4294" style="stop-color:#FFDA76" id="stop383"/><stop offset="0.4584" style="stop-color:#FFDC7F" id="stop385"/><stop offset="0.5169" style="stop-color:#FFDF8A" id="stop387"/><stop offset="0.5644" style="stop-color:#FFE08E" id="stop389"/><stop offset="0.6022" style="stop-color:#EBCC82" id="stop391"/><stop offset="0.6669" style="stop-color:#C3A466" id="stop393"/><stop offset="0.7508" style="stop-color:#8D6D40" id="stop395"/><stop offset="0.8466" style="stop-color:#543818" id="stop397"/><stop offset="1" style="stop-color:#231F20" id="stop399"/></linearGradient><path class="st23" d="m 544.7,233.2 c -2.2,4.1 -8.5,19 -22,32.5 -41.3,32.4 -93.8,29.1 -93.8,29.1 l -0.7,13.1 c 36,1.2 110.4,-19.6 116.7,-71.8 0,0 0.6,-4.6 -0.2,-2.9 z" id="path401" style="fill:url(#SVGID_25_)"/><linearGradient id="SVGID_26_" gradientUnits="userSpaceOnUse" x1="510.8848" y1="213.07401" x2="542.06451" y2="213.07401"><stop offset="1.685400e-02" style="stop-color:#FFD24F" id="stop404"/><stop offset="0.3034" style="stop-color:#FFFACD" id="stop406"/><stop offset="0.3958" style="stop-color:#FFF5C4" id="stop408"/><stop offset="0.5531" style="stop-color:#FFEDAC" id="stop410"/><stop offset="0.7561" style="stop-color:#FFE288" id="stop412"/><stop offset="0.9948" style="stop-color:#FFD351" id="stop414"/><stop offset="1" style="stop-color:#FFD24F" id="stop416"/></linearGradient><polyline class="st24" points="541.8,209.8 538.4,210.3 510.9,214.6 511.3,216.3 539.4,212 542.1,210.3     " id="polyline418" style="fill:url(#SVGID_26_)"/><linearGradient id="SVGID_27_" gradientUnits="userSpaceOnUse" x1="522.77582" y1="277.02051" x2="522.77582" y2="210.3286"><stop offset="0.6292" style="stop-color:#FFFACD" id="stop421"/><stop offset="0.6784" style="stop-color:#FFF5C4" id="stop423"/><stop offset="0.7621" style="stop-color:#FFEDAC" id="stop425"/><stop offset="0.8702" style="stop-color:#FFE288" id="stop427"/><stop offset="0.9972" style="stop-color:#FFD351" id="stop429"/><stop offset="1" style="stop-color:#FFD24F" id="stop431"/></linearGradient><path class="st25" d="m 542.1,210.3 c 0,0 12.4,24.2 -17.7,50.9 -16.3,14.4 -23.5,15.8 -23.5,15.8 0,0 48.7,-25.6 38.5,-65.2 -0.1,-0.1 2.7,-1.5 2.7,-1.5 z" id="path433" style="fill:url(#SVGID_27_)"/><linearGradient id="SVGID_28_" gradientUnits="userSpaceOnUse" x1="302.8364" y1="247.9781" x2="545.29352" y2="247.9781"><stop offset="0" style="stop-color:#19497B" id="stop436"/><stop offset="6.179800e-02" style="stop-color:#231F20" id="stop438"/><stop offset="0.2135" style="stop-color:#543818" id="stop440"/><stop offset="0.218" style="stop-color:#5F3E1F" id="stop442"/><stop offset="0.2363" style="stop-color:#8C5839" id="stop444"/><stop offset="0.2539" style="stop-color:#B46E51" id="stop446"/><stop offset="0.2705" style="stop-color:#D47F62" id="stop448"/><stop offset="0.2855" style="stop-color:#E98B6E" id="stop450"/><stop offset="0.2978" style="stop-color:#F59073" id="stop452"/><stop offset="0.382" style="stop-color:#543818" id="stop454"/><stop offset="0.5337" style="stop-color:#FEE675" id="stop456"/><stop offset="0.7416" style="stop-color:#543818" id="stop458"/><stop offset="0.8146" style="stop-color:#005394" id="stop460"/><stop offset="0.882" style="stop-color:#543818" id="stop462"/><stop offset="0.9551" style="stop-color:#231F20" id="stop464"/></linearGradient><path class="st26" d="m 545.2,226 c 0,-0.2 -0.2,-1.9 -0.1,-1.5 0,0 -0.1,-1.5 -0.1,-1.5 0,-0.1 0,-0.2 0,-0.3 -0.1,-0.9 -0.4,-2.9 -0.4,-2.9 2.8,34.1 -46.3,72.4 -109.2,73.1 -98.9,1.1 -133,-78.4 -132.4,-94.2 l 0,0 c -1,18 33.5,99.5 132.4,98.4 54.9,-0.6 104.2,-32.2 109.8,-63.4 -0.1,-0.1 0.3,-4.6 0,-7.7 z" id="path466" style="fill:url(#SVGID_28_)"/><linearGradient id="SVGID_29_" gradientUnits="userSpaceOnUse" x1="362.7627" y1="264.8797" x2="472.43369" y2="201.5612"><stop offset="5.618000e-03" style="stop-color:#F06649" id="stop469"/><stop offset="0.1361" style="stop-color:#EC6548" id="stop471"/><stop offset="0.1831" style="stop-color:#E16246" id="stop473"/><stop offset="0.2166" style="stop-color:#D15F42" id="stop475"/><stop offset="0.2437" style="stop-color:#BC5A3C" id="stop477"/><stop offset="0.2668" style="stop-color:#A35334" id="stop479"/><stop offset="0.2874" style="stop-color:#854A2A" id="stop481"/><stop offset="0.3055" style="stop-color:#653F1F" id="stop483"/><stop offset="0.3146" style="stop-color:#543818" id="stop485"/><stop offset="0.4045" style="stop-color:#F06649" id="stop487"/><stop offset="0.4377" style="stop-color:#F58D4E" id="stop489"/><stop offset="0.4693" style="stop-color:#F9AA50" id="stop491"/><stop offset="0.4978" style="stop-color:#FCC151" id="stop493"/><stop offset="0.5221" style="stop-color:#FFCE51" id="stop495"/><stop offset="0.5393" style="stop-color:#FFD351" id="stop497"/><stop offset="0.7191" style="stop-color:#FDF49B" id="stop499"/><stop offset="0.8708" style="stop-color:#FFD24F" id="stop501"/><stop offset="1" style="stop-color:#BAAA99" id="stop503"/></linearGradient><path class="st27" d="m 482.7,219.4 c 0,0 -0.1,-0.2 -0.2,-0.3 l -36.2,6.1 -1.1,1 c 0,0 -11.3,31.4 -50.2,30.3 -16.4,-0.5 -30.9,-3.8 -43.1,-10.2 12.6,7.2 27.9,10.9 45.2,11.4 38.9,1.1 50.2,-30.3 50.2,-30.3 l 1.1,-1 c 0,0 33.5,-5.6 33.8,-5.7 1,-0.2 0.7,-1.1 0.5,-1.3 z" id="path505" style="fill:url(#SVGID_29_)"/><linearGradient id="SVGID_30_" gradientUnits="userSpaceOnUse" x1="482.26559" y1="218.30721" x2="487.6644" y2="218.30721"><stop offset="0.1067" style="stop-color:#BAAA99" id="stop508"/><stop offset="0.2764" style="stop-color:#B6A493" id="stop510"/><stop offset="0.5024" style="stop-color:#A99581" id="stop512"/><stop offset="0.7589" style="stop-color:#967F68" id="stop514"/><stop offset="1" style="stop-color:#81674E" id="stop516"/></linearGradient><path class="st28" d="m 487.7,215.9 c 0,0 -0.5,1.3 -1.7,2 -1.2,0.7 -3.4,1.2 -3.4,1.2 l -0.3,1.6 c 1.7,-0.3 3.5,-0.9 4.5,-1.9 1,-0.8 0.9,-2.9 0.9,-2.9 z" id="path518" style="fill:url(#SVGID_30_)"/><g id="g520"><defs id="defs522"><path id="SVGID_31_" d="m 486.1,217.9 c 0,0 -30,-56.3 -89.1,-56.3 -30.1,0 -41.7,21.1 -41.7,21.1 0,0 -35.3,4.8 -38.1,5.2 -2.7,0.4 -2.3,2.2 -2.3,4.5 0,2.3 4.4,34.2 34.1,52.2 0.1,0.1 -27.1,-12.3 -35.2,-49.2 -1.1,-6.3 -1.6,-9.4 3.7,-10.2 5.3,-0.8 36.2,-4.7 36.2,-4.7 0,0 12.2,-21.3 43.9,-21 37.7,0.3 64.8,20 85.6,49 3.4,4.9 3,4.5 3.8,5.7 0.8,1.2 0.7,1.7 0.4,2.4 -0.2,0.5 -1.3,1.3 -1.3,1.3 z"/></defs><linearGradient id="SVGID_32_" gradientUnits="userSpaceOnUse" x1="313.1189" y1="202.08211" x2="487.6633" y2="202.08211"><stop offset="1.685400e-02" style="stop-color:#27B7EA" id="stop526"/><stop offset="8.427000e-02" style="stop-color:#086DB6" id="stop528"/><stop offset="0.2191" style="stop-color:#231F20" id="stop530"/><stop offset="0.2224" style="stop-color:#272728" id="stop532"/><stop offset="0.263" style="stop-color:#458C97" id="stop534"/><stop offset="0.2809" style="stop-color:#33C2DA" id="stop536"/><stop offset="0.3652" style="stop-color:#005394" id="stop538"/><stop offset="0.618" style="stop-color:#243849" id="stop540"/><stop offset="0.6517" style="stop-color:#344C65" id="stop542"/><stop offset="0.6939" style="stop-color:#456288" id="stop544"/><stop offset="0.7328" style="stop-color:#5074A5" id="stop546"/><stop offset="0.7668" style="stop-color:#567FB9" id="stop548"/><stop offset="0.7921" style="stop-color:#5984C4" id="stop550"/><stop offset="0.8652" style="stop-color:#174E82" id="stop552"/><stop offset="0.9326" style="stop-color:#243849" id="stop554"/><stop offset="1" style="stop-color:#19497B" id="stop556"/></linearGradient><use xlink:href="#SVGID_31_" style="overflow:visible;fill:url(#SVGID_32_)" id="use558" x="0" y="0" width="100%" height="100%"/><clipPath id="SVGID_33_"><use xlink:href="#SVGID_31_" style="overflow:visible" id="use561" x="0" y="0" width="100%" height="100%"/></clipPath><linearGradient id="SVGID_34_" gradientUnits="userSpaceOnUse" x1="308.75131" y1="231.9696" x2="323.37671" y2="184.6971"><stop offset="1.685400e-02" style="stop-color:#27B7EA" id="stop564"/><stop offset="3.932600e-02" style="stop-color:#086DB6" id="stop566"/><stop offset="0.2191" style="stop-color:#231F20" id="stop568"/><stop offset="0.2241" style="stop-color:#252224" id="stop570"/><stop offset="0.3221" style="stop-color:#294772" id="stop572"/><stop offset="0.3652" style="stop-color:#005394" id="stop574"/><stop offset="0.618" style="stop-color:#19497B" id="stop576"/><stop offset="0.6446" style="stop-color:#185187" id="stop578"/><stop offset="0.7028" style="stop-color:#145F9D" id="stop580"/><stop offset="0.754" style="stop-color:#0E69AE" id="stop582"/><stop offset="0.7921" style="stop-color:#086DB6" id="stop584"/><stop offset="0.9101" style="stop-color:#00BCE4" id="stop586"/></linearGradient><path class="st29" d="m 319,196.2 -2.9,-13.8 -10.4,2.1 10.3,49.6 10.4,-2.1 -2.9,-14.1 c -2.8,-5.2 -5.2,-10.9 -7,-17.2 -0.7,-2.1 -0.5,-3.8 2.5,-4.5 z" id="path588" clip-path="url(#SVGID_33_)" style="fill:url(#SVGID_34_)"/><linearGradient id="SVGID_35_" gradientUnits="userSpaceOnUse" x1="317.38062" y1="216.08299" x2="323.12369" y2="197.52029"><stop offset="1.685400e-02" style="stop-color:#27B7EA" id="stop591"/><stop offset="3.932600e-02" style="stop-color:#086DB6" id="stop593"/><stop offset="0.2191" style="stop-color:#231F20" id="stop595"/><stop offset="0.2241" style="stop-color:#252224" id="stop597"/><stop offset="0.3221" style="stop-color:#294772" id="stop599"/><stop offset="0.3652" style="stop-color:#005394" id="stop601"/><stop offset="0.618" style="stop-color:#19497B" id="stop603"/><stop offset="0.6446" style="stop-color:#185187" id="stop605"/><stop offset="0.7028" style="stop-color:#145F9D" id="stop607"/><stop offset="0.754" style="stop-color:#0E69AE" id="stop609"/><stop offset="0.7921" style="stop-color:#086DB6" id="stop611"/><stop offset="0.9101" style="stop-color:#00BCE4" id="stop613"/></linearGradient><path class="st30" d="m 316.4,200.8 c 1.9,6.3 4.2,12 7,17.2 l -4.5,-21.7 c -2.9,0.6 -3.1,2.3 -2.5,4.5 z" id="path615" clip-path="url(#SVGID_33_)" style="fill:url(#SVGID_35_)"/></g><path class="st31" d="m 254.7,196.2 c 0,0 42.8,-6 45,-6.1 2.2,-0.1 2.5,0.1 2.7,0.8 0.3,0.7 0.3,-3.5 -5.6,-3 -5.9,0.5 -40.4,5.2 -40.4,5.2 l -1.7,3.1 z" id="path617" style="fill:none"/><g id="g619"><defs id="defs621"><path id="SVGID_36_" d="m 254.7,196.2 c 0,0 42.8,-6 45,-6.1 2.2,-0.1 2.5,0.1 2.7,0.8 0.2,0.6 0.6,-3.6 -5.6,-3 -5.9,0.5 -40.4,5.2 -40.4,5.2 l -1.7,3.1 z"/></defs><linearGradient id="SVGID_37_" gradientUnits="userSpaceOnUse" x1="254.69679" y1="192.07739" x2="302.48941" y2="192.07739"><stop offset="5.618000e-02" style="stop-color:#086DB6" id="stop625"/><stop offset="0.4213" style="stop-color:#00BCE4" id="stop627"/><stop offset="0.4808" style="stop-color:#00BAE2" id="stop629"/><stop offset="0.5369" style="stop-color:#00B2DC" id="stop631"/><stop offset="0.5916" style="stop-color:#00A6D3" id="stop633"/><stop offset="0.6456" style="stop-color:#0096C7" id="stop635"/><stop offset="0.6989" style="stop-color:#0081B7" id="stop637"/><stop offset="0.7512" style="stop-color:#006BA6" id="stop639"/><stop offset="0.8028" style="stop-color:#005395" id="stop641"/><stop offset="0.8034" style="stop-color:#005394" id="stop643"/><stop offset="0.808" style="stop-color:#005D91" id="stop645"/><stop offset="0.8168" style="stop-color:#006E88" id="stop647"/><stop offset="0.8267" style="stop-color:#007D7E" id="stop649"/><stop offset="0.8374" style="stop-color:#008A74" id="stop651"/><stop offset="0.8493" style="stop-color:#089668" id="stop653"/><stop offset="0.8626" style="stop-color:#119F5D" id="stop655"/><stop offset="0.8783" style="stop-color:#16A655" id="stop657"/><stop offset="0.8976" style="stop-color:#18AC4F" id="stop659"/><stop offset="0.9247" style="stop-color:#17AF4C" id="stop661"/><stop offset="1" style="stop-color:#16B14B" id="stop663"/></linearGradient><use xlink:href="#SVGID_36_" style="overflow:visible;fill:url(#SVGID_37_)" id="use665" x="0" y="0" width="100%" height="100%"/><clipPath id="SVGID_38_"><use xlink:href="#SVGID_36_" style="overflow:visible" id="use668" x="0" y="0" width="100%" height="100%"/></clipPath><linearGradient id="SVGID_39_" gradientUnits="userSpaceOnUse" x1="257.703" y1="205.397" x2="315.61951" y2="214.16541" gradientTransform="matrix(0.9887,-0.1497,0.1497,0.9887,-34.9466,27.7442)"><stop offset="5.618000e-02" style="stop-color:#086DB6" id="stop671"/><stop offset="0.4213" style="stop-color:#7BCEEB" id="stop673"/><stop offset="0.4315" style="stop-color:#74C4E4" id="stop675"/><stop offset="0.4739" style="stop-color:#5DA4CE" id="stop677"/><stop offset="0.5199" style="stop-color:#498ABC" id="stop679"/><stop offset="0.5693" style="stop-color:#3877AE" id="stop681"/><stop offset="0.623" style="stop-color:#2869A4" id="stop683"/><stop offset="0.6827" style="stop-color:#195F9D" id="stop685"/><stop offset="0.7518" style="stop-color:#0A5898" id="stop687"/><stop offset="0.8386" style="stop-color:#015495" id="stop689"/><stop offset="1" style="stop-color:#005394" id="stop691"/><stop offset="1" style="stop-color:#005D91" id="stop693"/><stop offset="1" style="stop-color:#006E88" id="stop695"/><stop offset="1" style="stop-color:#007D7E" id="stop697"/><stop offset="1" style="stop-color:#008A74" id="stop699"/><stop offset="1" style="stop-color:#089668" id="stop701"/><stop offset="1" style="stop-color:#119F5D" id="stop703"/><stop offset="1" style="stop-color:#16A655" id="stop705"/><stop offset="1" style="stop-color:#18AC4F" id="stop707"/><stop offset="1" style="stop-color:#17AF4C" id="stop709"/><stop offset="1" style="stop-color:#16B14B" id="stop711"/></linearGradient><polygon class="st32" points="250.6,192.5 307.9,183.9 309.2,191.9 251.8,200.6 " id="polygon713" clip-path="url(#SVGID_38_)" style="fill:url(#SVGID_39_)"/></g></g></g><linearGradient id="SVGID_40_" gradientUnits="userSpaceOnUse" x1="345.23001" y1="142.19009" x2="402.21191" y2="142.19009"><stop offset="0" style="stop-color:#0DBBE3" id="stop716"/><stop offset="0.2266" style="stop-color:#0BA2D1" id="stop718"/><stop offset="0.5583" style="stop-color:#1281BA" id="stop720"/><stop offset="0.7307" style="stop-color:#086CA8" id="stop722"/><stop offset="0.9326" style="stop-color:#005394" id="stop724"/></linearGradient><path class="st33" d="m 402.2,142.7 c -2.7,-0.2 -10.1,-0.2 -12.7,-0.1 -9.9,0.2 -20.5,1.1 -27.9,2 l -16.4,-0.1 c 0,0 19.3,-3.3 31.1,-4 4,-0.2 7.1,-0.4 9.8,-0.5 5.4,-0.2 12.5,-0.2 14.4,-0.1 1,0 1.7,2.8 1.7,2.8 z" id="path726" style="fill:url(#SVGID_40_)"/><g id="g728"><defs id="defs730"><path id="SVGID_41_" d="m 396.4,296.5 c -3.3,0.2 -38.5,0.4 -72.9,-11.6 -43.8,-15.3 -58.9,-35.6 -58.9,-35.6 l -12.8,-24.5 0,17.6 c 0,0 16.1,39.2 79.8,58.4 45,13.5 90.2,8.8 100.4,7.9 7.8,-0.7 24.5,-1.8 45.5,-8.9 -0.1,-2.9 0.1,-8.7 0.3,-10.8 -7.4,1.8 -42.2,8.8 -41.9,6.9 0.2,-1 -39.5,1.7 -39.5,0.6 z"/></defs><clipPath id="SVGID_42_"><use xlink:href="#SVGID_41_" style="overflow:visible" id="use734" x="0" y="0" width="100%" height="100%"/></clipPath><linearGradient id="SVGID_43_" gradientUnits="userSpaceOnUse" x1="246.8784" y1="266.70099" x2="485.98441" y2="266.70099"><stop offset="0" style="stop-color:#EE3425" id="stop737"/><stop offset="0.2046" style="stop-color:#E83325" id="stop739"/><stop offset="0.3276" style="stop-color:#DC3125" id="stop741"/><stop offset="0.429" style="stop-color:#CB2D23" id="stop743"/><stop offset="0.5187" style="stop-color:#B42821" id="stop745"/><stop offset="0.5999" style="stop-color:#98211C" id="stop747"/><stop offset="0.6748" style="stop-color:#791715" id="stop749"/><stop offset="0.6771" style="stop-color:#791715" id="stop751"/><stop offset="0.7914" style="stop-color:#791715" id="stop753"/><stop offset="0.9571" style="stop-color:#FFDA76" id="stop755"/></linearGradient><polygon class="st34" points="323.9,218.8 246.9,218.8 246.9,314.6 486,314.6 486,225.6 " id="polygon757" clip-path="url(#SVGID_42_)" style="fill:url(#SVGID_43_)"/></g><g id="g759"><defs id="defs761"><path id="SVGID_44_" d="m 436.3,291.9 c -16.2,1.1 -67.9,4.2 -107.9,-19.3 -40,-23.5 -46.2,-52.4 -46.2,-52.4 l -1.3,-1.1 -26.5,3.8 -2.5,1.8 8.1,17.2 c 0,0 16,28.7 70.7,45.3 45,13.6 89.3,9.8 89.3,9.8 0,0 32.5,-3.1 38.2,-4.2 0.1,-1.4 -14.3,-1.8 -21.9,-0.9 z"/></defs><clipPath id="SVGID_45_"><use xlink:href="#SVGID_44_" style="overflow:visible" id="use765" x="0" y="0" width="100%" height="100%"/></clipPath><linearGradient id="SVGID_46_" gradientUnits="userSpaceOnUse" x1="246.8784" y1="266.70099" x2="455.32809" y2="266.70099"><stop offset="0" style="stop-color:#EE3425" id="stop768"/><stop offset="0.3569" style="stop-color:#EE3725" id="stop770"/><stop offset="0.4854" style="stop-color:#EE3F26" id="stop772"/><stop offset="0.577" style="stop-color:#EE4B28" id="stop774"/><stop offset="0.6511" style="stop-color:#EF5B2B" id="stop776"/><stop offset="0.7146" style="stop-color:#EF6E31" id="stop778"/><stop offset="0.7708" style="stop-color:#F08138" id="stop780"/><stop offset="0.8203" style="stop-color:#F19742" id="stop782"/><stop offset="0.8589" style="stop-color:#F2AC4D" id="stop784"/><stop offset="1" style="stop-color:#FFD076" id="stop786"/></linearGradient><path class="st35" d="m 395.1,256.4 c -32,-0.9 -57.1,-12.6 -71.2,-37.6 l -77,0 0,95.8 208.4,-0.3 -9.3,-88.8 -0.7,0.6 c 0,0.1 -11.3,31.4 -50.2,30.3 z" id="path788" clip-path="url(#SVGID_45_)" style="fill:url(#SVGID_46_)"/><linearGradient id="SVGID_47_" gradientUnits="userSpaceOnUse" x1="269.96741" y1="218.6393" x2="273.52319" y2="238.80499"><stop offset="0" style="stop-color:#EE3425" id="stop791"/><stop offset="0.2777" style="stop-color:#EE3726" id="stop793"/><stop offset="0.3777" style="stop-color:#EF3F29" id="stop795"/><stop offset="0.449" style="stop-color:#F04A2F" id="stop797"/><stop offset="0.5067" style="stop-color:#F15A3A" id="stop799"/><stop offset="0.556" style="stop-color:#F36C4A" id="stop801"/><stop offset="0.599" style="stop-color:#F4805E" id="stop803"/><stop offset="0.618" style="stop-color:#F58A69" id="stop805"/><stop offset="0.6243" style="stop-color:#F58866" id="stop807"/><stop offset="0.6972" style="stop-color:#F36F4C" id="stop809"/><stop offset="0.7712" style="stop-color:#F15838" id="stop811"/><stop offset="0.8459" style="stop-color:#EF452C" id="stop813"/><stop offset="0.9216" style="stop-color:#EF3927" id="stop815"/><stop offset="1" style="stop-color:#EE3425" id="stop817"/></linearGradient><polygon class="st36" points="282.1,218.1 252.9,221.7 255.3,230.7 259.4,241.3 290.4,234.5 " id="polygon819" clip-path="url(#SVGID_45_)" style="fill:url(#SVGID_47_)"/><path class="st37" d="M 280.9,219.2" id="path821" clip-path="url(#SVGID_45_)" style="fill:none;stroke:#231f20;stroke-width:0.1364"/></g><g id="g823"><defs id="defs825"><path id="SVGID_48_" d="m 254.3,223 c 0,0 6.5,49.1 93.9,67.1 36.7,7.6 89.5,4.2 112.4,0.6 -2.6,2.4 -6,3.9 -7.4,5.2 -10.3,1.7 -59.7,7.5 -107.8,-2.7 -88.1,-18.8 -93.6,-68.3 -93.6,-68.3 l 2.5,-1.9 z"/></defs><use xlink:href="#SVGID_48_" style="overflow:visible;fill:#f48466" id="use828" x="0" y="0" width="100%" height="100%"/><clipPath id="SVGID_49_"><use xlink:href="#SVGID_48_" style="overflow:visible" id="use831" x="0" y="0" width="100%" height="100%"/></clipPath><linearGradient id="SVGID_50_" gradientUnits="userSpaceOnUse" x1="-65.755501" y1="174.3936" x2="-47.569599" y2="174.3936" gradientTransform="matrix(0.099,0.4093,-1.1665,0.2821,462.8388,200.4587)"><stop offset="0.2079" style="stop-color:#791715" id="stop834"/><stop offset="1" style="stop-color:#F48466" id="stop836"/></linearGradient><polygon class="st38" points="255.6,222.1 257.4,229.5 252,230.8 250.2,223.4 " id="polygon838" clip-path="url(#SVGID_49_)" style="opacity:0.6;fill:url(#SVGID_50_)"/><linearGradient id="SVGID_51_" gradientUnits="userSpaceOnUse" x1="45.007599" y1="180.3432" x2="63.193401" y2="180.3432" gradientTransform="matrix(0.2002,0.4326,-1.2415,0.5747,473.812,114.7505)"><stop offset="0" style="stop-color:#F48466" id="stop841"/><stop offset="0.3539" style="stop-color:#791715" id="stop843"/><stop offset="1" style="stop-color:#F48466" id="stop845"/></linearGradient><polygon class="st39" points="261.7,236.6 265.4,244.4 259.7,247 256.1,239.2 " id="polygon847" clip-path="url(#SVGID_49_)" style="fill:url(#SVGID_51_)"/><linearGradient id="SVGID_52_" gradientUnits="userSpaceOnUse" x1="115.3294" y1="167.4921" x2="133.5141" y2="167.4921" gradientTransform="matrix(1.4582,0.9845,-0.8584,1.2714,249.0349,-67.8501)"><stop offset="0" style="stop-color:#F48466" id="stop850"/><stop offset="0.2079" style="stop-color:#791715" id="stop852"/><stop offset="1" style="stop-color:#F48466" id="stop854"/></linearGradient><polygon class="st40" points="275.4,255.8 301.9,273.7 298,279.4 271.5,261.5 " id="polygon856" clip-path="url(#SVGID_49_)" style="opacity:0.6;fill:url(#SVGID_52_)"/><linearGradient id="SVGID_53_" gradientUnits="userSpaceOnUse" x1="183.4247" y1="199.3947" x2="201.6093" y2="199.3947" gradientTransform="matrix(6.6545,0.3975,-0.1928,3.2276,-842.8614,-426.6388)"><stop offset="0" style="stop-color:#F48466" id="stop859"/><stop offset="0.2079" style="stop-color:#791715" id="stop861"/><stop offset="0.5449" style="stop-color:#791715" id="stop863"/><stop offset="0.773" style="stop-color:#231F20" id="stop865"/><stop offset="1" style="stop-color:#FFD24F" id="stop867"/></linearGradient><polygon class="st41" points="339.7,282.5 460.7,289.7 459.9,304.4 338.9,297.2 " id="polygon869" clip-path="url(#SVGID_49_)" style="fill:url(#SVGID_53_)"/></g><linearGradient id="SVGID_54_" gradientUnits="userSpaceOnUse" x1="432.88281" y1="291.62839" x2="482.28909" y2="291.62839"><stop offset="6.179800e-02" style="stop-color:#231F20" id="stop872"/><stop offset="0.882" style="stop-color:#543818" id="stop874"/></linearGradient><path class="st42" d="m 433.4,298 c 5,-0.3 17.2,-1.6 25.8,-3.1 8.6,-1.5 18.9,-4.4 23.2,-5.9 l -0.4,-3.8 c -4.2,1.5 -14.5,4.3 -23.1,5.7 -8.6,1.5 -20.9,2.5 -26,2.7 l 0.5,4.4 z" id="path876" style="fill:url(#SVGID_54_)"/></g><g transform="translate(-200.75,-105.75)" id="g906"><path d="m 556.4,436.9 0,-5.7 -2,0 0,-1.2 5.5,0 0,1.2 -2,0 0,5.7 -1.5,0 z" id="path908"/><path d="m 560.7,436.9 0,-6.9 2.1,0 1.2,4.7 1.2,-4.7 2.1,0 0,6.9 -1.3,0 0,-5.4 -1.4,5.4 -1.3,0 -1.4,-5.4 0,5.4 -1.2,0 z" id="path910"/></g></svg>